{"glyphs":{"0":{"ha":1415,"x_min":0,"x_max":0,"o":"m 340 -6 l 1075 -6 b 1332 244 1247 -6 1332 82 l 1332 728 b 1075 978 1332 890 1247 978 l 340 978 b 83 728 168 978 83 890 l 83 244 b 340 -6 83 82 168 -6 z m 368 122 b 226 258 274 122 226 161 l 226 715 b 368 850 226 811 274 850 l 1047 850 b 1188 715 1142 850 1188 811 l 1188 258 b 1047 122 1188 161 1142 122 z "},"1":{"ha":524,"x_min":0,"x_max":0,"o":"m 413 972 l 63 972 b 42 951 49 972 42 967 l 42 869 b 63 849 42 856 49 849 l 294 849 l 294 19 b 314 0 294 7 301 0 l 413 0 b 433 19 426 0 433 7 l 433 953 b 413 972 433 965 426 972 z "},"2":{"ha":1300,"x_min":0,"x_max":0,"o":"m 83 0 l 1210 0 b 1229 21 1224 0 1229 6 l 1229 103 b 1210 124 1229 117 1224 124 l 204 124 l 204 181 b 339 336 204 258 232 325 l 1019 411 b 1238 715 1201 432 1238 533 b 965 979 1238 874 1161 979 l 364 979 b 75 724 174 979 75 899 l 75 699 b 94 679 75 686 81 679 l 193 679 b 213 699 207 679 213 686 b 367 854 213 814 265 854 l 958 854 b 1100 715 1056 854 1100 808 b 963 528 1100 619 1086 542 l 289 451 b 63 147 99 431 63 307 l 63 21 b 83 0 63 7 69 0 z "},"3":{"ha":1304,"x_min":0,"x_max":0,"o":"m 1071 496 l 1071 508 b 1224 715 1172 535 1224 581 b 946 979 1224 874 1143 979 l 364 979 b 74 724 174 979 74 899 l 74 699 b 93 679 74 686 79 679 l 192 679 b 211 699 206 679 211 686 b 365 854 211 814 265 854 l 940 854 b 1085 715 1038 854 1085 808 b 921 564 1085 619 1050 564 l 328 564 b 307 543 314 564 307 558 l 307 461 b 328 440 307 447 314 440 l 921 440 b 1104 261 1050 440 1104 388 b 957 118 1104 168 1056 118 l 354 118 b 200 274 254 118 200 158 b 181 293 200 286 194 293 l 82 293 b 63 274 68 293 63 286 l 63 249 b 353 -7 63 74 163 -7 l 964 -7 b 1242 261 1160 -7 1242 103 b 1071 496 1242 431 1172 472 z "},"4":{"ha":1314,"x_min":0,"x_max":0,"o":"m 1231 315 l 1133 315 l 1133 518 b 1114 539 1133 532 1128 539 l 1013 539 b 992 518 999 539 992 532 l 992 315 l 257 315 l 256 322 l 886 946 b 876 972 900 958 894 972 l 753 972 b 719 957 740 972 731 968 l 75 321 b 64 285 63 308 61 300 l 81 204 b 103 190 83 192 94 190 l 992 190 l 992 21 b 1013 0 992 7 999 0 l 1114 0 b 1133 21 1128 0 1133 7 l 1133 190 l 1231 190 b 1251 211 1244 190 1251 197 l 1251 294 b 1231 315 1251 308 1244 315 z "},"5":{"ha":1315,"x_min":0,"x_max":0,"o":"m 360 -7 l 965 -7 b 1246 276 1161 -7 1246 97 l 1246 353 b 985 632 1246 500 1192 632 l 408 632 b 229 561 324 632 254 597 l 219 561 l 247 849 l 1168 849 b 1189 869 1182 849 1189 856 l 1189 951 b 1168 972 1189 967 1182 972 l 147 972 b 126 951 133 972 128 965 l 82 456 b 101 431 81 439 88 431 l 219 431 b 363 508 240 467 276 508 l 954 508 b 1108 350 1056 508 1108 465 l 1108 276 b 958 118 1108 161 1057 118 l 361 118 b 207 274 260 118 207 158 b 188 293 207 286 201 293 l 89 293 b 69 274 75 293 69 286 l 69 249 b 360 -7 69 74 169 -7 z "},"6":{"ha":1347,"x_min":0,"x_max":0,"o":"m 369 -7 l 992 -7 b 1278 276 1192 -7 1278 97 l 1278 322 b 1015 603 1278 469 1222 603 l 406 603 b 232 529 326 603 257 568 l 222 529 l 221 715 b 364 854 221 808 267 854 l 964 854 b 1117 739 1067 854 1117 828 b 1136 719 1117 726 1122 719 l 1235 719 b 1254 739 1249 719 1254 726 l 1254 764 b 967 979 1254 913 1160 979 l 358 979 b 83 715 163 979 83 874 l 83 276 b 369 -7 83 97 169 -7 z m 375 118 b 221 276 272 118 221 161 l 221 319 b 375 478 221 435 272 478 l 985 478 b 1139 319 1088 478 1139 435 l 1139 276 b 985 118 1139 161 1088 118 z "},"7":{"ha":1276,"x_min":0,"x_max":0,"o":"m 1207 851 l 1207 951 b 1186 972 1207 965 1200 972 l 90 972 b 69 951 76 972 69 965 l 69 863 b 90 843 69 849 76 843 l 1019 843 l 1019 826 l 93 28 b 101 0 82 18 85 0 l 244 0 b 289 22 263 0 275 8 l 1189 810 b 1207 851 1204 824 1207 835 z "},"8":{"ha":1393,"x_min":0,"x_max":0,"o":"m 1165 535 b 1275 728 1240 565 1275 628 b 1018 979 1275 892 1194 979 l 375 979 b 117 728 199 979 117 892 b 228 535 117 628 153 565 b 83 308 128 499 83 426 l 83 267 b 369 -7 83 97 169 -7 l 1024 -7 b 1310 268 1224 -7 1310 97 l 1310 308 b 1165 535 1310 426 1265 499 z m 383 860 l 1010 860 b 1144 728 1111 860 1144 813 b 1010 594 1144 643 1111 594 l 383 594 b 249 728 281 594 249 643 b 383 860 249 813 281 860 z m 1171 268 b 1017 118 1171 161 1119 118 l 375 118 b 221 268 272 118 221 161 l 221 308 b 375 463 221 419 272 463 l 1017 463 b 1171 308 1119 463 1171 419 z "},"9":{"ha":1347,"x_min":0,"x_max":0,"o":"m 992 979 l 369 979 b 83 696 169 979 83 875 l 83 650 b 346 369 83 503 138 369 l 954 369 b 1129 443 1033 369 1104 406 l 1139 443 l 1139 258 b 996 118 1140 164 1094 118 l 396 118 b 244 233 294 118 244 144 b 225 253 244 246 239 253 l 126 253 b 107 233 113 253 107 246 l 107 208 b 393 -7 107 60 201 -7 l 1001 -7 b 1278 258 1199 -7 1278 99 l 1278 696 b 992 979 1278 875 1192 979 z m 985 854 b 1139 696 1088 854 1139 811 l 1139 653 b 985 494 1139 538 1088 494 l 375 494 b 221 653 274 494 221 538 l 221 696 b 375 854 221 811 274 854 z "},"A":{"ha":1501,"x_min":0,"x_max":0,"o":"m 1442 25 l 839 950 b 810 972 831 964 824 972 l 692 972 b 663 950 678 972 671 964 l 60 25 b 72 0 49 8 58 0 l 194 0 b 224 24 208 0 214 8 l 322 175 l 1179 175 l 1278 24 b 1307 0 1288 8 1293 0 l 1429 0 b 1442 25 1443 0 1453 8 z m 404 300 l 743 821 l 758 821 l 1097 300 z "},"Á":{"ha":1501,"x_min":0,"x_max":0,"o":"m 711 1040 l 794 1040 b 829 1065 808 1040 818 1051 l 953 1225 b 946 1250 965 1240 961 1250 l 810 1250 b 781 1225 796 1250 789 1242 l 699 1065 b 711 1040 690 1049 696 1040 z m 1442 25 l 839 950 b 810 972 831 964 824 972 l 692 972 b 663 950 678 972 671 964 l 60 25 b 72 0 49 8 58 0 l 194 0 b 224 24 208 0 214 8 l 322 175 l 1179 175 l 1278 24 b 1307 0 1288 8 1293 0 l 1429 0 b 1442 25 1443 0 1453 8 z m 404 300 l 743 821 l 758 821 l 1097 300 z "},"Ă":{"ha":1501,"x_min":0,"x_max":0,"o":"m 713 1043 l 786 1043 b 968 1231 910 1043 968 1104 b 947 1250 968 1244 961 1250 l 874 1250 b 853 1231 860 1250 854 1244 b 769 1140 850 1181 829 1140 l 729 1140 b 646 1231 669 1140 650 1181 b 626 1250 646 1244 640 1250 l 551 1250 b 532 1231 538 1250 532 1244 b 713 1043 532 1104 590 1043 z m 1442 25 l 839 950 b 810 972 831 964 824 972 l 692 972 b 663 950 678 972 671 964 l 60 25 b 72 0 49 8 58 0 l 194 0 b 224 24 208 0 214 8 l 322 175 l 1179 175 l 1278 24 b 1307 0 1288 8 1293 0 l 1429 0 b 1442 25 1443 0 1453 8 z m 404 300 l 743 821 l 758 821 l 1097 300 z "},"Ǎ":{"ha":1501,"x_min":0,"x_max":0,"o":"m 661 1060 b 697 1042 672 1046 682 1042 l 801 1042 b 840 1060 817 1042 829 1047 l 985 1225 b 974 1250 994 1238 988 1250 l 881 1250 b 839 1225 863 1250 854 1243 l 757 1132 l 743 1132 l 661 1225 b 621 1250 647 1243 639 1250 l 526 1250 b 517 1225 513 1250 506 1238 z m 1442 25 l 839 950 b 810 972 831 964 824 972 l 692 972 b 663 950 678 972 671 964 l 60 25 b 72 0 49 8 58 0 l 194 0 b 224 24 208 0 214 8 l 322 175 l 1179 175 l 1278 24 b 1307 0 1288 8 1293 0 l 1429 0 b 1442 25 1443 0 1453 8 z m 404 300 l 743 821 l 758 821 l 1097 300 z "},"Â":{"ha":1501,"x_min":0,"x_max":0,"o":"m 526 1042 l 621 1042 b 661 1065 639 1042 647 1049 l 743 1160 l 757 1160 l 839 1065 b 881 1042 854 1049 863 1042 l 974 1042 b 985 1067 988 1042 994 1054 l 840 1231 b 801 1250 829 1244 817 1250 l 697 1250 b 661 1231 682 1250 672 1244 l 517 1067 b 526 1042 506 1054 513 1042 z m 1442 25 l 839 950 b 810 972 831 964 824 972 l 692 972 b 663 950 678 972 671 964 l 60 25 b 72 0 49 8 58 0 l 194 0 b 224 24 208 0 214 8 l 322 175 l 1179 175 l 1278 24 b 1307 0 1288 8 1293 0 l 1429 0 b 1442 25 1443 0 1453 8 z m 404 300 l 743 821 l 758 821 l 1097 300 z "},"Ä":{"ha":1501,"x_min":0,"x_max":0,"o":"m 514 1106 l 619 1106 b 639 1125 633 1106 639 1111 l 639 1231 b 619 1250 639 1244 633 1250 l 514 1250 b 494 1231 500 1250 494 1244 l 494 1125 b 514 1106 494 1111 500 1106 z m 854 1106 l 960 1106 b 979 1125 974 1106 979 1111 l 979 1231 b 960 1250 979 1244 974 1250 l 854 1250 b 835 1231 840 1250 835 1244 l 835 1125 b 854 1106 835 1111 840 1106 z m 1442 25 l 839 950 b 810 972 831 964 824 972 l 692 972 b 663 950 678 972 671 964 l 60 25 b 72 0 49 8 58 0 l 194 0 b 224 24 208 0 214 8 l 322 175 l 1179 175 l 1278 24 b 1307 0 1288 8 1293 0 l 1429 0 b 1442 25 1443 0 1453 8 z m 404 300 l 743 821 l 758 821 l 1097 300 z "},"À":{"ha":1501,"x_min":0,"x_max":0,"o":"m 674 1064 b 707 1040 685 1050 693 1040 l 790 1040 b 804 1065 806 1040 813 1049 l 724 1225 b 694 1250 715 1242 708 1250 l 564 1250 b 550 1225 549 1250 538 1240 z m 1442 25 l 839 950 b 810 972 831 964 824 972 l 692 972 b 663 950 678 972 671 964 l 60 25 b 72 0 49 8 58 0 l 194 0 b 224 24 208 0 214 8 l 322 175 l 1179 175 l 1278 24 b 1307 0 1288 8 1293 0 l 1429 0 b 1442 25 1443 0 1453 8 z m 404 300 l 743 821 l 758 821 l 1097 300 z "},"Ā":{"ha":1501,"x_min":0,"x_max":0,"o":"m 525 1124 l 975 1124 b 996 1144 988 1124 996 1131 l 996 1229 b 975 1250 996 1243 988 1250 l 525 1250 b 504 1229 511 1250 504 1243 l 504 1144 b 525 1124 504 1131 511 1124 z m 1442 25 l 839 950 b 810 972 831 964 824 972 l 692 972 b 663 950 678 972 671 964 l 60 25 b 72 0 49 8 58 0 l 194 0 b 224 24 208 0 214 8 l 322 175 l 1179 175 l 1278 24 b 1307 0 1288 8 1293 0 l 1429 0 b 1442 25 1443 0 1453 8 z m 404 300 l 743 821 l 758 821 l 1097 300 z "},"Ą":{"ha":1544,"x_min":0,"x_max":0,"o":"m 1479 -37 l 1440 28 l 839 950 b 810 972 831 964 824 972 l 692 972 b 663 950 678 972 671 964 l 60 25 b 72 0 49 8 58 0 l 194 0 b 224 24 208 0 214 8 l 322 175 l 1179 175 l 1278 24 b 1290 7 1282 17 1286 11 l 1303 -14 b 1257 -51 1318 -37 1292 -47 l 1204 -57 b 1099 -167 1125 -65 1099 -79 b 1235 -285 1099 -262 1128 -285 l 1410 -285 b 1424 -271 1419 -285 1424 -279 l 1424 -207 b 1410 -192 1424 -197 1418 -192 l 1258 -192 b 1224 -165 1231 -192 1224 -185 b 1247 -139 1224 -144 1229 -142 l 1431 -119 b 1479 -37 1471 -115 1508 -85 z m 404 300 l 743 821 l 758 821 l 1097 300 z "},"Å":{"ha":1501,"x_min":0,"x_max":0,"o":"m 740 1025 l 758 1025 b 875 1140 826 1025 875 1075 l 875 1156 b 758 1272 875 1221 826 1272 l 740 1272 b 624 1156 672 1272 624 1221 l 624 1140 b 740 1025 624 1075 672 1025 z m 704 1154 b 743 1193 704 1178 719 1193 l 756 1193 b 796 1154 781 1193 796 1178 l 796 1144 b 756 1104 796 1121 781 1104 l 743 1104 b 704 1144 719 1104 704 1121 z m 1442 25 l 839 950 b 810 972 831 964 824 972 l 692 972 b 663 950 678 972 671 964 l 60 25 b 72 0 49 8 58 0 l 194 0 b 224 24 208 0 214 8 l 322 175 l 1179 175 l 1278 24 b 1307 0 1288 8 1293 0 l 1429 0 b 1442 25 1443 0 1453 8 z m 404 300 l 743 821 l 758 821 l 1097 300 z "},"Ã":{"ha":1501,"x_min":0,"x_max":0,"o":"m 543 1115 b 568 1110 547 1107 556 1101 b 650 1136 600 1129 619 1136 b 846 1076 725 1136 751 1076 b 975 1119 889 1076 929 1088 b 986 1147 986 1128 992 1135 l 957 1218 b 933 1225 953 1226 946 1232 b 850 1197 900 1204 881 1197 b 656 1257 775 1197 749 1257 b 525 1214 611 1257 571 1246 b 514 1186 514 1206 508 1199 z m 1442 25 l 839 950 b 810 972 831 964 824 972 l 692 972 b 663 950 678 972 671 964 l 60 25 b 72 0 49 8 58 0 l 194 0 b 224 24 208 0 214 8 l 322 175 l 1179 175 l 1278 24 b 1307 0 1288 8 1293 0 l 1429 0 b 1442 25 1443 0 1453 8 z m 404 300 l 743 821 l 758 821 l 1097 300 z "},"Æ":{"ha":2207,"x_min":0,"x_max":0,"o":"m 2110 128 l 1146 128 l 1146 422 l 2089 422 b 2110 443 2103 422 2110 429 l 2110 529 b 2089 550 2110 543 2103 550 l 1146 550 l 1146 844 l 2103 844 b 2124 865 2117 844 2124 851 l 2124 951 b 2103 972 2124 965 2117 972 l 1013 972 b 978 951 999 972 990 965 l 61 24 b 71 0 49 10 57 0 l 204 0 b 242 24 219 0 229 10 l 390 175 l 1003 175 l 1003 21 b 1024 0 1003 7 1010 0 l 2110 0 b 2131 21 2124 0 2131 7 l 2131 107 b 2110 128 2131 121 2124 128 z m 513 300 l 1003 799 l 1003 300 z "},"B":{"ha":1356,"x_min":0,"x_max":0,"o":"m 1154 499 l 1154 514 b 1244 699 1219 549 1244 611 l 1244 726 b 993 972 1244 897 1165 972 l 111 972 b 90 951 97 972 90 965 l 90 21 b 111 0 90 7 97 0 l 994 0 b 1279 258 1183 0 1279 79 l 1279 304 b 1154 499 1279 406 1238 468 z m 1103 714 l 1103 686 b 976 557 1103 585 1058 557 l 233 557 l 233 844 l 976 844 b 1103 714 1058 844 1103 821 z m 1138 261 b 986 128 1138 154 1086 128 l 233 128 l 233 440 l 986 440 b 1138 303 1086 440 1138 411 z "},"C":{"ha":1408,"x_min":0,"x_max":0,"o":"m 1207 658 l 1313 658 b 1332 678 1325 658 1332 665 l 1332 728 b 1081 978 1332 890 1253 978 l 340 978 b 83 728 168 978 83 890 l 83 244 b 340 -6 83 82 168 -6 l 1081 -6 b 1332 233 1253 -6 1332 81 l 1332 261 b 1313 281 1332 274 1325 281 l 1207 281 b 1188 261 1194 281 1188 274 l 1188 246 b 1053 122 1188 160 1149 122 l 368 122 b 226 258 274 122 226 161 l 226 715 b 368 850 226 811 274 850 l 1053 850 b 1188 715 1147 850 1188 811 l 1188 678 b 1207 658 1188 665 1194 658 z "},"Ć":{"ha":1354,"x_min":0,"x_max":0,"o":"m 710 1225 l 628 1065 b 640 1040 619 1049 625 1040 l 724 1040 b 758 1065 738 1040 747 1051 l 882 1225 b 875 1250 894 1240 889 1250 l 739 1250 b 710 1225 725 1250 718 1242 z m 1207 658 l 1313 658 b 1332 678 1325 658 1332 665 l 1332 728 b 1081 978 1332 890 1253 978 l 340 978 b 83 728 168 978 83 890 l 83 244 b 340 -6 83 82 168 -6 l 1081 -6 b 1332 233 1253 -6 1332 81 l 1332 261 b 1313 281 1332 274 1325 281 l 1207 281 b 1188 261 1194 281 1188 274 l 1188 246 b 1053 122 1188 160 1149 122 l 368 122 b 226 258 274 122 226 161 l 226 715 b 368 850 226 811 274 850 l 1053 850 b 1188 715 1147 850 1188 811 l 1188 678 b 1207 658 1188 665 1194 658 z "},"Č":{"ha":1354,"x_min":0,"x_max":0,"o":"m 614 1042 l 718 1042 b 757 1060 733 1042 746 1047 l 901 1225 b 890 1250 911 1238 904 1250 l 797 1250 b 756 1225 779 1250 771 1243 l 674 1132 l 660 1132 l 578 1225 b 538 1250 564 1243 556 1250 l 443 1250 b 433 1225 429 1250 422 1238 l 578 1060 b 614 1042 589 1046 599 1042 z m 1207 658 l 1313 658 b 1332 678 1325 658 1332 665 l 1332 728 b 1081 978 1332 890 1253 978 l 340 978 b 83 728 168 978 83 890 l 83 244 b 340 -6 83 82 168 -6 l 1081 -6 b 1332 233 1253 -6 1332 81 l 1332 261 b 1313 281 1332 274 1325 281 l 1207 281 b 1188 261 1194 281 1188 274 l 1188 246 b 1053 122 1188 160 1149 122 l 368 122 b 226 258 274 122 226 161 l 226 715 b 368 850 226 811 274 850 l 1053 850 b 1188 715 1147 850 1188 811 l 1188 678 b 1207 658 1188 665 1194 658 z "},"Ç":{"ha":1354,"x_min":0,"x_max":0,"o":"m 1207 658 l 1313 658 b 1332 678 1325 658 1332 665 l 1332 728 b 1081 978 1332 890 1253 978 l 340 978 b 83 728 168 978 83 890 l 83 244 b 340 -6 83 82 168 -6 l 653 -6 b 599 -82 615 -42 599 -58 b 654 -131 599 -114 624 -128 b 796 -169 767 -142 796 -143 b 744 -199 796 -194 779 -199 l 715 -199 b 665 -168 682 -199 669 -187 b 651 -154 665 -160 658 -154 l 571 -154 b 558 -171 561 -154 558 -161 b 679 -283 558 -240 588 -283 l 774 -283 b 904 -168 863 -283 904 -243 b 772 -57 904 -82 861 -67 b 774 -6 739 -53 714 -47 l 1081 -6 b 1332 233 1253 -6 1332 81 l 1332 261 b 1313 281 1332 274 1325 281 l 1207 281 b 1188 261 1194 281 1188 274 l 1188 246 b 1053 122 1188 160 1149 122 l 368 122 b 226 258 274 122 226 161 l 226 715 b 368 850 226 811 274 850 l 1053 850 b 1188 715 1147 850 1188 811 l 1188 678 b 1207 658 1188 665 1194 658 z "},"Ċ":{"ha":1354,"x_min":0,"x_max":0,"o":"m 632 1106 l 736 1106 b 756 1125 750 1106 756 1111 l 756 1231 b 736 1250 756 1244 750 1250 l 632 1250 b 611 1231 618 1250 611 1244 l 611 1125 b 632 1106 611 1111 618 1106 z m 1207 658 l 1313 658 b 1332 678 1325 658 1332 665 l 1332 728 b 1081 978 1332 890 1253 978 l 340 978 b 83 728 168 978 83 890 l 83 244 b 340 -6 83 82 168 -6 l 1081 -6 b 1332 233 1253 -6 1332 81 l 1332 261 b 1313 281 1332 274 1325 281 l 1207 281 b 1188 261 1194 281 1188 274 l 1188 246 b 1053 122 1188 160 1149 122 l 368 122 b 226 258 274 122 226 161 l 226 715 b 368 850 226 811 274 850 l 1053 850 b 1188 715 1147 850 1188 811 l 1188 678 b 1207 658 1188 665 1194 658 z "},"D":{"ha":1435,"x_min":0,"x_max":0,"o":"m 1099 972 l 111 972 b 90 951 97 972 90 965 l 90 21 b 111 0 90 7 97 0 l 1099 0 b 1351 250 1271 0 1351 88 l 1351 722 b 1099 972 1351 885 1271 972 z m 1208 264 b 1072 128 1208 167 1167 128 l 233 128 l 233 844 l 1072 844 b 1208 710 1167 844 1208 806 z "},"Ð":{"ha":1468,"x_min":0,"x_max":0,"o":"m 1133 972 l 144 972 b 124 951 131 972 124 965 l 124 561 l 28 561 b 7 540 14 561 7 554 l 7 458 b 28 438 7 443 14 438 l 124 438 l 124 21 b 144 0 124 7 131 0 l 1133 0 b 1385 250 1306 0 1385 88 l 1385 722 b 1133 972 1385 885 1306 972 z m 1242 264 b 1106 128 1242 167 1200 128 l 268 128 l 268 438 l 386 438 b 407 458 400 438 407 443 l 407 540 b 386 561 407 554 400 561 l 268 561 l 268 844 l 1106 844 b 1242 710 1200 844 1242 806 z "},"Ď":{"ha":1435,"x_min":0,"x_max":0,"o":"m 628 1060 b 664 1042 639 1046 649 1042 l 768 1042 b 807 1060 783 1042 796 1047 l 951 1225 b 940 1250 961 1238 954 1250 l 847 1250 b 806 1225 829 1250 821 1243 l 724 1132 l 710 1132 l 628 1225 b 588 1250 614 1243 606 1250 l 493 1250 b 483 1225 479 1250 472 1238 z m 1099 972 l 111 972 b 90 951 97 972 90 965 l 90 21 b 111 0 90 7 97 0 l 1099 0 b 1351 250 1271 0 1351 88 l 1351 722 b 1099 972 1351 885 1271 972 z m 1208 264 b 1072 128 1208 167 1167 128 l 233 128 l 233 844 l 1072 844 b 1208 710 1167 844 1208 806 z "},"Đ":{"ha":1468,"x_min":0,"x_max":0,"o":"m 1133 972 l 144 972 b 124 951 131 972 124 965 l 124 561 l 28 561 b 7 540 14 561 7 554 l 7 458 b 28 438 7 443 14 438 l 124 438 l 124 21 b 144 0 124 7 131 0 l 1133 0 b 1385 250 1306 0 1385 88 l 1385 722 b 1133 972 1385 885 1306 972 z m 1242 264 b 1106 128 1242 167 1200 128 l 268 128 l 268 438 l 386 438 b 407 458 400 438 407 443 l 407 540 b 386 561 407 554 400 561 l 268 561 l 268 844 l 1106 844 b 1242 710 1200 844 1242 806 z "},"E":{"ha":1294,"x_min":0,"x_max":0,"o":"m 1197 128 l 233 128 l 233 422 l 1176 422 b 1197 443 1190 422 1197 429 l 1197 529 b 1176 550 1197 543 1190 550 l 233 550 l 233 844 l 1190 844 b 1211 865 1204 844 1211 851 l 1211 951 b 1190 972 1211 965 1204 972 l 111 972 b 90 951 97 972 90 965 l 90 21 b 111 0 90 7 97 0 l 1197 0 b 1218 21 1211 0 1218 7 l 1218 107 b 1197 128 1218 121 1211 128 z "},"É":{"ha":1294,"x_min":0,"x_max":0,"o":"m 622 1040 l 706 1040 b 740 1065 719 1040 729 1051 l 864 1225 b 857 1250 876 1240 872 1250 l 721 1250 b 692 1225 707 1250 700 1242 l 610 1065 b 622 1040 601 1049 607 1040 z m 1197 128 l 233 128 l 233 422 l 1176 422 b 1197 443 1190 422 1197 429 l 1197 529 b 1176 550 1197 543 1190 550 l 233 550 l 233 844 l 1190 844 b 1211 865 1204 844 1211 851 l 1211 951 b 1190 972 1211 965 1204 972 l 111 972 b 90 951 97 972 90 965 l 90 21 b 111 0 90 7 97 0 l 1197 0 b 1218 21 1211 0 1218 7 l 1218 107 b 1197 128 1218 121 1211 128 z "},"Ě":{"ha":1294,"x_min":0,"x_max":0,"o":"m 572 1060 b 608 1042 583 1046 593 1042 l 713 1042 b 751 1060 728 1042 740 1047 l 896 1225 b 885 1250 906 1238 899 1250 l 792 1250 b 750 1225 774 1250 765 1243 l 668 1132 l 654 1132 l 572 1225 b 532 1250 558 1243 550 1250 l 438 1250 b 428 1225 424 1250 417 1238 z m 1197 128 l 233 128 l 233 422 l 1176 422 b 1197 443 1190 422 1197 429 l 1197 529 b 1176 550 1197 543 1190 550 l 233 550 l 233 844 l 1190 844 b 1211 865 1204 844 1211 851 l 1211 951 b 1190 972 1211 965 1204 972 l 111 972 b 90 951 97 972 90 965 l 90 21 b 111 0 90 7 97 0 l 1197 0 b 1218 21 1211 0 1218 7 l 1218 107 b 1197 128 1218 121 1211 128 z "},"Ȩ":{"ha":1294,"x_min":0,"x_max":0,"o":"m 1197 128 l 233 128 l 233 422 l 1176 422 b 1197 443 1190 422 1197 429 l 1197 529 b 1176 550 1197 543 1190 550 l 233 550 l 233 844 l 1190 844 b 1211 865 1204 844 1211 851 l 1211 951 b 1190 972 1211 965 1204 972 l 111 972 b 90 951 97 972 90 965 l 90 21 b 111 0 90 7 97 0 l 621 0 b 563 -82 579 -40 563 -57 b 617 -131 563 -114 588 -128 b 758 -169 729 -142 758 -143 b 707 -199 758 -194 742 -199 l 679 -199 b 629 -168 646 -199 632 -187 b 614 -154 628 -160 622 -154 l 535 -154 b 521 -171 524 -154 521 -161 b 642 -283 521 -240 551 -283 l 736 -283 b 867 -168 826 -283 867 -243 b 735 -57 867 -82 825 -67 b 744 0 700 -53 675 -47 l 1197 0 b 1218 21 1211 0 1218 7 l 1218 107 b 1197 128 1218 121 1211 128 z "},"Ê":{"ha":1294,"x_min":0,"x_max":0,"o":"m 438 1042 l 532 1042 b 572 1065 550 1042 558 1049 l 654 1160 l 668 1160 l 750 1065 b 792 1042 765 1049 774 1042 l 885 1042 b 896 1067 899 1042 906 1054 l 751 1231 b 713 1250 740 1244 728 1250 l 608 1250 b 572 1231 593 1250 583 1244 l 428 1067 b 438 1042 417 1054 424 1042 z m 1197 128 l 233 128 l 233 422 l 1176 422 b 1197 443 1190 422 1197 429 l 1197 529 b 1176 550 1197 543 1190 550 l 233 550 l 233 844 l 1190 844 b 1211 865 1204 844 1211 851 l 1211 951 b 1190 972 1211 965 1204 972 l 111 972 b 90 951 97 972 90 965 l 90 21 b 111 0 90 7 97 0 l 1197 0 b 1218 21 1211 0 1218 7 l 1218 107 b 1197 128 1218 121 1211 128 z "},"Ë":{"ha":1294,"x_min":0,"x_max":0,"o":"m 425 1106 l 531 1106 b 550 1125 544 1106 550 1111 l 550 1231 b 531 1250 550 1244 544 1250 l 425 1250 b 406 1231 411 1250 406 1244 l 406 1125 b 425 1106 406 1111 411 1106 z m 765 1106 l 871 1106 b 890 1125 885 1106 890 1111 l 890 1231 b 871 1250 890 1244 885 1250 l 765 1250 b 746 1231 751 1250 746 1244 l 746 1125 b 765 1106 746 1111 751 1106 z m 1197 128 l 233 128 l 233 422 l 1176 422 b 1197 443 1190 422 1197 429 l 1197 529 b 1176 550 1197 543 1190 550 l 233 550 l 233 844 l 1190 844 b 1211 865 1204 844 1211 851 l 1211 951 b 1190 972 1211 965 1204 972 l 111 972 b 90 951 97 972 90 965 l 90 21 b 111 0 90 7 97 0 l 1197 0 b 1218 21 1211 0 1218 7 l 1218 107 b 1197 128 1218 121 1211 128 z "},"Ė":{"ha":1294,"x_min":0,"x_max":0,"o":"m 608 1106 l 714 1106 b 733 1125 728 1106 733 1111 l 733 1231 b 714 1250 733 1244 728 1250 l 608 1250 b 589 1231 594 1250 589 1244 l 589 1125 b 608 1106 589 1111 594 1106 z m 1197 128 l 233 128 l 233 422 l 1176 422 b 1197 443 1190 422 1197 429 l 1197 529 b 1176 550 1197 543 1190 550 l 233 550 l 233 844 l 1190 844 b 1211 865 1204 844 1211 851 l 1211 951 b 1190 972 1211 965 1204 972 l 111 972 b 90 951 97 972 90 965 l 90 21 b 111 0 90 7 97 0 l 1197 0 b 1218 21 1211 0 1218 7 l 1218 107 b 1197 128 1218 121 1211 128 z "},"È":{"ha":1294,"x_min":0,"x_max":0,"o":"m 585 1064 b 618 1040 596 1050 604 1040 l 701 1040 b 715 1065 717 1040 724 1049 l 635 1225 b 606 1250 626 1242 619 1250 l 475 1250 b 461 1225 460 1250 449 1240 z m 1197 128 l 233 128 l 233 422 l 1176 422 b 1197 443 1190 422 1197 429 l 1197 529 b 1176 550 1197 543 1190 550 l 233 550 l 233 844 l 1190 844 b 1211 865 1204 844 1211 851 l 1211 951 b 1190 972 1211 965 1204 972 l 111 972 b 90 951 97 972 90 965 l 90 21 b 111 0 90 7 97 0 l 1197 0 b 1218 21 1211 0 1218 7 l 1218 107 b 1197 128 1218 121 1211 128 z "},"Ē":{"ha":1294,"x_min":0,"x_max":0,"o":"m 438 1124 l 888 1124 b 908 1144 900 1124 908 1131 l 908 1229 b 888 1250 908 1243 900 1250 l 438 1250 b 417 1229 424 1250 417 1243 l 417 1144 b 438 1124 417 1131 424 1124 z m 1197 128 l 233 128 l 233 422 l 1176 422 b 1197 443 1190 422 1197 429 l 1197 529 b 1176 550 1197 543 1190 550 l 233 550 l 233 844 l 1190 844 b 1211 865 1204 844 1211 851 l 1211 951 b 1190 972 1211 965 1204 972 l 111 972 b 90 951 97 972 90 965 l 90 21 b 111 0 90 7 97 0 l 1197 0 b 1218 21 1211 0 1218 7 l 1218 107 b 1197 128 1218 121 1211 128 z "},"Ę":{"ha":1294,"x_min":0,"x_max":0,"o":"m 1197 128 l 233 128 l 233 422 l 1176 422 b 1197 443 1190 422 1197 429 l 1197 529 b 1176 550 1197 543 1190 550 l 233 550 l 233 844 l 1190 844 b 1211 865 1204 844 1211 851 l 1211 951 b 1190 972 1211 965 1204 972 l 111 972 b 90 951 97 972 90 965 l 90 21 b 111 0 90 7 97 0 l 1081 0 b 1033 -32 1078 -24 1065 -28 l 979 -37 b 874 -147 899 -46 874 -60 b 1010 -265 874 -243 903 -265 l 1185 -265 b 1199 -251 1194 -265 1199 -260 l 1199 -187 b 1185 -172 1199 -178 1193 -172 l 1033 -172 b 999 -146 1006 -172 999 -165 b 1022 -119 999 -125 1004 -122 l 1132 -107 b 1218 -25 1192 -99 1218 -89 l 1218 107 b 1197 128 1218 121 1211 128 z "},"F":{"ha":1288,"x_min":0,"x_max":0,"o":"m 1190 972 l 111 972 b 90 951 97 972 90 965 l 90 21 b 111 0 90 7 97 0 l 214 0 b 233 21 228 0 233 7 l 233 435 l 1176 435 b 1197 456 1190 435 1197 442 l 1197 542 b 1176 563 1197 556 1190 563 l 233 563 l 233 844 l 1190 844 b 1211 865 1204 844 1211 851 l 1211 951 b 1190 972 1211 965 1204 972 z "},"G":{"ha":1408,"x_min":0,"x_max":0,"o":"m 340 -6 l 1079 -6 b 1332 244 1251 -6 1332 82 l 1332 465 b 1306 492 1332 481 1322 492 l 775 492 b 749 467 758 492 749 482 l 749 389 b 775 364 749 372 758 364 l 1188 364 l 1188 258 b 1051 122 1188 161 1147 122 l 368 122 b 226 258 274 122 226 161 l 226 715 b 368 850 226 811 274 850 l 1050 850 b 1185 715 1144 850 1185 811 l 1185 678 b 1204 658 1185 665 1192 658 l 1310 658 b 1329 678 1322 658 1329 665 l 1329 728 b 1078 978 1329 890 1250 978 l 340 978 b 83 728 168 978 83 890 l 83 244 b 340 -6 83 82 168 -6 z "},"Ğ":{"ha":1408,"x_min":0,"x_max":0,"o":"m 667 1043 l 740 1043 b 922 1231 864 1043 922 1104 b 901 1250 922 1244 915 1250 l 828 1250 b 807 1231 814 1250 808 1244 b 724 1140 804 1181 783 1140 l 683 1140 b 600 1231 624 1140 604 1181 b 581 1250 600 1244 594 1250 l 506 1250 b 486 1231 492 1250 486 1244 b 667 1043 486 1104 544 1043 z m 340 -6 l 1079 -6 b 1332 244 1251 -6 1332 82 l 1332 465 b 1306 492 1332 481 1322 492 l 775 492 b 749 467 758 492 749 482 l 749 389 b 775 364 749 372 758 364 l 1188 364 l 1188 258 b 1051 122 1188 161 1147 122 l 368 122 b 226 258 274 122 226 161 l 226 715 b 368 850 226 811 274 850 l 1050 850 b 1185 715 1144 850 1185 811 l 1185 678 b 1204 658 1185 665 1192 658 l 1310 658 b 1329 678 1322 658 1329 665 l 1329 728 b 1078 978 1329 890 1250 978 l 340 978 b 83 728 168 978 83 890 l 83 244 b 340 -6 83 82 168 -6 z "},"Ǧ":{"ha":1408,"x_min":0,"x_max":0,"o":"m 651 1042 l 756 1042 b 794 1060 771 1042 783 1047 l 939 1225 b 928 1250 949 1238 942 1250 l 835 1250 b 793 1225 817 1250 808 1243 l 711 1132 l 697 1132 l 615 1225 b 575 1250 601 1243 593 1250 l 481 1250 b 471 1225 467 1250 460 1238 l 615 1060 b 651 1042 626 1046 636 1042 z m 340 -6 l 1079 -6 b 1332 244 1251 -6 1332 82 l 1332 465 b 1306 492 1332 481 1322 492 l 775 492 b 749 467 758 492 749 482 l 749 389 b 775 364 749 372 758 364 l 1188 364 l 1188 258 b 1051 122 1188 161 1147 122 l 368 122 b 226 258 274 122 226 161 l 226 715 b 368 850 226 811 274 850 l 1050 850 b 1185 715 1144 850 1185 811 l 1185 678 b 1204 658 1185 665 1192 658 l 1310 658 b 1329 678 1322 658 1329 665 l 1329 728 b 1078 978 1329 890 1250 978 l 340 978 b 83 728 168 978 83 890 l 83 244 b 340 -6 83 82 168 -6 z "},"Ģ":{"ha":1408,"x_min":0,"x_max":0,"o":"m 340 -6 l 1079 -6 b 1332 244 1251 -6 1332 82 l 1332 465 b 1306 492 1332 481 1322 492 l 775 492 b 749 467 758 492 749 482 l 749 389 b 775 364 749 372 758 364 l 1188 364 l 1188 258 b 1051 122 1188 161 1147 122 l 368 122 b 226 258 274 122 226 161 l 226 715 b 368 850 226 811 274 850 l 1050 850 b 1185 715 1144 850 1185 811 l 1185 678 b 1204 658 1185 665 1192 658 l 1310 658 b 1329 678 1322 658 1329 665 l 1329 728 b 1078 978 1329 890 1250 978 l 340 978 b 83 728 168 978 83 890 l 83 244 b 340 -6 83 82 168 -6 z m 746 -83 l 664 -83 b 644 -103 650 -83 644 -89 l 644 -326 l 590 -326 b 571 -346 576 -326 571 -332 l 571 -422 b 590 -443 571 -436 576 -443 l 722 -443 b 767 -399 751 -443 767 -428 l 767 -103 b 746 -83 767 -89 760 -83 z "},"Ġ":{"ha":1408,"x_min":0,"x_max":0,"o":"m 651 1106 l 757 1106 b 776 1125 771 1106 776 1111 l 776 1231 b 757 1250 776 1244 771 1250 l 651 1250 b 632 1231 638 1250 632 1244 l 632 1125 b 651 1106 632 1111 638 1106 z m 340 -6 l 1079 -6 b 1332 244 1251 -6 1332 82 l 1332 465 b 1306 492 1332 481 1322 492 l 775 492 b 749 467 758 492 749 482 l 749 389 b 775 364 749 372 758 364 l 1188 364 l 1188 258 b 1051 122 1188 161 1147 122 l 368 122 b 226 258 274 122 226 161 l 226 715 b 368 850 226 811 274 850 l 1050 850 b 1185 715 1144 850 1185 811 l 1185 678 b 1204 658 1185 665 1192 658 l 1310 658 b 1329 678 1322 658 1329 665 l 1329 728 b 1078 978 1329 890 1250 978 l 340 978 b 83 728 168 978 83 890 l 83 244 b 340 -6 83 82 168 -6 z "},"H":{"ha":1363,"x_min":0,"x_max":0,"o":"m 1251 972 l 1149 972 b 1129 951 1135 972 1129 965 l 1129 550 l 233 550 l 233 951 b 214 972 233 965 228 972 l 111 972 b 90 951 97 972 90 965 l 90 21 b 111 0 90 7 97 0 l 214 0 b 233 21 228 0 233 7 l 233 422 l 1129 422 l 1129 21 b 1149 0 1129 7 1135 0 l 1251 0 b 1272 21 1265 0 1272 7 l 1272 951 b 1251 972 1272 965 1265 972 z "},"Ħ":{"ha":1363,"x_min":0,"x_max":0,"o":"m 1251 972 l 1149 972 b 1129 951 1135 972 1129 965 l 1129 790 l 233 790 l 233 951 b 214 972 233 965 228 972 l 111 972 b 90 951 97 972 90 965 l 90 21 b 111 0 90 7 97 0 l 214 0 b 233 21 228 0 233 7 l 233 422 l 1129 422 l 1129 21 b 1149 0 1129 7 1135 0 l 1251 0 b 1272 21 1265 0 1272 7 l 1272 951 b 1251 972 1272 965 1265 972 z m 233 550 l 233 663 l 1129 663 l 1129 550 z "},"I":{"ha":324,"x_min":0,"x_max":0,"o":"m 90 951 l 90 21 b 111 0 90 7 97 0 l 214 0 b 233 21 228 0 233 7 l 233 951 b 214 972 233 965 228 972 l 111 972 b 90 951 97 972 90 965 z "},"Ĳ":{"ha":1674,"x_min":0,"x_max":0,"o":"m 90 951 l 90 21 b 111 0 90 7 97 0 l 214 0 b 233 21 228 0 233 7 l 233 951 b 214 972 233 965 228 972 l 111 972 b 90 951 97 972 90 965 z m 421 0 l 1331 0 b 1583 250 1503 0 1583 88 l 1583 951 b 1563 972 1583 965 1576 972 l 1460 972 b 1440 951 1446 972 1440 965 l 1440 264 b 1304 128 1440 167 1399 128 l 421 128 b 400 108 407 128 400 122 l 400 21 b 421 0 400 7 407 0 z "},"Í":{"ha":324,"x_min":0,"x_max":0,"o":"m 192 1225 l 110 1065 b 122 1040 101 1049 107 1040 l 206 1040 b 240 1065 219 1040 229 1051 l 364 1225 b 357 1250 376 1240 372 1250 l 221 1250 b 192 1225 207 1250 200 1242 z m 90 951 l 90 21 b 111 0 90 7 97 0 l 214 0 b 233 21 228 0 233 7 l 233 951 b 214 972 233 965 228 972 l 111 972 b 90 951 97 972 90 965 z "},"Ǐ":{"ha":324,"x_min":0,"x_max":0,"o":"m 108 1042 l 213 1042 b 251 1060 228 1042 240 1047 l 396 1225 b 385 1250 406 1238 399 1250 l 292 1250 b 250 1225 274 1250 265 1243 l 168 1132 l 154 1132 l 72 1225 b 32 1250 58 1243 50 1250 l -62 1250 b -72 1225 -76 1250 -83 1238 l 72 1060 b 108 1042 83 1046 93 1042 z m 90 951 l 90 21 b 111 0 90 7 97 0 l 214 0 b 233 21 228 0 233 7 l 233 951 b 214 972 233 965 228 972 l 111 972 b 90 951 97 972 90 965 z "},"Î":{"ha":324,"x_min":0,"x_max":0,"o":"m 108 1250 b 72 1231 93 1250 83 1244 l -72 1067 b -62 1042 -83 1054 -76 1042 l 32 1042 b 72 1065 50 1042 58 1049 l 154 1160 l 168 1160 l 250 1065 b 292 1042 265 1049 274 1042 l 385 1042 b 396 1067 399 1042 406 1054 l 251 1231 b 213 1250 240 1244 228 1250 z m 90 951 l 90 21 b 111 0 90 7 97 0 l 214 0 b 233 21 228 0 233 7 l 233 951 b 214 972 233 965 228 972 l 111 972 b 90 951 97 972 90 965 z "},"Ï":{"ha":324,"x_min":0,"x_max":0,"o":"m -75 1106 l 31 1106 b 50 1125 44 1106 50 1111 l 50 1231 b 31 1250 50 1244 44 1250 l -75 1250 b -94 1231 -89 1250 -94 1244 l -94 1125 b -75 1106 -94 1111 -89 1106 z m 265 1106 l 371 1106 b 390 1125 385 1106 390 1111 l 390 1231 b 371 1250 390 1244 385 1250 l 265 1250 b 246 1231 251 1250 246 1244 l 246 1125 b 265 1106 246 1111 251 1106 z m 90 951 l 90 21 b 111 0 90 7 97 0 l 214 0 b 233 21 228 0 233 7 l 233 951 b 214 972 233 965 228 972 l 111 972 b 90 951 97 972 90 965 z "},"İ":{"ha":324,"x_min":0,"x_max":0,"o":"m 108 1106 l 214 1106 b 233 1125 228 1106 233 1111 l 233 1231 b 214 1250 233 1244 228 1250 l 108 1250 b 89 1231 94 1250 89 1244 l 89 1125 b 108 1106 89 1111 94 1106 z m 90 951 l 90 21 b 111 0 90 7 97 0 l 214 0 b 233 21 228 0 233 7 l 233 951 b 214 972 233 965 228 972 l 111 972 b 90 951 97 972 90 965 z "},"Ì":{"ha":324,"x_min":0,"x_max":0,"o":"m 135 1225 b 106 1250 126 1242 119 1250 l -25 1250 b -39 1225 -40 1250 -51 1240 l 85 1064 b 118 1040 96 1050 104 1040 l 201 1040 b 215 1065 217 1040 224 1049 z m 90 951 l 90 21 b 111 0 90 7 97 0 l 214 0 b 233 21 228 0 233 7 l 233 951 b 214 972 233 965 228 972 l 111 972 b 90 951 97 972 90 965 z "},"Ī":{"ha":324,"x_min":0,"x_max":0,"o":"m -62 1124 l 388 1124 b 408 1144 400 1124 408 1131 l 408 1229 b 388 1250 408 1243 400 1250 l -62 1250 b -83 1229 -76 1250 -83 1243 l -83 1144 b -62 1124 -83 1131 -76 1124 z m 90 951 l 90 21 b 111 0 90 7 97 0 l 214 0 b 233 21 228 0 233 7 l 233 951 b 214 972 233 965 228 972 l 111 972 b 90 951 97 972 90 965 z "},"Į":{"ha":326,"x_min":0,"x_max":0,"o":"m 215 972 l 113 972 b 93 951 99 972 93 965 l 93 -14 b 50 -51 93 -43 83 -47 l -6 -57 b -111 -167 -85 -65 -111 -79 b 25 -285 -111 -262 -81 -285 l 201 -285 b 215 -271 211 -285 215 -279 l 215 -207 b 201 -192 215 -197 210 -192 l 49 -192 b 14 -165 21 -192 14 -185 b 38 -139 14 -144 19 -142 l 150 -126 b 236 -44 210 -119 236 -108 l 236 951 b 215 972 236 965 229 972 z "},"J":{"ha":1350,"x_min":0,"x_max":0,"o":"m 97 0 l 1007 0 b 1260 250 1179 0 1260 88 l 1260 951 b 1239 972 1260 965 1253 972 l 1136 972 b 1117 951 1122 972 1117 965 l 1117 264 b 981 128 1117 167 1075 128 l 97 128 b 76 108 83 128 76 122 l 76 21 b 97 0 76 7 83 0 z "},"K":{"ha":1364,"x_min":0,"x_max":0,"o":"m 1307 32 l 647 558 l 1272 940 b 1265 972 1290 951 1282 972 l 1119 972 b 1067 953 1099 972 1082 963 l 233 449 l 233 951 b 214 972 233 965 228 972 l 111 972 b 90 951 97 972 90 965 l 90 21 b 111 0 90 7 97 0 l 214 0 b 233 21 228 0 233 7 l 233 304 l 533 488 l 1118 21 b 1164 0 1135 8 1146 0 l 1297 0 b 1307 32 1317 0 1321 21 z "},"Ķ":{"ha":1364,"x_min":0,"x_max":0,"o":"m 1307 32 l 647 558 l 1272 940 b 1265 972 1290 951 1282 972 l 1119 972 b 1067 953 1099 972 1082 963 l 233 449 l 233 951 b 214 972 233 965 228 972 l 111 972 b 90 951 97 972 90 965 l 90 21 b 111 0 90 7 97 0 l 214 0 b 233 21 228 0 233 7 l 233 304 l 533 488 l 1118 21 b 1164 0 1135 8 1146 0 l 1297 0 b 1307 32 1317 0 1321 21 z m 719 -83 l 638 -83 b 618 -103 624 -83 618 -89 l 618 -326 l 564 -326 b 544 -346 550 -326 544 -332 l 544 -422 b 564 -443 544 -436 550 -443 l 696 -443 b 740 -399 725 -443 740 -428 l 740 -103 b 719 -83 740 -89 733 -83 z "},"L":{"ha":1283,"x_min":0,"x_max":0,"o":"m 1193 128 l 233 128 l 233 951 b 214 972 233 965 228 972 l 111 972 b 90 951 97 972 90 965 l 90 21 b 111 0 90 7 97 0 l 1193 0 b 1214 21 1207 0 1214 7 l 1214 108 b 1193 128 1214 122 1207 128 z "},"Ĺ":{"ha":1283,"x_min":0,"x_max":0,"o":"m 117 1040 l 200 1040 b 235 1065 214 1040 224 1051 l 358 1225 b 351 1250 371 1240 367 1250 l 215 1250 b 186 1225 201 1250 194 1242 l 104 1065 b 117 1040 96 1049 101 1040 z m 1193 128 l 233 128 l 233 951 b 214 972 233 965 228 972 l 111 972 b 90 951 97 972 90 965 l 90 21 b 111 0 90 7 97 0 l 1193 0 b 1214 21 1207 0 1214 7 l 1214 108 b 1193 128 1214 122 1207 128 z "},"Ľ":{"ha":1283,"x_min":0,"x_max":0,"o":"m 1193 128 l 233 128 l 233 951 b 214 972 233 965 228 972 l 111 972 b 90 951 97 972 90 965 l 90 21 b 111 0 90 7 97 0 l 1193 0 b 1214 21 1207 0 1214 7 l 1214 108 b 1193 128 1214 122 1207 128 z m 365 613 l 496 613 b 540 657 525 613 540 628 l 540 953 b 519 972 540 967 533 972 l 438 972 b 418 953 424 972 418 967 l 418 729 l 365 729 b 344 710 351 729 344 724 l 344 633 b 365 613 344 619 351 613 z "},"Ļ":{"ha":1283,"x_min":0,"x_max":0,"o":"m 1193 128 l 233 128 l 233 951 b 214 972 233 965 228 972 l 111 972 b 90 951 97 972 90 965 l 90 21 b 111 0 90 7 97 0 l 1193 0 b 1214 21 1207 0 1214 7 l 1214 108 b 1193 128 1214 122 1207 128 z m 682 -83 l 600 -83 b 581 -103 586 -83 581 -89 l 581 -326 l 526 -326 b 507 -346 513 -326 507 -332 l 507 -422 b 526 -443 507 -436 513 -443 l 658 -443 b 703 -399 688 -443 703 -428 l 703 -103 b 682 -83 703 -89 696 -83 z "},"Ŀ":{"ha":1283,"x_min":0,"x_max":0,"o":"m 1193 128 l 233 128 l 233 951 b 214 972 233 965 228 972 l 111 972 b 90 951 97 972 90 965 l 90 21 b 111 0 90 7 97 0 l 1193 0 b 1214 21 1207 0 1214 7 l 1214 108 b 1193 128 1214 122 1207 128 z m 506 404 l 610 404 b 631 424 624 404 631 410 l 631 528 b 610 549 631 542 624 549 l 506 549 b 485 528 492 549 485 542 l 485 424 b 506 404 485 410 492 404 z "},"Ł":{"ha":1351,"x_min":0,"x_max":0,"o":"m 1261 128 l 301 128 l 301 407 l 494 629 b 482 653 507 643 499 653 l 368 653 b 336 629 357 653 351 647 l 301 589 l 301 951 b 282 972 301 965 296 972 l 179 972 b 158 951 165 972 158 965 l 158 426 l -14 229 b 0 206 -26 215 -17 206 l 114 206 b 147 229 126 206 131 210 l 158 242 l 158 21 b 179 0 158 7 165 0 l 1261 0 b 1282 21 1275 0 1282 7 l 1282 108 b 1261 128 1282 122 1275 128 z "},"M":{"ha":1603,"x_min":0,"x_max":0,"o":"m 111 0 l 214 0 b 233 21 228 0 233 7 l 233 790 l 247 790 l 722 21 b 751 0 731 7 739 0 l 850 0 b 879 21 864 0 871 7 l 1356 790 l 1368 790 l 1368 21 b 1389 0 1368 7 1375 0 l 1492 0 b 1513 21 1506 0 1513 7 l 1513 951 b 1492 972 1513 965 1506 972 l 1326 972 b 1297 951 1313 972 1306 965 l 808 160 l 793 160 l 304 951 b 276 972 296 965 290 972 l 111 972 b 90 951 97 972 90 965 l 90 21 b 111 0 90 7 97 0 z "},"Ḿ":{"ha":1603,"x_min":0,"x_max":0,"o":"m 833 1225 l 751 1065 b 764 1040 743 1049 749 1040 l 847 1040 b 882 1065 861 1040 871 1051 l 1006 1225 b 999 1250 1018 1240 1014 1250 l 863 1250 b 833 1225 849 1250 842 1242 z m 111 0 l 214 0 b 233 21 228 0 233 7 l 233 790 l 247 790 l 722 21 b 751 0 731 7 739 0 l 850 0 b 879 21 864 0 871 7 l 1356 790 l 1368 790 l 1368 21 b 1389 0 1368 7 1375 0 l 1492 0 b 1513 21 1506 0 1513 7 l 1513 951 b 1492 972 1513 965 1506 972 l 1326 972 b 1297 951 1313 972 1306 965 l 808 160 l 793 160 l 304 951 b 276 972 296 965 290 972 l 111 972 b 90 951 97 972 90 965 l 90 21 b 111 0 90 7 97 0 z "},"N":{"ha":1376,"x_min":0,"x_max":0,"o":"m 111 0 l 214 0 b 233 21 228 0 233 7 l 233 810 l 247 810 l 1100 15 b 1128 0 1110 6 1115 0 l 1265 0 b 1286 21 1279 0 1286 7 l 1286 951 b 1265 972 1286 965 1279 972 l 1163 972 b 1143 951 1149 972 1143 965 l 1143 163 l 1129 163 l 276 957 b 249 972 267 967 261 972 l 111 972 b 90 951 97 972 90 965 l 90 21 b 111 0 90 7 97 0 z "},"Ń":{"ha":1376,"x_min":0,"x_max":0,"o":"m 718 1225 l 636 1065 b 649 1040 628 1049 633 1040 l 732 1040 b 767 1065 746 1040 756 1051 l 890 1225 b 883 1250 903 1240 899 1250 l 747 1250 b 718 1225 733 1250 726 1242 z m 111 0 l 214 0 b 233 21 228 0 233 7 l 233 810 l 247 810 l 1100 15 b 1128 0 1110 6 1115 0 l 1265 0 b 1286 21 1279 0 1286 7 l 1286 951 b 1265 972 1286 965 1279 972 l 1163 972 b 1143 951 1149 972 1143 965 l 1143 163 l 1129 163 l 276 957 b 249 972 267 967 261 972 l 111 972 b 90 951 97 972 90 965 l 90 21 b 111 0 90 7 97 0 z "},"Ň":{"ha":1376,"x_min":0,"x_max":0,"o":"m 636 1042 l 740 1042 b 779 1060 756 1042 768 1047 l 924 1225 b 913 1250 933 1238 926 1250 l 819 1250 b 778 1225 801 1250 793 1243 l 696 1132 l 682 1132 l 600 1225 b 560 1250 586 1243 578 1250 l 465 1250 b 456 1225 451 1250 444 1238 l 600 1060 b 636 1042 611 1046 621 1042 z m 111 0 l 214 0 b 233 21 228 0 233 7 l 233 810 l 247 810 l 1100 15 b 1128 0 1110 6 1115 0 l 1265 0 b 1286 21 1279 0 1286 7 l 1286 951 b 1265 972 1286 965 1279 972 l 1163 972 b 1143 951 1149 972 1143 965 l 1143 163 l 1129 163 l 276 957 b 249 972 267 967 261 972 l 111 972 b 90 951 97 972 90 965 l 90 21 b 111 0 90 7 97 0 z "},"Ņ":{"ha":1376,"x_min":0,"x_max":0,"o":"m 111 0 l 214 0 b 233 21 228 0 233 7 l 233 810 l 247 810 l 1100 15 b 1128 0 1110 6 1115 0 l 1265 0 b 1286 21 1279 0 1286 7 l 1286 951 b 1265 972 1286 965 1279 972 l 1163 972 b 1143 951 1149 972 1143 965 l 1143 163 l 1129 163 l 276 957 b 249 972 267 967 261 972 l 111 972 b 90 951 97 972 90 965 l 90 21 b 111 0 90 7 97 0 z m 731 -83 l 649 -83 b 629 -103 635 -83 629 -89 l 629 -326 l 575 -326 b 556 -346 561 -326 556 -332 l 556 -422 b 575 -443 556 -436 561 -443 l 707 -443 b 751 -399 736 -443 751 -428 l 751 -103 b 731 -83 751 -89 744 -83 z "},"Ŋ":{"ha":1376,"x_min":0,"x_max":0,"o":"m 1265 972 l 1163 972 b 1143 951 1149 972 1143 965 l 1143 163 l 1129 163 l 276 957 b 249 972 267 967 261 972 l 111 972 b 90 951 97 972 90 965 l 90 21 b 111 0 90 7 97 0 l 214 0 b 233 21 228 0 233 7 l 233 810 l 247 810 l 1100 15 b 1128 0 1110 6 1115 0 l 1143 0 l 1143 -15 b 1007 -150 1143 -111 1101 -150 l 111 -150 b 90 -169 97 -150 90 -156 l 90 -257 b 111 -278 90 -271 97 -278 l 1033 -278 b 1286 -28 1206 -278 1286 -190 l 1286 951 b 1265 972 1286 965 1279 972 z "},"Ñ":{"ha":1376,"x_min":0,"x_max":0,"o":"m 785 1076 b 914 1119 828 1076 868 1088 b 925 1147 925 1128 931 1135 l 896 1218 b 872 1225 892 1226 885 1232 b 789 1197 839 1204 819 1197 b 594 1257 714 1197 688 1257 b 464 1214 550 1257 510 1246 b 453 1186 453 1206 447 1199 l 482 1115 b 507 1110 486 1107 494 1101 b 589 1136 539 1129 558 1136 b 785 1076 664 1136 690 1076 z m 111 0 l 214 0 b 233 21 228 0 233 7 l 233 810 l 247 810 l 1100 15 b 1128 0 1110 6 1115 0 l 1265 0 b 1286 21 1279 0 1286 7 l 1286 951 b 1265 972 1286 965 1279 972 l 1163 972 b 1143 951 1149 972 1143 965 l 1143 163 l 1129 163 l 276 957 b 249 972 267 967 261 972 l 111 972 b 90 951 97 972 90 965 l 90 21 b 111 0 90 7 97 0 z "},"O":{"ha":1415,"x_min":0,"x_max":0,"o":"m 340 -6 l 1075 -6 b 1332 244 1247 -6 1332 82 l 1332 728 b 1075 978 1332 890 1247 978 l 340 978 b 83 728 168 978 83 890 l 83 244 b 340 -6 83 82 168 -6 z m 368 122 b 226 258 274 122 226 161 l 226 715 b 368 850 226 811 274 850 l 1047 850 b 1188 715 1142 850 1188 811 l 1188 258 b 1047 122 1188 161 1142 122 z "},"Ó":{"ha":1415,"x_min":0,"x_max":0,"o":"m 738 1225 l 656 1065 b 668 1040 647 1049 653 1040 l 751 1040 b 786 1065 765 1040 775 1051 l 910 1225 b 903 1250 922 1240 918 1250 l 767 1250 b 738 1225 753 1250 746 1242 z m 340 -6 l 1075 -6 b 1332 244 1247 -6 1332 82 l 1332 728 b 1075 978 1332 890 1247 978 l 340 978 b 83 728 168 978 83 890 l 83 244 b 340 -6 83 82 168 -6 z m 368 122 b 226 258 274 122 226 161 l 226 715 b 368 850 226 811 274 850 l 1047 850 b 1188 715 1142 850 1188 811 l 1188 258 b 1047 122 1188 161 1142 122 z "},"Ǒ":{"ha":1415,"x_min":0,"x_max":0,"o":"m 654 1042 l 758 1042 b 797 1060 774 1042 786 1047 l 942 1225 b 931 1250 951 1238 944 1250 l 838 1250 b 796 1225 819 1250 811 1243 l 714 1132 l 700 1132 l 618 1225 b 578 1250 604 1243 596 1250 l 483 1250 b 474 1225 469 1250 463 1238 l 618 1060 b 654 1042 629 1046 639 1042 z m 340 -6 l 1075 -6 b 1332 244 1247 -6 1332 82 l 1332 728 b 1075 978 1332 890 1247 978 l 340 978 b 83 728 168 978 83 890 l 83 244 b 340 -6 83 82 168 -6 z m 368 122 b 226 258 274 122 226 161 l 226 715 b 368 850 226 811 274 850 l 1047 850 b 1188 715 1142 850 1188 811 l 1188 258 b 1047 122 1188 161 1142 122 z "},"Ô":{"ha":1415,"x_min":0,"x_max":0,"o":"m 654 1250 b 618 1231 639 1250 629 1244 l 474 1067 b 483 1042 463 1054 469 1042 l 578 1042 b 618 1065 596 1042 604 1049 l 700 1160 l 714 1160 l 796 1065 b 838 1042 811 1049 819 1042 l 931 1042 b 942 1067 944 1042 951 1054 l 797 1231 b 758 1250 786 1244 774 1250 z m 340 -6 l 1075 -6 b 1332 244 1247 -6 1332 82 l 1332 728 b 1075 978 1332 890 1247 978 l 340 978 b 83 728 168 978 83 890 l 83 244 b 340 -6 83 82 168 -6 z m 368 122 b 226 258 274 122 226 161 l 226 715 b 368 850 226 811 274 850 l 1047 850 b 1188 715 1142 850 1188 811 l 1188 258 b 1047 122 1188 161 1142 122 z "},"Ö":{"ha":1415,"x_min":0,"x_max":0,"o":"m 471 1106 l 576 1106 b 596 1125 590 1106 596 1111 l 596 1231 b 576 1250 596 1244 590 1250 l 471 1250 b 451 1231 457 1250 451 1244 l 451 1125 b 471 1106 451 1111 457 1106 z m 811 1106 l 917 1106 b 936 1125 931 1106 936 1111 l 936 1231 b 917 1250 936 1244 931 1250 l 811 1250 b 792 1231 797 1250 792 1244 l 792 1125 b 811 1106 792 1111 797 1106 z m 340 -6 l 1075 -6 b 1332 244 1247 -6 1332 82 l 1332 728 b 1075 978 1332 890 1247 978 l 340 978 b 83 728 168 978 83 890 l 83 244 b 340 -6 83 82 168 -6 z m 368 122 b 226 258 274 122 226 161 l 226 715 b 368 850 226 811 274 850 l 1047 850 b 1188 715 1142 850 1188 811 l 1188 258 b 1047 122 1188 161 1142 122 z "},"Ò":{"ha":1415,"x_min":0,"x_max":0,"o":"m 681 1225 b 651 1250 672 1242 665 1250 l 521 1250 b 507 1225 506 1250 494 1240 l 631 1064 b 664 1040 642 1050 650 1040 l 747 1040 b 761 1065 763 1040 769 1049 z m 340 -6 l 1075 -6 b 1332 244 1247 -6 1332 82 l 1332 728 b 1075 978 1332 890 1247 978 l 340 978 b 83 728 168 978 83 890 l 83 244 b 340 -6 83 82 168 -6 z m 368 122 b 226 258 274 122 226 161 l 226 715 b 368 850 226 811 274 850 l 1047 850 b 1188 715 1142 850 1188 811 l 1188 258 b 1047 122 1188 161 1142 122 z "},"Ő":{"ha":1415,"x_min":0,"x_max":0,"o":"m 615 1225 l 533 1065 b 546 1040 525 1049 531 1040 l 629 1040 b 664 1065 643 1040 653 1051 l 788 1225 b 781 1250 800 1240 796 1250 l 644 1250 b 615 1225 631 1250 624 1242 z m 850 1225 l 769 1065 b 781 1040 761 1049 767 1040 l 865 1040 b 899 1065 879 1040 889 1051 l 1024 1225 b 1017 1250 1036 1240 1031 1250 l 881 1250 b 850 1225 867 1250 860 1242 z m 340 -6 l 1075 -6 b 1332 244 1247 -6 1332 82 l 1332 728 b 1075 978 1332 890 1247 978 l 340 978 b 83 728 168 978 83 890 l 83 244 b 340 -6 83 82 168 -6 z m 368 122 b 226 258 274 122 226 161 l 226 715 b 368 850 226 811 274 850 l 1047 850 b 1188 715 1142 850 1188 811 l 1188 258 b 1047 122 1188 161 1142 122 z "},"Ō":{"ha":1415,"x_min":0,"x_max":0,"o":"m 482 1124 l 932 1124 b 953 1144 944 1124 953 1131 l 953 1229 b 932 1250 953 1243 944 1250 l 482 1250 b 461 1229 468 1250 461 1243 l 461 1144 b 482 1124 461 1131 468 1124 z m 340 -6 l 1075 -6 b 1332 244 1247 -6 1332 82 l 1332 728 b 1075 978 1332 890 1247 978 l 340 978 b 83 728 168 978 83 890 l 83 244 b 340 -6 83 82 168 -6 z m 368 122 b 226 258 274 122 226 161 l 226 715 b 368 850 226 811 274 850 l 1047 850 b 1188 715 1142 850 1188 811 l 1188 258 b 1047 122 1188 161 1142 122 z "},"Ø":{"ha":1415,"x_min":0,"x_max":0,"o":"m 1075 978 l 988 978 l 996 997 b 982 1019 1001 1011 996 1019 l 881 1019 b 854 999 867 1019 860 1013 l 846 978 l 340 978 b 83 728 168 978 83 890 l 83 244 b 340 -6 83 82 168 -6 l 428 -6 l 419 -26 b 433 -47 414 -40 419 -47 l 533 -47 b 561 -26 547 -47 556 -40 l 569 -6 l 1075 -6 b 1332 244 1247 -6 1332 82 l 1332 728 b 1075 978 1332 890 1247 978 z m 368 122 b 226 258 274 122 226 161 l 226 715 b 368 850 226 811 274 850 l 792 850 l 482 122 z m 1188 258 b 1047 122 1188 161 1142 122 l 624 122 l 933 850 l 1047 850 b 1188 715 1142 850 1188 811 z "},"Õ":{"ha":1415,"x_min":0,"x_max":0,"o":"m 803 1076 b 932 1119 846 1076 886 1088 b 943 1147 943 1128 949 1135 l 914 1218 b 890 1225 910 1226 903 1232 b 807 1197 857 1204 838 1197 b 613 1257 732 1197 706 1257 b 482 1214 568 1257 528 1246 b 471 1186 471 1206 465 1199 l 500 1115 b 525 1110 504 1107 513 1101 b 607 1136 557 1129 576 1136 b 803 1076 682 1136 708 1076 z m 340 -6 l 1075 -6 b 1332 244 1247 -6 1332 82 l 1332 728 b 1075 978 1332 890 1247 978 l 340 978 b 83 728 168 978 83 890 l 83 244 b 340 -6 83 82 168 -6 z m 368 122 b 226 258 274 122 226 161 l 226 715 b 368 850 226 811 274 850 l 1047 850 b 1188 715 1142 850 1188 811 l 1188 258 b 1047 122 1188 161 1142 122 z "},"Œ":{"ha":2392,"x_min":0,"x_max":0,"o":"m 2294 128 l 1331 128 l 1331 210 b 1332 244 1332 221 1332 232 l 1332 422 l 2274 422 b 2294 443 2288 422 2294 429 l 2294 529 b 2274 550 2294 543 2288 550 l 1332 550 l 1332 728 b 1331 763 1332 740 1332 751 l 1331 844 l 2288 844 b 2308 865 2301 844 2308 851 l 2308 951 b 2288 972 2308 965 2301 972 l 1208 972 b 1189 961 1199 972 1192 968 b 1075 978 1157 972 1118 978 l 340 978 b 83 728 168 978 83 890 l 83 244 b 340 -6 83 82 168 -6 l 1075 -6 b 1189 11 1118 -6 1157 0 b 1208 0 1192 4 1199 0 l 2294 0 b 2315 21 2308 0 2315 7 l 2315 107 b 2294 128 2315 121 2308 128 z m 1047 122 l 368 122 b 226 258 274 122 226 161 l 226 715 b 368 850 226 811 274 850 l 1047 850 b 1188 715 1142 850 1188 811 l 1188 258 b 1047 122 1188 161 1142 122 z "},"P":{"ha":1332,"x_min":0,"x_max":0,"o":"m 997 972 l 111 972 b 90 951 97 972 90 965 l 90 21 b 111 0 90 7 97 0 l 214 0 b 233 21 228 0 233 7 l 233 218 l 997 218 b 1249 468 1169 218 1249 306 l 1249 722 b 997 972 1249 885 1169 972 z m 1106 482 b 968 347 1106 385 1064 347 l 233 347 l 233 844 l 968 844 b 1106 710 1064 844 1106 806 z "},"Þ":{"ha":1318,"x_min":0,"x_max":0,"o":"m 983 783 l 233 783 l 233 951 b 214 972 233 965 228 972 l 111 972 b 90 951 97 972 90 965 l 90 21 b 111 0 90 7 97 0 l 214 0 b 233 21 228 0 233 7 l 233 189 l 983 189 b 1235 439 1156 189 1235 276 l 1235 533 b 983 783 1235 696 1156 783 z m 1092 451 b 954 317 1092 356 1050 317 l 233 317 l 233 656 l 954 656 b 1092 521 1050 656 1092 617 z "},"Q":{"ha":1415,"x_min":0,"x_max":0,"o":"m 1075 978 l 340 978 b 83 728 168 978 83 890 l 83 244 b 340 -6 83 82 168 -6 l 636 -6 l 636 -124 b 656 -144 636 -137 642 -144 l 758 -144 b 779 -124 772 -144 779 -137 l 779 -6 l 1075 -6 b 1332 244 1247 -6 1332 82 l 1332 728 b 1075 978 1332 890 1247 978 z m 1188 258 b 1047 122 1188 161 1142 122 l 368 122 b 226 258 274 122 226 161 l 226 715 b 368 850 226 811 274 850 l 1047 850 b 1188 715 1142 850 1188 811 z "},"R":{"ha":1344,"x_min":0,"x_max":0,"o":"m 1257 31 l 1090 281 b 1249 519 1199 308 1249 390 l 1249 722 b 997 972 1249 885 1169 972 l 111 972 b 90 951 97 972 90 965 l 90 21 b 111 0 90 7 97 0 l 214 0 b 233 21 228 0 233 7 l 233 269 l 942 269 l 1108 19 b 1139 0 1118 6 1125 0 l 1236 0 b 1257 31 1256 0 1268 13 z m 233 844 l 969 844 b 1106 710 1064 844 1106 806 l 1106 533 b 969 399 1106 436 1064 399 l 233 399 z "},"Ŕ":{"ha":1344,"x_min":0,"x_max":0,"o":"m 624 1040 l 707 1040 b 742 1065 721 1040 731 1051 l 865 1225 b 858 1250 878 1240 874 1250 l 722 1250 b 693 1225 708 1250 701 1242 l 611 1065 b 624 1040 603 1049 608 1040 z m 1257 31 l 1090 281 b 1249 519 1199 308 1249 390 l 1249 722 b 997 972 1249 885 1169 972 l 111 972 b 90 951 97 972 90 965 l 90 21 b 111 0 90 7 97 0 l 214 0 b 233 21 228 0 233 7 l 233 269 l 942 269 l 1108 19 b 1139 0 1118 6 1125 0 l 1236 0 b 1257 31 1256 0 1268 13 z m 233 844 l 969 844 b 1106 710 1064 844 1106 806 l 1106 533 b 969 399 1106 436 1064 399 l 233 399 z "},"Ř":{"ha":1344,"x_min":0,"x_max":0,"o":"m 575 1060 b 611 1042 586 1046 596 1042 l 715 1042 b 754 1060 731 1042 743 1047 l 899 1225 b 888 1250 908 1238 901 1250 l 794 1250 b 753 1225 776 1250 768 1243 l 671 1132 l 657 1132 l 575 1225 b 535 1250 561 1243 553 1250 l 440 1250 b 431 1225 426 1250 419 1238 z m 1257 31 l 1090 281 b 1249 519 1199 308 1249 390 l 1249 722 b 997 972 1249 885 1169 972 l 111 972 b 90 951 97 972 90 965 l 90 21 b 111 0 90 7 97 0 l 214 0 b 233 21 228 0 233 7 l 233 269 l 942 269 l 1108 19 b 1139 0 1118 6 1125 0 l 1236 0 b 1257 31 1256 0 1268 13 z m 233 844 l 969 844 b 1106 710 1064 844 1106 806 l 1106 533 b 969 399 1106 436 1064 399 l 233 399 z "},"Ŗ":{"ha":1344,"x_min":0,"x_max":0,"o":"m 1257 31 l 1090 281 b 1249 519 1199 308 1249 390 l 1249 722 b 997 972 1249 885 1169 972 l 111 972 b 90 951 97 972 90 965 l 90 21 b 111 0 90 7 97 0 l 214 0 b 233 21 228 0 233 7 l 233 269 l 942 269 l 1108 19 b 1139 0 1118 6 1125 0 l 1236 0 b 1257 31 1256 0 1268 13 z m 233 844 l 969 844 b 1106 710 1064 844 1106 806 l 1106 533 b 969 399 1106 436 1064 399 l 233 399 z m 704 -83 l 622 -83 b 603 -103 608 -83 603 -89 l 603 -326 l 549 -326 b 529 -346 535 -326 529 -332 l 529 -422 b 549 -443 529 -436 535 -443 l 681 -443 b 725 -399 710 -443 725 -428 l 725 -103 b 704 -83 725 -89 718 -83 z "},"S":{"ha":1381,"x_min":0,"x_max":0,"o":"m 1015 526 l 379 565 b 225 713 272 571 225 618 b 376 850 225 810 275 850 l 994 850 b 1136 744 1088 850 1126 815 b 1164 719 1138 728 1146 719 l 1251 719 b 1278 744 1268 719 1278 728 b 1015 978 1278 892 1200 978 l 365 978 b 83 715 179 978 83 899 b 365 446 83 542 181 457 l 1001 407 b 1156 260 1108 401 1156 354 b 1004 122 1156 163 1106 122 l 365 122 b 225 228 274 122 235 157 b 197 253 222 244 214 253 l 110 253 b 83 228 92 253 83 244 b 346 -6 83 81 160 -6 l 1015 -6 b 1297 257 1201 -6 1297 74 b 1015 526 1297 431 1200 515 z "},"Ś":{"ha":1381,"x_min":0,"x_max":0,"o":"m 693 1225 l 611 1065 b 624 1040 603 1049 608 1040 l 707 1040 b 742 1065 721 1040 731 1051 l 865 1225 b 858 1250 878 1240 874 1250 l 722 1250 b 693 1225 708 1250 701 1242 z m 1015 526 l 379 565 b 225 713 272 571 225 618 b 376 850 225 810 275 850 l 994 850 b 1136 744 1088 850 1126 815 b 1164 719 1138 728 1146 719 l 1251 719 b 1278 744 1268 719 1278 728 b 1015 978 1278 892 1200 978 l 365 978 b 83 715 179 978 83 899 b 365 446 83 542 181 457 l 1001 407 b 1156 260 1108 401 1156 354 b 1004 122 1156 163 1106 122 l 365 122 b 225 228 274 122 235 157 b 197 253 222 244 214 253 l 110 253 b 83 228 92 253 83 244 b 346 -6 83 81 160 -6 l 1015 -6 b 1297 257 1201 -6 1297 74 b 1015 526 1297 431 1200 515 z "},"Š":{"ha":1381,"x_min":0,"x_max":0,"o":"m 610 1042 l 714 1042 b 753 1060 729 1042 742 1047 l 897 1225 b 886 1250 907 1238 900 1250 l 793 1250 b 751 1225 775 1250 767 1243 l 669 1132 l 656 1132 l 574 1225 b 533 1250 560 1243 551 1250 l 439 1250 b 429 1225 425 1250 418 1238 l 574 1060 b 610 1042 585 1046 594 1042 z m 1015 526 l 379 565 b 225 713 272 571 225 618 b 376 850 225 810 275 850 l 994 850 b 1136 744 1088 850 1126 815 b 1164 719 1138 728 1146 719 l 1251 719 b 1278 744 1268 719 1278 728 b 1015 978 1278 892 1200 978 l 365 978 b 83 715 179 978 83 899 b 365 446 83 542 181 457 l 1001 407 b 1156 260 1108 401 1156 354 b 1004 122 1156 163 1106 122 l 365 122 b 225 228 274 122 235 157 b 197 253 222 244 214 253 l 110 253 b 83 228 92 253 83 244 b 346 -6 83 81 160 -6 l 1015 -6 b 1297 257 1201 -6 1297 74 b 1015 526 1297 431 1200 515 z "},"Ş":{"ha":1381,"x_min":0,"x_max":0,"o":"m 1015 526 l 379 565 b 225 713 272 571 225 618 b 376 850 225 810 275 850 l 994 850 b 1136 744 1088 850 1126 815 b 1164 719 1138 728 1146 719 l 1251 719 b 1278 744 1268 719 1278 728 b 1015 978 1278 892 1200 978 l 365 978 b 83 715 179 978 83 899 b 365 446 83 542 181 457 l 1001 407 b 1156 260 1108 401 1156 354 b 1004 122 1156 163 1106 122 l 365 122 b 225 228 274 122 235 157 b 197 253 222 244 214 253 l 110 253 b 83 228 92 253 83 244 b 346 -6 83 81 160 -6 l 617 -6 b 564 -82 579 -42 564 -58 b 618 -131 564 -114 589 -128 b 760 -169 731 -142 760 -143 b 708 -199 760 -194 743 -199 l 681 -199 b 631 -168 647 -199 633 -187 b 615 -154 629 -160 624 -154 l 536 -154 b 522 -171 525 -154 522 -161 b 643 -283 522 -240 553 -283 l 738 -283 b 868 -168 828 -283 868 -243 b 736 -57 868 -82 826 -67 b 738 -6 703 -53 678 -47 l 1015 -6 b 1297 257 1201 -6 1297 74 b 1015 526 1297 431 1200 515 z "},"Ș":{"ha":1381,"x_min":0,"x_max":0,"o":"m 1015 526 l 379 565 b 225 713 272 571 225 618 b 376 850 225 810 275 850 l 994 850 b 1136 744 1088 850 1126 815 b 1164 719 1138 728 1146 719 l 1251 719 b 1278 744 1268 719 1278 728 b 1015 978 1278 892 1200 978 l 365 978 b 83 715 179 978 83 899 b 365 446 83 542 181 457 l 1001 407 b 1156 260 1108 401 1156 354 b 1004 122 1156 163 1106 122 l 365 122 b 225 228 274 122 235 157 b 197 253 222 244 214 253 l 110 253 b 83 228 92 253 83 244 b 346 -6 83 81 160 -6 l 1015 -6 b 1297 257 1201 -6 1297 74 b 1015 526 1297 431 1200 515 z m 704 -83 l 622 -83 b 603 -103 608 -83 603 -89 l 603 -326 l 549 -326 b 529 -346 535 -326 529 -332 l 529 -422 b 549 -443 529 -436 535 -443 l 681 -443 b 725 -399 710 -443 725 -428 l 725 -103 b 704 -83 725 -89 718 -83 z "},"T":{"ha":1343,"x_min":0,"x_max":0,"o":"m 1260 972 l 83 972 b 63 951 69 972 63 965 l 63 864 b 83 844 63 850 69 844 l 601 844 l 601 21 b 621 0 601 7 607 0 l 722 0 b 743 21 736 0 743 7 l 743 844 l 1260 844 b 1281 864 1274 844 1281 850 l 1281 951 b 1260 972 1281 965 1274 972 z "},"Ŧ":{"ha":1306,"x_min":0,"x_max":0,"o":"m 1260 972 l 83 972 b 63 951 69 972 63 965 l 63 864 b 83 844 63 850 69 844 l 601 844 l 601 647 l 447 647 b 426 626 433 647 426 640 l 426 542 b 447 521 426 528 433 521 l 601 521 l 601 21 b 621 0 601 7 607 0 l 722 0 b 743 21 736 0 743 7 l 743 521 l 897 521 b 918 542 910 521 918 528 l 918 626 b 897 647 918 640 910 647 l 743 647 l 743 844 l 1260 844 b 1281 864 1274 844 1281 850 l 1281 951 b 1260 972 1281 965 1274 972 z "},"Ť":{"ha":1343,"x_min":0,"x_max":0,"o":"m 583 1060 b 619 1042 594 1046 604 1042 l 724 1042 b 763 1060 739 1042 751 1047 l 907 1225 b 896 1250 917 1238 910 1250 l 803 1250 b 761 1225 785 1250 776 1243 l 679 1132 l 665 1132 l 583 1225 b 543 1250 569 1243 561 1250 l 449 1250 b 439 1225 435 1250 428 1238 z m 1260 972 l 83 972 b 63 951 69 972 63 965 l 63 864 b 83 844 63 850 69 844 l 601 844 l 601 21 b 621 0 601 7 607 0 l 722 0 b 743 21 736 0 743 7 l 743 844 l 1260 844 b 1281 864 1274 844 1281 850 l 1281 951 b 1260 972 1281 965 1274 972 z "},"Ţ":{"ha":1343,"x_min":0,"x_max":0,"o":"m 1260 972 l 83 972 b 63 951 69 972 63 965 l 63 864 b 83 844 63 850 69 844 l 601 844 l 601 21 b 621 0 601 7 607 0 l 632 0 b 574 -82 590 -40 574 -57 b 628 -131 574 -114 599 -128 b 769 -169 740 -142 769 -143 b 718 -199 769 -194 753 -199 l 690 -199 b 640 -168 657 -199 643 -187 b 625 -154 639 -160 633 -154 l 546 -154 b 532 -171 535 -154 532 -161 b 653 -283 532 -240 563 -283 l 747 -283 b 878 -168 838 -283 878 -243 b 746 -57 878 -82 836 -67 b 756 0 711 -53 686 -47 l 722 0 b 743 21 736 0 743 7 l 743 844 l 1260 844 b 1281 864 1274 844 1281 850 l 1281 951 b 1260 972 1281 965 1274 972 z "},"Ț":{"ha":1343,"x_min":0,"x_max":0,"o":"m 1260 972 l 83 972 b 63 951 69 972 63 965 l 63 864 b 83 844 63 850 69 844 l 601 844 l 601 21 b 621 0 601 7 607 0 l 722 0 b 743 21 736 0 743 7 l 743 844 l 1260 844 b 1281 864 1274 844 1281 850 l 1281 951 b 1260 972 1281 965 1274 972 z m 714 -83 l 632 -83 b 613 -103 618 -83 613 -89 l 613 -326 l 558 -326 b 539 -346 544 -326 539 -332 l 539 -422 b 558 -443 539 -436 544 -443 l 690 -443 b 735 -399 719 -443 735 -428 l 735 -103 b 714 -83 735 -89 728 -83 z "},"U":{"ha":1429,"x_min":0,"x_max":0,"o":"m 342 0 l 1086 0 b 1339 250 1258 0 1339 88 l 1339 951 b 1318 972 1339 965 1332 972 l 1215 972 b 1194 951 1201 972 1194 965 l 1194 264 b 1058 128 1194 167 1154 128 l 371 128 b 233 264 275 128 233 167 l 233 951 b 214 972 233 965 228 972 l 111 972 b 90 951 97 972 90 965 l 90 250 b 342 0 90 88 169 0 z "},"Ú":{"ha":1429,"x_min":0,"x_max":0,"o":"m 744 1225 l 663 1065 b 675 1040 654 1049 660 1040 l 758 1040 b 793 1065 772 1040 782 1051 l 917 1225 b 910 1250 929 1240 925 1250 l 774 1250 b 744 1225 760 1250 753 1242 z m 342 0 l 1086 0 b 1339 250 1258 0 1339 88 l 1339 951 b 1318 972 1339 965 1332 972 l 1215 972 b 1194 951 1201 972 1194 965 l 1194 264 b 1058 128 1194 167 1154 128 l 371 128 b 233 264 275 128 233 167 l 233 951 b 214 972 233 965 228 972 l 111 972 b 90 951 97 972 90 965 l 90 250 b 342 0 90 88 169 0 z "},"Ŭ":{"ha":1429,"x_min":0,"x_max":0,"o":"m 676 1043 l 750 1043 b 932 1231 874 1043 932 1104 b 911 1250 932 1244 925 1250 l 838 1250 b 817 1231 824 1250 818 1244 b 733 1140 814 1181 793 1140 l 693 1140 b 610 1231 633 1140 614 1181 b 590 1250 610 1244 604 1250 l 515 1250 b 496 1231 501 1250 496 1244 b 676 1043 496 1104 554 1043 z m 342 0 l 1086 0 b 1339 250 1258 0 1339 88 l 1339 951 b 1318 972 1339 965 1332 972 l 1215 972 b 1194 951 1201 972 1194 965 l 1194 264 b 1058 128 1194 167 1154 128 l 371 128 b 233 264 275 128 233 167 l 233 951 b 214 972 233 965 228 972 l 111 972 b 90 951 97 972 90 965 l 90 250 b 342 0 90 88 169 0 z "},"Û":{"ha":1429,"x_min":0,"x_max":0,"o":"m 661 1250 b 625 1231 646 1250 636 1244 l 481 1067 b 490 1042 469 1054 476 1042 l 585 1042 b 625 1065 603 1042 611 1049 l 707 1160 l 721 1160 l 803 1065 b 844 1042 818 1049 826 1042 l 938 1042 b 949 1067 951 1042 958 1054 l 804 1231 b 765 1250 793 1244 781 1250 z m 342 0 l 1086 0 b 1339 250 1258 0 1339 88 l 1339 951 b 1318 972 1339 965 1332 972 l 1215 972 b 1194 951 1201 972 1194 965 l 1194 264 b 1058 128 1194 167 1154 128 l 371 128 b 233 264 275 128 233 167 l 233 951 b 214 972 233 965 228 972 l 111 972 b 90 951 97 972 90 965 l 90 250 b 342 0 90 88 169 0 z "},"Ü":{"ha":1429,"x_min":0,"x_max":0,"o":"m 478 1106 l 583 1106 b 603 1125 597 1106 603 1111 l 603 1231 b 583 1250 603 1244 597 1250 l 478 1250 b 458 1231 464 1250 458 1244 l 458 1125 b 478 1106 458 1111 464 1106 z m 818 1106 l 924 1106 b 943 1125 938 1106 943 1111 l 943 1231 b 924 1250 943 1244 938 1250 l 818 1250 b 799 1231 804 1250 799 1244 l 799 1125 b 818 1106 799 1111 804 1106 z m 342 0 l 1086 0 b 1339 250 1258 0 1339 88 l 1339 951 b 1318 972 1339 965 1332 972 l 1215 972 b 1194 951 1201 972 1194 965 l 1194 264 b 1058 128 1194 167 1154 128 l 371 128 b 233 264 275 128 233 167 l 233 951 b 214 972 233 965 228 972 l 111 972 b 90 951 97 972 90 965 l 90 250 b 342 0 90 88 169 0 z "},"Ù":{"ha":1429,"x_min":0,"x_max":0,"o":"m 688 1225 b 658 1250 679 1242 672 1250 l 528 1250 b 514 1225 513 1250 501 1240 l 638 1064 b 671 1040 649 1050 657 1040 l 754 1040 b 768 1065 769 1040 776 1049 z m 342 0 l 1086 0 b 1339 250 1258 0 1339 88 l 1339 951 b 1318 972 1339 965 1332 972 l 1215 972 b 1194 951 1201 972 1194 965 l 1194 264 b 1058 128 1194 167 1154 128 l 371 128 b 233 264 275 128 233 167 l 233 951 b 214 972 233 965 228 972 l 111 972 b 90 951 97 972 90 965 l 90 250 b 342 0 90 88 169 0 z "},"Ű":{"ha":1429,"x_min":0,"x_max":0,"o":"m 622 1225 l 540 1065 b 553 1040 532 1049 538 1040 l 636 1040 b 671 1065 650 1040 660 1051 l 794 1225 b 788 1250 807 1240 803 1250 l 651 1250 b 622 1225 638 1250 631 1242 z m 857 1225 l 776 1065 b 788 1040 768 1049 774 1040 l 872 1040 b 906 1065 886 1040 896 1051 l 1031 1225 b 1024 1250 1043 1240 1038 1250 l 888 1250 b 857 1225 874 1250 867 1242 z m 342 0 l 1086 0 b 1339 250 1258 0 1339 88 l 1339 951 b 1318 972 1339 965 1332 972 l 1215 972 b 1194 951 1201 972 1194 965 l 1194 264 b 1058 128 1194 167 1154 128 l 371 128 b 233 264 275 128 233 167 l 233 951 b 214 972 233 965 228 972 l 111 972 b 90 951 97 972 90 965 l 90 250 b 342 0 90 88 169 0 z "},"Ū":{"ha":1429,"x_min":0,"x_max":0,"o":"m 489 1124 l 939 1124 b 960 1144 951 1124 960 1131 l 960 1229 b 939 1250 960 1243 951 1250 l 489 1250 b 468 1229 475 1250 468 1243 l 468 1144 b 489 1124 468 1131 475 1124 z m 342 0 l 1086 0 b 1339 250 1258 0 1339 88 l 1339 951 b 1318 972 1339 965 1332 972 l 1215 972 b 1194 951 1201 972 1194 965 l 1194 264 b 1058 128 1194 167 1154 128 l 371 128 b 233 264 275 128 233 167 l 233 951 b 214 972 233 965 228 972 l 111 972 b 90 951 97 972 90 965 l 90 250 b 342 0 90 88 169 0 z "},"Ų":{"ha":1429,"x_min":0,"x_max":0,"o":"m 1318 972 l 1215 972 b 1194 951 1201 972 1194 965 l 1194 264 b 1058 128 1194 167 1154 128 l 371 128 b 233 264 275 128 233 167 l 233 951 b 214 972 233 965 228 972 l 111 972 b 90 951 97 972 90 965 l 90 250 b 342 0 90 88 169 0 l 749 0 b 703 -32 746 -24 733 -28 l 647 -37 b 542 -147 568 -46 542 -60 b 678 -265 542 -243 571 -265 l 853 -265 b 867 -251 863 -265 867 -260 l 867 -187 b 853 -172 867 -178 861 -172 l 701 -172 b 667 -146 674 -172 667 -165 b 690 -119 667 -125 672 -122 l 801 -107 b 886 -25 861 -99 886 -89 l 886 0 l 1086 0 b 1339 250 1258 0 1339 88 l 1339 951 b 1318 972 1339 965 1332 972 z "},"Ů":{"ha":1429,"x_min":0,"x_max":0,"o":"m 722 1272 l 704 1272 b 588 1156 636 1272 588 1221 l 588 1140 b 704 1025 588 1075 636 1025 l 722 1025 b 839 1140 790 1025 839 1075 l 839 1156 b 722 1272 839 1221 790 1272 z m 760 1154 l 760 1144 b 719 1104 760 1121 744 1104 l 707 1104 b 668 1144 683 1104 668 1121 l 668 1154 b 707 1193 668 1178 683 1193 l 719 1193 b 760 1154 744 1193 760 1178 z m 342 0 l 1086 0 b 1339 250 1258 0 1339 88 l 1339 951 b 1318 972 1339 965 1332 972 l 1215 972 b 1194 951 1201 972 1194 965 l 1194 264 b 1058 128 1194 167 1154 128 l 371 128 b 233 264 275 128 233 167 l 233 951 b 214 972 233 965 228 972 l 111 972 b 90 951 97 972 90 965 l 90 250 b 342 0 90 88 169 0 z "},"Ũ":{"ha":1429,"x_min":0,"x_max":0,"o":"m 810 1076 b 939 1119 853 1076 893 1088 b 950 1147 950 1128 956 1135 l 921 1218 b 897 1225 917 1226 910 1232 b 814 1197 864 1204 844 1197 b 619 1257 739 1197 713 1257 b 489 1214 575 1257 535 1246 b 478 1186 478 1206 472 1199 l 507 1115 b 532 1110 511 1107 519 1101 b 614 1136 564 1129 583 1136 b 810 1076 689 1136 715 1076 z m 342 0 l 1086 0 b 1339 250 1258 0 1339 88 l 1339 951 b 1318 972 1339 965 1332 972 l 1215 972 b 1194 951 1201 972 1194 965 l 1194 264 b 1058 128 1194 167 1154 128 l 371 128 b 233 264 275 128 233 167 l 233 951 b 214 972 233 965 228 972 l 111 972 b 90 951 97 972 90 965 l 90 250 b 342 0 90 88 169 0 z "},"V":{"ha":1501,"x_min":0,"x_max":0,"o":"m 692 0 l 810 0 b 839 22 824 0 831 8 l 1442 947 b 1429 972 1453 964 1443 972 l 1307 972 b 1278 949 1293 972 1288 964 l 758 151 l 743 151 l 224 949 b 194 972 214 964 208 972 l 72 972 b 60 947 58 972 49 964 l 663 22 b 692 0 671 8 678 0 z "},"W":{"ha":2551,"x_min":0,"x_max":0,"o":"m 628 0 l 747 0 b 775 22 760 0 767 8 l 1276 832 l 1776 22 b 1804 0 1785 8 1792 0 l 1924 0 b 1953 22 1938 0 1944 8 l 2492 947 b 2479 972 2501 964 2493 972 l 2358 972 b 2329 949 2343 972 2338 964 l 1871 163 l 1854 163 l 1368 949 b 1338 972 1358 964 1353 972 l 1214 972 b 1183 949 1199 972 1193 964 l 697 163 l 681 163 l 222 949 b 193 972 214 964 208 972 l 72 972 b 60 947 58 972 50 964 l 599 22 b 628 0 607 8 614 0 z "},"Ẃ":{"ha":2551,"x_min":0,"x_max":0,"o":"m 1306 1225 l 1224 1065 b 1236 1040 1215 1049 1221 1040 l 1319 1040 b 1354 1065 1333 1040 1343 1051 l 1478 1225 b 1471 1250 1490 1240 1486 1250 l 1335 1250 b 1306 1225 1321 1250 1314 1242 z m 628 0 l 747 0 b 775 22 760 0 767 8 l 1276 832 l 1776 22 b 1804 0 1785 8 1792 0 l 1924 0 b 1953 22 1938 0 1944 8 l 2492 947 b 2479 972 2501 964 2493 972 l 2358 972 b 2329 949 2343 972 2338 964 l 1871 163 l 1854 163 l 1368 949 b 1338 972 1358 964 1353 972 l 1214 972 b 1183 949 1199 972 1193 964 l 697 163 l 681 163 l 222 949 b 193 972 214 964 208 972 l 72 972 b 60 947 58 972 50 964 l 599 22 b 628 0 607 8 614 0 z "},"Ŵ":{"ha":2551,"x_min":0,"x_max":0,"o":"m 1222 1250 b 1186 1231 1207 1250 1197 1244 l 1042 1067 b 1051 1042 1031 1054 1038 1042 l 1146 1042 b 1186 1065 1164 1042 1172 1049 l 1268 1160 l 1282 1160 l 1364 1065 b 1406 1042 1379 1049 1388 1042 l 1499 1042 b 1510 1067 1513 1042 1519 1054 l 1365 1231 b 1326 1250 1354 1244 1342 1250 z m 628 0 l 747 0 b 775 22 760 0 767 8 l 1276 832 l 1776 22 b 1804 0 1785 8 1792 0 l 1924 0 b 1953 22 1938 0 1944 8 l 2492 947 b 2479 972 2501 964 2493 972 l 2358 972 b 2329 949 2343 972 2338 964 l 1871 163 l 1854 163 l 1368 949 b 1338 972 1358 964 1353 972 l 1214 972 b 1183 949 1199 972 1193 964 l 697 163 l 681 163 l 222 949 b 193 972 214 964 208 972 l 72 972 b 60 947 58 972 50 964 l 599 22 b 628 0 607 8 614 0 z "},"Ẅ":{"ha":2551,"x_min":0,"x_max":0,"o":"m 1039 1106 l 1144 1106 b 1164 1125 1158 1106 1164 1111 l 1164 1231 b 1144 1250 1164 1244 1158 1250 l 1039 1250 b 1019 1231 1025 1250 1019 1244 l 1019 1125 b 1039 1106 1019 1111 1025 1106 z m 1379 1106 l 1485 1106 b 1504 1125 1499 1106 1504 1111 l 1504 1231 b 1485 1250 1504 1244 1499 1250 l 1379 1250 b 1360 1231 1365 1250 1360 1244 l 1360 1125 b 1379 1106 1360 1111 1365 1106 z m 628 0 l 747 0 b 775 22 760 0 767 8 l 1276 832 l 1776 22 b 1804 0 1785 8 1792 0 l 1924 0 b 1953 22 1938 0 1944 8 l 2492 947 b 2479 972 2501 964 2493 972 l 2358 972 b 2329 949 2343 972 2338 964 l 1871 163 l 1854 163 l 1368 949 b 1338 972 1358 964 1353 972 l 1214 972 b 1183 949 1199 972 1193 964 l 697 163 l 681 163 l 222 949 b 193 972 214 964 208 972 l 72 972 b 60 947 58 972 50 964 l 599 22 b 628 0 607 8 614 0 z "},"Ẁ":{"ha":2551,"x_min":0,"x_max":0,"o":"m 1249 1225 b 1219 1250 1240 1242 1233 1250 l 1089 1250 b 1075 1225 1074 1250 1063 1240 l 1199 1064 b 1232 1040 1210 1050 1218 1040 l 1315 1040 b 1329 1065 1331 1040 1338 1049 z m 628 0 l 747 0 b 775 22 760 0 767 8 l 1276 832 l 1776 22 b 1804 0 1785 8 1792 0 l 1924 0 b 1953 22 1938 0 1944 8 l 2492 947 b 2479 972 2501 964 2493 972 l 2358 972 b 2329 949 2343 972 2338 964 l 1871 163 l 1854 163 l 1368 949 b 1338 972 1358 964 1353 972 l 1214 972 b 1183 949 1199 972 1193 964 l 697 163 l 681 163 l 222 949 b 193 972 214 964 208 972 l 72 972 b 60 947 58 972 50 964 l 599 22 b 628 0 607 8 614 0 z "},"X":{"ha":1376,"x_min":0,"x_max":0,"o":"m 1311 26 l 786 486 l 1311 946 b 1306 972 1331 963 1318 972 l 1160 972 b 1119 951 1144 972 1136 967 l 688 572 l 256 951 b 217 972 240 965 231 972 l 69 972 b 67 946 57 972 47 963 l 590 486 l 67 26 b 69 0 47 10 57 0 l 217 0 b 256 22 231 0 240 8 l 688 400 l 1119 22 b 1160 0 1136 7 1146 0 l 1307 0 b 1311 26 1319 0 1331 10 z "},"Y":{"ha":1343,"x_min":0,"x_max":0,"o":"m 1274 972 l 1146 972 b 1108 951 1131 972 1121 964 l 678 499 l 665 499 l 235 951 b 197 972 222 964 213 972 l 71 972 b 63 950 57 972 50 963 l 601 382 l 601 21 b 621 0 601 7 607 0 l 722 0 b 743 21 736 0 743 7 l 743 382 l 1281 950 b 1274 972 1293 963 1286 972 z "},"Ý":{"ha":1343,"x_min":0,"x_max":0,"o":"m 701 1225 l 619 1065 b 632 1040 611 1049 617 1040 l 715 1040 b 750 1065 729 1040 739 1051 l 874 1225 b 867 1250 886 1240 882 1250 l 731 1250 b 701 1225 717 1250 710 1242 z m 1274 972 l 1146 972 b 1108 951 1131 972 1121 964 l 678 499 l 665 499 l 235 951 b 197 972 222 964 213 972 l 71 972 b 63 950 57 972 50 963 l 601 382 l 601 21 b 621 0 601 7 607 0 l 722 0 b 743 21 736 0 743 7 l 743 382 l 1281 950 b 1274 972 1293 963 1286 972 z "},"Ŷ":{"ha":1343,"x_min":0,"x_max":0,"o":"m 618 1250 b 582 1231 603 1250 593 1244 l 438 1067 b 447 1042 426 1054 433 1042 l 542 1042 b 582 1065 560 1042 568 1049 l 664 1160 l 678 1160 l 760 1065 b 801 1042 775 1049 783 1042 l 894 1042 b 906 1067 908 1042 915 1054 l 761 1231 b 722 1250 750 1244 738 1250 z m 1274 972 l 1146 972 b 1108 951 1131 972 1121 964 l 678 499 l 665 499 l 235 951 b 197 972 222 964 213 972 l 71 972 b 63 950 57 972 50 963 l 601 382 l 601 21 b 621 0 601 7 607 0 l 722 0 b 743 21 736 0 743 7 l 743 382 l 1281 950 b 1274 972 1293 963 1286 972 z "},"Ÿ":{"ha":1343,"x_min":0,"x_max":0,"o":"m 435 1106 l 540 1106 b 560 1125 554 1106 560 1111 l 560 1231 b 540 1250 560 1244 554 1250 l 435 1250 b 415 1231 421 1250 415 1244 l 415 1125 b 435 1106 415 1111 421 1106 z m 775 1106 l 881 1106 b 900 1125 894 1106 900 1111 l 900 1231 b 881 1250 900 1244 894 1250 l 775 1250 b 756 1231 761 1250 756 1244 l 756 1125 b 775 1106 756 1111 761 1106 z m 1274 972 l 1146 972 b 1108 951 1131 972 1121 964 l 678 499 l 665 499 l 235 951 b 197 972 222 964 213 972 l 71 972 b 63 950 57 972 50 963 l 601 382 l 601 21 b 621 0 601 7 607 0 l 722 0 b 743 21 736 0 743 7 l 743 382 l 1281 950 b 1274 972 1293 963 1286 972 z "},"Ỳ":{"ha":1343,"x_min":0,"x_max":0,"o":"m 644 1225 b 615 1250 636 1242 629 1250 l 485 1250 b 471 1225 469 1250 458 1240 l 594 1064 b 628 1040 606 1050 614 1040 l 711 1040 b 725 1065 726 1040 733 1049 z m 1274 972 l 1146 972 b 1108 951 1131 972 1121 964 l 678 499 l 665 499 l 235 951 b 197 972 222 964 213 972 l 71 972 b 63 950 57 972 50 963 l 601 382 l 601 21 b 621 0 601 7 607 0 l 722 0 b 743 21 736 0 743 7 l 743 382 l 1281 950 b 1274 972 1293 963 1286 972 z "},"Z":{"ha":1264,"x_min":0,"x_max":0,"o":"m 90 0 l 1174 0 b 1194 21 1188 0 1194 7 l 1194 108 b 1174 128 1194 122 1188 128 l 285 128 l 285 142 l 1181 828 b 1193 854 1193 838 1193 847 l 1193 951 b 1172 972 1193 965 1186 972 l 94 972 b 75 951 81 972 75 965 l 75 864 b 94 844 75 850 81 844 l 978 844 l 978 831 l 82 144 b 69 118 69 135 69 125 l 69 21 b 90 0 69 7 76 0 z "},"Ź":{"ha":1264,"x_min":0,"x_max":0,"o":"m 663 1225 l 581 1065 b 593 1040 572 1049 578 1040 l 676 1040 b 711 1065 690 1040 700 1051 l 835 1225 b 828 1250 847 1240 843 1250 l 692 1250 b 663 1225 678 1250 671 1242 z m 90 0 l 1174 0 b 1194 21 1188 0 1194 7 l 1194 108 b 1174 128 1194 122 1188 128 l 285 128 l 285 142 l 1181 828 b 1193 854 1193 838 1193 847 l 1193 951 b 1172 972 1193 965 1186 972 l 94 972 b 75 951 81 972 75 965 l 75 864 b 94 844 75 850 81 844 l 978 844 l 978 831 l 82 144 b 69 118 69 135 69 125 l 69 21 b 90 0 69 7 76 0 z "},"Ž":{"ha":1264,"x_min":0,"x_max":0,"o":"m 579 1042 l 683 1042 b 722 1060 699 1042 711 1047 l 867 1225 b 856 1250 876 1238 869 1250 l 763 1250 b 721 1225 744 1250 736 1243 l 639 1132 l 625 1132 l 543 1225 b 503 1250 529 1243 521 1250 l 408 1250 b 399 1225 394 1250 388 1238 l 543 1060 b 579 1042 554 1046 564 1042 z m 90 0 l 1174 0 b 1194 21 1188 0 1194 7 l 1194 108 b 1174 128 1194 122 1188 128 l 285 128 l 285 142 l 1181 828 b 1193 854 1193 838 1193 847 l 1193 951 b 1172 972 1193 965 1186 972 l 94 972 b 75 951 81 972 75 965 l 75 864 b 94 844 75 850 81 844 l 978 844 l 978 831 l 82 144 b 69 118 69 135 69 125 l 69 21 b 90 0 69 7 76 0 z "},"Ż":{"ha":1264,"x_min":0,"x_max":0,"o":"m 579 1106 l 685 1106 b 704 1125 699 1106 704 1111 l 704 1231 b 685 1250 704 1244 699 1250 l 579 1250 b 560 1231 565 1250 560 1244 l 560 1125 b 579 1106 560 1111 565 1106 z m 90 0 l 1174 0 b 1194 21 1188 0 1194 7 l 1194 108 b 1174 128 1194 122 1188 128 l 285 128 l 285 142 l 1181 828 b 1193 854 1193 838 1193 847 l 1193 951 b 1172 972 1193 965 1186 972 l 94 972 b 75 951 81 972 75 965 l 75 864 b 94 844 75 850 81 844 l 978 844 l 978 831 l 82 144 b 69 118 69 135 69 125 l 69 21 b 90 0 69 7 76 0 z "},"a":{"ha":1019,"x_min":0,"x_max":0,"o":"m 261 -7 l 592 -7 b 801 94 700 -7 761 40 l 813 94 l 813 21 b 832 0 813 7 818 0 l 929 0 b 950 21 943 0 950 7 l 950 458 b 682 700 950 622 872 700 l 310 700 b 86 526 154 700 86 642 b 117 492 86 503 93 492 l 197 492 b 224 513 214 492 221 499 b 340 578 233 558 268 578 l 658 578 b 813 451 774 578 813 547 l 813 407 l 258 407 b 42 207 113 407 42 349 b 261 -7 42 65 126 -7 z m 265 118 b 179 208 213 118 179 140 b 265 299 179 279 213 299 l 813 299 l 813 231 b 675 118 813 171 775 118 z "},"á":{"ha":1019,"x_min":0,"x_max":0,"o":"m 539 947 l 457 788 b 469 763 449 771 454 763 l 553 763 b 588 788 567 763 576 774 l 711 947 b 704 972 724 963 719 972 l 568 972 b 539 947 554 972 547 964 z m 261 -7 l 592 -7 b 801 94 700 -7 761 40 l 813 94 l 813 21 b 832 0 813 7 818 0 l 929 0 b 950 21 943 0 950 7 l 950 458 b 682 700 950 622 872 700 l 310 700 b 86 526 154 700 86 642 b 117 492 86 503 93 492 l 197 492 b 224 513 214 492 221 499 b 340 578 233 558 268 578 l 658 578 b 813 451 774 578 813 547 l 813 407 l 258 407 b 42 207 113 407 42 349 b 261 -7 42 65 126 -7 z m 265 118 b 179 208 213 118 179 140 b 265 299 179 279 213 299 l 813 299 l 813 231 b 675 118 813 171 775 118 z "},"ă":{"ha":1019,"x_min":0,"x_max":0,"o":"m 471 765 l 544 765 b 726 953 668 765 726 826 b 706 972 726 967 719 972 l 632 972 b 611 953 618 972 613 967 b 528 863 608 903 588 863 l 488 863 b 404 953 428 863 408 903 b 385 972 404 967 399 972 l 310 972 b 290 953 296 972 290 967 b 471 765 290 826 349 765 z m 261 -7 l 592 -7 b 801 94 700 -7 761 40 l 813 94 l 813 21 b 832 0 813 7 818 0 l 929 0 b 950 21 943 0 950 7 l 950 458 b 682 700 950 622 872 700 l 310 700 b 86 526 154 700 86 642 b 117 492 86 503 93 492 l 197 492 b 224 513 214 492 221 499 b 340 578 233 558 268 578 l 658 578 b 813 451 774 578 813 547 l 813 407 l 258 407 b 42 207 113 407 42 349 b 261 -7 42 65 126 -7 z m 265 118 b 179 208 213 118 179 140 b 265 299 179 279 213 299 l 813 299 l 813 231 b 675 118 813 171 775 118 z "},"ǎ":{"ha":1019,"x_min":0,"x_max":0,"o":"m 456 764 l 560 764 b 599 782 575 764 588 769 l 743 947 b 732 972 753 960 746 972 l 639 972 b 597 947 621 972 613 965 l 515 854 l 501 854 l 419 947 b 379 972 406 965 397 972 l 285 972 b 275 947 271 972 264 960 l 419 782 b 456 764 431 768 440 764 z m 261 -7 l 592 -7 b 801 94 700 -7 761 40 l 813 94 l 813 21 b 832 0 813 7 818 0 l 929 0 b 950 21 943 0 950 7 l 950 458 b 682 700 950 622 872 700 l 310 700 b 86 526 154 700 86 642 b 117 492 86 503 93 492 l 197 492 b 224 513 214 492 221 499 b 340 578 233 558 268 578 l 658 578 b 813 451 774 578 813 547 l 813 407 l 258 407 b 42 207 113 407 42 349 b 261 -7 42 65 126 -7 z m 265 118 b 179 208 213 118 179 140 b 265 299 179 279 213 299 l 813 299 l 813 231 b 675 118 813 171 775 118 z "},"â":{"ha":1019,"x_min":0,"x_max":0,"o":"m 456 972 b 419 953 440 972 431 967 l 275 789 b 285 764 264 776 271 764 l 379 764 b 419 788 397 764 406 771 l 501 882 l 515 882 l 597 788 b 639 764 613 771 621 764 l 732 764 b 743 789 746 764 753 776 l 599 953 b 560 972 588 967 575 972 z m 261 -7 l 592 -7 b 801 94 700 -7 761 40 l 813 94 l 813 21 b 832 0 813 7 818 0 l 929 0 b 950 21 943 0 950 7 l 950 458 b 682 700 950 622 872 700 l 310 700 b 86 526 154 700 86 642 b 117 492 86 503 93 492 l 197 492 b 224 513 214 492 221 499 b 340 578 233 558 268 578 l 658 578 b 813 451 774 578 813 547 l 813 407 l 258 407 b 42 207 113 407 42 349 b 261 -7 42 65 126 -7 z m 265 118 b 179 208 213 118 179 140 b 265 299 179 279 213 299 l 813 299 l 813 231 b 675 118 813 171 775 118 z "},"ä":{"ha":1019,"x_min":0,"x_max":0,"o":"m 272 828 l 378 828 b 397 847 392 828 397 833 l 397 953 b 378 972 397 967 392 972 l 272 972 b 253 953 258 972 253 967 l 253 847 b 272 828 253 833 258 828 z m 613 828 l 718 828 b 738 847 732 828 738 833 l 738 953 b 718 972 738 967 732 972 l 613 972 b 593 953 599 972 593 967 l 593 847 b 613 828 593 833 599 828 z m 261 -7 l 592 -7 b 801 94 700 -7 761 40 l 813 94 l 813 21 b 832 0 813 7 818 0 l 929 0 b 950 21 943 0 950 7 l 950 458 b 682 700 950 622 872 700 l 310 700 b 86 526 154 700 86 642 b 117 492 86 503 93 492 l 197 492 b 224 513 214 492 221 499 b 340 578 233 558 268 578 l 658 578 b 813 451 774 578 813 547 l 813 407 l 258 407 b 42 207 113 407 42 349 b 261 -7 42 65 126 -7 z m 265 118 b 179 208 213 118 179 140 b 265 299 179 279 213 299 l 813 299 l 813 231 b 675 118 813 171 775 118 z "},"à":{"ha":1019,"x_min":0,"x_max":0,"o":"m 482 947 b 453 972 474 964 467 972 l 322 972 b 308 947 307 972 296 963 l 432 786 b 465 763 443 772 451 763 l 549 763 b 563 788 564 763 571 771 z m 261 -7 l 592 -7 b 801 94 700 -7 761 40 l 813 94 l 813 21 b 832 0 813 7 818 0 l 929 0 b 950 21 943 0 950 7 l 950 458 b 682 700 950 622 872 700 l 310 700 b 86 526 154 700 86 642 b 117 492 86 503 93 492 l 197 492 b 224 513 214 492 221 499 b 340 578 233 558 268 578 l 658 578 b 813 451 774 578 813 547 l 813 407 l 258 407 b 42 207 113 407 42 349 b 261 -7 42 65 126 -7 z m 265 118 b 179 208 213 118 179 140 b 265 299 179 279 213 299 l 813 299 l 813 231 b 675 118 813 171 775 118 z "},"ā":{"ha":1019,"x_min":0,"x_max":0,"o":"m 285 846 l 735 846 b 756 867 747 846 756 853 l 756 951 b 735 972 756 965 747 972 l 285 972 b 264 951 271 972 264 965 l 264 867 b 285 846 264 853 271 846 z m 261 -7 l 592 -7 b 801 94 700 -7 761 40 l 813 94 l 813 21 b 832 0 813 7 818 0 l 929 0 b 950 21 943 0 950 7 l 950 458 b 682 700 950 622 872 700 l 310 700 b 86 526 154 700 86 642 b 117 492 86 503 93 492 l 197 492 b 224 513 214 492 221 499 b 340 578 233 558 268 578 l 658 578 b 813 451 774 578 813 547 l 813 407 l 258 407 b 42 207 113 407 42 349 b 261 -7 42 65 126 -7 z m 265 118 b 179 208 213 118 179 140 b 265 299 179 279 213 299 l 813 299 l 813 231 b 675 118 813 171 775 118 z "},"ą":{"ha":1019,"x_min":0,"x_max":0,"o":"m 682 700 l 310 700 b 86 526 154 700 86 642 b 117 492 86 503 93 492 l 197 492 b 224 513 214 492 221 499 b 340 578 233 558 268 578 l 658 578 b 813 451 774 578 813 547 l 813 407 l 258 407 b 42 207 113 407 42 349 b 261 -7 42 65 126 -7 l 592 -7 b 801 94 700 -7 761 40 l 813 94 l 813 1 b 765 -37 813 -29 800 -33 l 711 -43 b 606 -153 631 -51 606 -65 b 740 -271 606 -249 635 -271 l 917 -271 b 931 -257 926 -271 931 -265 l 931 -193 b 917 -178 931 -183 925 -178 l 765 -178 b 731 -151 738 -178 731 -171 b 754 -125 731 -131 736 -128 l 864 -112 b 950 -31 924 -104 950 -94 l 950 458 b 682 700 950 622 872 700 z m 675 118 l 265 118 b 179 208 213 118 179 140 b 265 299 179 279 213 299 l 813 299 l 813 231 b 675 118 813 171 775 118 z "},"å":{"ha":1019,"x_min":0,"x_max":0,"o":"m 518 994 l 500 994 b 383 878 432 994 383 943 l 383 863 b 500 747 383 797 432 747 l 518 747 b 635 863 586 747 635 797 l 635 878 b 518 994 635 943 586 994 z m 556 876 l 556 867 b 515 826 556 843 540 826 l 503 826 b 464 867 479 826 464 843 l 464 876 b 503 915 464 900 479 915 l 515 915 b 556 876 540 915 556 900 z m 261 -7 l 592 -7 b 801 94 700 -7 761 40 l 813 94 l 813 21 b 832 0 813 7 818 0 l 929 0 b 950 21 943 0 950 7 l 950 458 b 682 700 950 622 872 700 l 310 700 b 86 526 154 700 86 642 b 117 492 86 503 93 492 l 197 492 b 224 513 214 492 221 499 b 340 578 233 558 268 578 l 658 578 b 813 451 774 578 813 547 l 813 407 l 258 407 b 42 207 113 407 42 349 b 261 -7 42 65 126 -7 z m 265 118 b 179 208 213 118 179 140 b 265 299 179 279 213 299 l 813 299 l 813 231 b 675 118 813 171 775 118 z "},"ã":{"ha":1019,"x_min":0,"x_max":0,"o":"m 604 799 b 733 842 647 799 688 810 b 744 869 744 850 750 857 l 715 940 b 692 947 711 949 704 954 b 608 919 658 926 639 919 b 414 979 533 919 507 979 b 283 936 369 979 329 968 b 272 908 272 928 267 921 l 301 838 b 326 832 306 829 314 824 b 408 858 358 851 378 858 b 604 799 483 858 510 799 z m 261 -7 l 592 -7 b 801 94 700 -7 761 40 l 813 94 l 813 21 b 832 0 813 7 818 0 l 929 0 b 950 21 943 0 950 7 l 950 458 b 682 700 950 622 872 700 l 310 700 b 86 526 154 700 86 642 b 117 492 86 503 93 492 l 197 492 b 224 513 214 492 221 499 b 340 578 233 558 268 578 l 658 578 b 813 451 774 578 813 547 l 813 407 l 258 407 b 42 207 113 407 42 349 b 261 -7 42 65 126 -7 z m 265 118 b 179 208 213 118 179 140 b 265 299 179 279 213 299 l 813 299 l 813 231 b 675 118 813 171 775 118 z "},"æ":{"ha":1765,"x_min":0,"x_max":0,"o":"m 1628 296 b 1703 369 1679 296 1703 319 l 1703 464 b 1464 700 1703 614 1618 700 l 1051 700 b 876 640 975 700 917 679 b 682 700 839 681 778 700 l 311 700 b 86 526 154 700 86 643 b 117 492 86 503 93 492 l 197 492 b 224 513 214 492 221 500 b 340 578 233 558 268 578 l 658 578 b 813 451 774 578 813 547 l 813 407 l 258 407 b 42 207 113 407 42 349 b 261 -7 42 65 126 -7 l 626 -7 b 839 99 736 -7 799 42 l 842 99 b 1051 -7 879 31 950 -7 l 1428 -7 b 1686 97 1585 -7 1642 28 b 1681 126 1694 110 1696 119 l 1639 147 b 1597 150 1621 156 1610 156 b 1424 117 1538 121 1518 117 l 1068 117 b 950 231 992 117 950 153 l 950 296 z m 1068 575 l 1447 575 b 1565 461 1524 575 1565 539 l 1565 397 l 950 397 l 950 461 b 1068 575 950 539 992 575 z m 675 118 l 265 118 b 179 208 213 118 179 140 b 265 299 179 279 213 299 l 813 299 l 813 231 b 675 118 813 171 775 118 z "},"b":{"ha":1033,"x_min":0,"x_max":0,"o":"m 732 -7 b 971 229 886 -7 971 81 l 971 464 b 732 700 971 614 886 700 l 399 700 b 219 626 286 700 256 674 l 207 626 l 207 951 b 188 972 207 965 199 972 l 90 972 b 69 951 76 972 69 965 l 69 21 b 90 0 69 7 76 0 l 188 0 b 207 21 201 0 207 7 l 207 68 l 219 68 b 399 -7 256 19 286 -7 z m 719 118 l 314 118 b 207 232 247 118 207 154 l 207 461 b 314 575 207 539 247 575 l 719 575 b 833 461 792 575 833 539 l 833 232 b 719 118 833 154 792 118 z "},"c":{"ha":1007,"x_min":0,"x_max":0,"o":"m 301 -7 l 679 -7 b 936 97 836 -7 893 28 b 931 126 944 110 947 119 l 889 147 b 849 150 872 156 861 156 b 674 117 788 121 768 117 l 318 117 b 200 231 243 117 200 153 l 200 461 b 318 575 200 539 243 575 l 704 575 b 815 486 782 575 815 546 l 815 453 b 840 435 815 440 825 435 l 928 435 b 951 457 943 435 951 442 l 951 490 b 722 700 951 625 882 700 l 301 700 b 63 464 147 700 63 615 l 63 229 b 301 -7 63 79 147 -7 z "},"ć":{"ha":1007,"x_min":0,"x_max":0,"o":"m 529 947 l 447 788 b 460 763 439 771 444 763 l 543 763 b 578 788 557 763 567 774 l 701 947 b 694 972 714 963 710 972 l 558 972 b 529 947 544 972 538 964 z m 301 -7 l 679 -7 b 936 97 836 -7 893 28 b 931 126 944 110 947 119 l 889 147 b 849 150 872 156 861 156 b 674 117 788 121 768 117 l 318 117 b 200 231 243 117 200 153 l 200 461 b 318 575 200 539 243 575 l 704 575 b 815 486 782 575 815 546 l 815 453 b 840 435 815 440 825 435 l 928 435 b 951 457 943 435 951 442 l 951 490 b 722 700 951 625 882 700 l 301 700 b 63 464 147 700 63 615 l 63 229 b 301 -7 63 79 147 -7 z "},"č":{"ha":1007,"x_min":0,"x_max":0,"o":"m 447 764 l 551 764 b 590 782 567 764 579 769 l 735 947 b 724 972 744 960 738 972 l 631 972 b 589 947 613 972 604 965 l 507 854 l 493 854 l 411 947 b 371 972 397 965 389 972 l 276 972 b 267 947 263 972 256 960 l 411 782 b 447 764 422 768 432 764 z m 301 -7 l 679 -7 b 936 97 836 -7 893 28 b 931 126 944 110 947 119 l 889 147 b 849 150 872 156 861 156 b 674 117 788 121 768 117 l 318 117 b 200 231 243 117 200 153 l 200 461 b 318 575 200 539 243 575 l 704 575 b 815 486 782 575 815 546 l 815 453 b 840 435 815 440 825 435 l 928 435 b 951 457 943 435 951 442 l 951 490 b 722 700 951 625 882 700 l 301 700 b 63 464 147 700 63 615 l 63 229 b 301 -7 63 79 147 -7 z "},"ç":{"ha":1007,"x_min":0,"x_max":0,"o":"m 722 700 l 301 700 b 63 464 147 700 63 615 l 63 229 b 301 -7 63 79 147 -7 l 451 -7 b 400 -82 415 -42 400 -58 b 454 -131 400 -114 425 -128 b 596 -169 567 -142 596 -143 b 544 -199 596 -194 579 -199 l 517 -199 b 467 -168 483 -199 469 -187 b 451 -154 465 -160 460 -154 l 372 -154 b 358 -171 361 -154 358 -161 b 479 -283 358 -240 389 -283 l 574 -283 b 704 -168 664 -283 704 -243 b 572 -57 704 -82 663 -67 b 572 -7 539 -53 515 -47 l 679 -7 b 936 97 836 -7 893 28 b 931 126 944 110 947 119 l 889 147 b 849 150 872 156 861 156 b 674 117 788 121 768 117 l 318 117 b 200 231 243 117 200 153 l 200 461 b 318 575 200 539 243 575 l 704 575 b 815 486 782 575 815 546 l 815 453 b 840 435 815 440 825 435 l 928 435 b 951 457 943 435 951 442 l 951 490 b 722 700 951 625 882 700 z "},"ċ":{"ha":1007,"x_min":0,"x_max":0,"o":"m 446 828 l 551 828 b 571 847 565 828 571 833 l 571 953 b 551 972 571 967 565 972 l 446 972 b 426 953 432 972 426 967 l 426 847 b 446 828 426 833 432 828 z m 301 -7 l 679 -7 b 936 97 836 -7 893 28 b 931 126 944 110 947 119 l 889 147 b 849 150 872 156 861 156 b 674 117 788 121 768 117 l 318 117 b 200 231 243 117 200 153 l 200 461 b 318 575 200 539 243 575 l 704 575 b 815 486 782 575 815 546 l 815 453 b 840 435 815 440 825 435 l 928 435 b 951 457 943 435 951 442 l 951 490 b 722 700 951 625 882 700 l 301 700 b 63 464 147 700 63 615 l 63 229 b 301 -7 63 79 147 -7 z "},"d":{"ha":1033,"x_min":0,"x_max":0,"o":"m 303 -7 l 635 -7 b 814 68 747 -7 778 19 l 826 68 l 826 21 b 847 0 826 7 833 0 l 943 0 b 964 21 957 0 964 7 l 964 951 b 943 972 964 965 957 972 l 846 972 b 826 951 835 972 826 965 l 826 626 l 814 626 b 635 700 778 674 747 700 l 303 700 b 63 464 147 700 63 614 l 63 229 b 303 -7 63 81 147 -7 z m 314 118 b 200 232 243 118 200 154 l 200 461 b 314 575 200 539 243 575 l 719 575 b 826 461 786 575 826 539 l 826 232 b 719 118 826 154 786 118 z "},"ð":{"ha":1072,"x_min":0,"x_max":0,"o":"m 985 1007 l 910 1007 b 869 983 897 1007 888 1003 l 838 950 b 710 972 803 965 760 972 l 311 972 b 290 951 297 972 290 965 l 290 868 b 311 847 290 854 297 847 l 686 847 b 736 844 704 847 721 846 l 654 758 b 667 733 643 746 650 733 l 742 733 b 782 757 756 733 765 740 l 815 792 b 826 733 824 776 826 757 l 826 626 l 814 626 b 635 700 778 674 747 700 l 303 700 b 63 464 147 700 63 614 l 63 229 b 303 -7 63 81 147 -7 l 635 -7 b 814 68 747 -7 778 19 l 826 68 l 826 21 b 847 0 826 7 833 0 l 943 0 b 964 21 957 0 964 7 l 964 733 b 914 896 964 801 947 856 l 997 982 b 985 1007 1010 996 1001 1007 z m 826 232 b 719 118 826 154 786 118 l 314 118 b 200 232 243 118 200 154 l 200 461 b 314 575 200 539 243 575 l 719 575 b 826 461 786 575 826 539 z "},"ď":{"ha":1175,"x_min":0,"x_max":0,"o":"m 303 -7 l 635 -7 b 814 68 747 -7 778 19 l 826 68 l 826 21 b 847 0 826 7 833 0 l 943 0 b 964 21 957 0 964 7 l 964 951 b 943 972 964 965 957 972 l 846 972 b 826 951 835 972 826 965 l 826 626 l 814 626 b 635 700 778 674 747 700 l 303 700 b 63 464 147 700 63 614 l 63 229 b 303 -7 63 81 147 -7 z m 1192 972 l 1110 972 b 1089 953 1096 972 1089 967 l 1089 729 l 1036 729 b 1017 710 1022 729 1017 724 l 1017 633 b 1036 613 1017 619 1022 613 l 1168 613 b 1211 657 1197 613 1211 628 l 1211 953 b 1192 972 1211 967 1206 972 z m 314 118 b 200 232 243 118 200 154 l 200 461 b 314 575 200 539 243 575 l 719 575 b 826 461 786 575 826 539 l 826 232 b 719 118 826 154 786 118 z "},"đ":{"ha":1051,"x_min":0,"x_max":0,"o":"m 1010 869 l 964 869 l 964 951 b 943 972 964 965 957 972 l 846 972 b 826 951 835 972 826 965 l 826 869 l 560 869 b 539 849 546 869 539 863 l 539 764 b 560 743 539 750 546 743 l 826 743 l 826 626 l 814 626 b 635 700 778 674 747 700 l 303 700 b 63 464 147 700 63 614 l 63 229 b 303 -7 63 81 147 -7 l 635 -7 b 814 68 747 -7 778 19 l 826 68 l 826 21 b 847 0 826 7 833 0 l 943 0 b 964 21 957 0 964 7 l 964 743 l 1010 743 b 1031 764 1022 743 1031 750 l 1031 849 b 1010 869 1031 863 1022 869 z m 826 232 b 719 118 826 154 786 118 l 314 118 b 200 232 243 118 200 154 l 200 461 b 314 575 200 539 243 575 l 719 575 b 826 461 786 575 826 539 z "},"e":{"ha":1017,"x_min":0,"x_max":0,"o":"m 879 296 b 954 369 931 296 954 319 l 954 464 b 714 700 954 614 869 700 l 301 700 b 63 464 147 700 63 615 l 63 229 b 301 -7 63 79 147 -7 l 679 -7 b 936 97 836 -7 893 28 b 931 126 944 110 947 119 l 889 147 b 849 150 872 156 861 156 b 674 117 788 121 768 117 l 318 117 b 200 231 243 117 200 153 l 200 296 z m 318 575 l 697 575 b 815 461 774 575 815 539 l 815 397 l 200 397 l 200 461 b 318 575 200 539 243 575 z "},"é":{"ha":1017,"x_min":0,"x_max":0,"o":"m 465 763 l 549 763 b 583 788 563 763 572 774 l 707 947 b 700 972 719 963 715 972 l 564 972 b 535 947 550 972 543 964 l 453 788 b 465 763 444 771 450 763 z m 879 296 b 954 369 931 296 954 319 l 954 464 b 714 700 954 614 869 700 l 301 700 b 63 464 147 700 63 615 l 63 229 b 301 -7 63 79 147 -7 l 679 -7 b 936 97 836 -7 893 28 b 931 126 944 110 947 119 l 889 147 b 849 150 872 156 861 156 b 674 117 788 121 768 117 l 318 117 b 200 231 243 117 200 153 l 200 296 z m 318 575 l 697 575 b 815 461 774 575 815 539 l 815 397 l 200 397 l 200 461 b 318 575 200 539 243 575 z "},"ě":{"ha":1017,"x_min":0,"x_max":0,"o":"m 415 782 b 451 764 426 768 436 764 l 556 764 b 594 782 571 764 583 769 l 739 947 b 728 972 749 960 742 972 l 635 972 b 593 947 617 972 608 965 l 511 854 l 497 854 l 415 947 b 375 972 401 965 393 972 l 281 972 b 271 947 267 972 260 960 z m 879 296 b 954 369 931 296 954 319 l 954 464 b 714 700 954 614 869 700 l 301 700 b 63 464 147 700 63 615 l 63 229 b 301 -7 63 79 147 -7 l 679 -7 b 936 97 836 -7 893 28 b 931 126 944 110 947 119 l 889 147 b 849 150 872 156 861 156 b 674 117 788 121 768 117 l 318 117 b 200 231 243 117 200 153 l 200 296 z m 318 575 l 697 575 b 815 461 774 575 815 539 l 815 397 l 200 397 l 200 461 b 318 575 200 539 243 575 z "},"ȩ":{"ha":1017,"x_min":0,"x_max":0,"o":"m 879 296 b 954 369 931 296 954 319 l 954 464 b 714 700 954 614 869 700 l 301 700 b 63 464 147 700 63 615 l 63 229 b 301 -7 63 79 147 -7 l 457 -7 b 406 -82 421 -42 406 -58 b 460 -131 406 -114 431 -128 b 601 -169 572 -142 601 -143 b 550 -199 601 -194 585 -199 l 522 -199 b 472 -168 489 -199 475 -187 b 457 -154 471 -160 465 -154 l 378 -154 b 364 -171 367 -154 364 -161 b 485 -283 364 -240 394 -283 l 579 -283 b 710 -168 669 -283 710 -243 b 578 -57 710 -82 668 -67 b 578 -7 544 -53 521 -47 l 679 -7 b 936 97 836 -7 893 28 b 931 126 944 110 947 119 l 889 147 b 849 150 872 156 861 156 b 674 117 788 121 768 117 l 318 117 b 200 231 243 117 200 153 l 200 296 z m 318 575 l 697 575 b 815 461 774 575 815 539 l 815 397 l 200 397 l 200 461 b 318 575 200 539 243 575 z "},"ê":{"ha":1017,"x_min":0,"x_max":0,"o":"m 281 764 l 375 764 b 415 788 393 764 401 771 l 497 882 l 511 882 l 593 788 b 635 764 608 771 617 764 l 728 764 b 739 789 742 764 749 776 l 594 953 b 556 972 583 967 571 972 l 451 972 b 415 953 436 972 426 967 l 271 789 b 281 764 260 776 267 764 z m 879 296 b 954 369 931 296 954 319 l 954 464 b 714 700 954 614 869 700 l 301 700 b 63 464 147 700 63 615 l 63 229 b 301 -7 63 79 147 -7 l 679 -7 b 936 97 836 -7 893 28 b 931 126 944 110 947 119 l 889 147 b 849 150 872 156 861 156 b 674 117 788 121 768 117 l 318 117 b 200 231 243 117 200 153 l 200 296 z m 318 575 l 697 575 b 815 461 774 575 815 539 l 815 397 l 200 397 l 200 461 b 318 575 200 539 243 575 z "},"ë":{"ha":1017,"x_min":0,"x_max":0,"o":"m 268 828 l 374 828 b 393 847 388 828 393 833 l 393 953 b 374 972 393 967 388 972 l 268 972 b 249 953 254 972 249 967 l 249 847 b 268 828 249 833 254 828 z m 608 828 l 714 828 b 733 847 728 828 733 833 l 733 953 b 714 972 733 967 728 972 l 608 972 b 589 953 594 972 589 967 l 589 847 b 608 828 589 833 594 828 z m 879 296 b 954 369 931 296 954 319 l 954 464 b 714 700 954 614 869 700 l 301 700 b 63 464 147 700 63 615 l 63 229 b 301 -7 63 79 147 -7 l 679 -7 b 936 97 836 -7 893 28 b 931 126 944 110 947 119 l 889 147 b 849 150 872 156 861 156 b 674 117 788 121 768 117 l 318 117 b 200 231 243 117 200 153 l 200 296 z m 318 575 l 697 575 b 815 461 774 575 815 539 l 815 397 l 200 397 l 200 461 b 318 575 200 539 243 575 z "},"ė":{"ha":1017,"x_min":0,"x_max":0,"o":"m 451 828 l 557 828 b 576 847 571 828 576 833 l 576 953 b 557 972 576 967 571 972 l 451 972 b 432 953 438 972 432 967 l 432 847 b 451 828 432 833 438 828 z m 879 296 b 954 369 931 296 954 319 l 954 464 b 714 700 954 614 869 700 l 301 700 b 63 464 147 700 63 615 l 63 229 b 301 -7 63 79 147 -7 l 679 -7 b 936 97 836 -7 893 28 b 931 126 944 110 947 119 l 889 147 b 849 150 872 156 861 156 b 674 117 788 121 768 117 l 318 117 b 200 231 243 117 200 153 l 200 296 z m 318 575 l 697 575 b 815 461 774 575 815 539 l 815 397 l 200 397 l 200 461 b 318 575 200 539 243 575 z "},"è":{"ha":1017,"x_min":0,"x_max":0,"o":"m 428 786 b 461 763 439 772 447 763 l 544 763 b 558 788 560 763 567 771 l 478 947 b 449 972 469 964 463 972 l 318 972 b 304 947 303 972 292 963 z m 879 296 b 954 369 931 296 954 319 l 954 464 b 714 700 954 614 869 700 l 301 700 b 63 464 147 700 63 615 l 63 229 b 301 -7 63 79 147 -7 l 679 -7 b 936 97 836 -7 893 28 b 931 126 944 110 947 119 l 889 147 b 849 150 872 156 861 156 b 674 117 788 121 768 117 l 318 117 b 200 231 243 117 200 153 l 200 296 z m 318 575 l 697 575 b 815 461 774 575 815 539 l 815 397 l 200 397 l 200 461 b 318 575 200 539 243 575 z "},"ē":{"ha":1017,"x_min":0,"x_max":0,"o":"m 281 846 l 731 846 b 751 867 743 846 751 853 l 751 951 b 731 972 751 965 743 972 l 281 972 b 260 951 267 972 260 965 l 260 867 b 281 846 260 853 267 846 z m 879 296 b 954 369 931 296 954 319 l 954 464 b 714 700 954 614 869 700 l 301 700 b 63 464 147 700 63 615 l 63 229 b 301 -7 63 79 147 -7 l 679 -7 b 936 97 836 -7 893 28 b 931 126 944 110 947 119 l 889 147 b 849 150 872 156 861 156 b 674 117 788 121 768 117 l 318 117 b 200 231 243 117 200 153 l 200 296 z m 318 575 l 697 575 b 815 461 774 575 815 539 l 815 397 l 200 397 l 200 461 b 318 575 200 539 243 575 z "},"ę":{"ha":1017,"x_min":0,"x_max":0,"o":"m 879 296 b 954 369 931 296 954 319 l 954 464 b 714 700 954 614 869 700 l 301 700 b 63 464 147 700 63 615 l 63 229 b 301 -7 63 79 147 -7 l 521 -7 l 521 -14 b 474 -51 521 -43 508 -47 l 419 -57 b 314 -167 339 -65 314 -79 b 449 -285 314 -262 343 -285 l 625 -285 b 639 -271 635 -285 639 -279 l 639 -207 b 625 -192 639 -197 633 -192 l 474 -192 b 439 -165 446 -192 439 -185 b 463 -139 439 -144 444 -142 l 572 -126 b 658 -44 632 -118 658 -108 l 658 -7 l 679 -7 b 936 97 836 -7 893 28 b 931 126 944 110 947 119 l 889 147 b 849 150 872 156 861 156 b 674 117 788 121 768 117 l 318 117 b 200 231 243 117 200 153 l 200 296 z m 318 575 l 697 575 b 815 461 774 575 815 539 l 815 397 l 200 397 l 200 461 b 318 575 200 539 243 575 z "},"f":{"ha":844,"x_min":0,"x_max":0,"o":"m 775 972 l 388 972 b 149 736 233 972 149 886 l 149 694 l 76 694 b 56 674 63 694 56 688 l 56 590 b 76 569 56 576 63 569 l 149 569 l 149 21 b 169 0 149 7 156 0 l 265 0 b 286 21 279 0 286 7 l 286 569 l 761 569 b 782 590 775 569 782 576 l 782 674 b 761 694 782 688 775 694 l 286 694 l 286 733 b 400 847 286 811 328 847 l 775 847 b 796 868 789 847 796 854 l 796 951 b 775 972 796 965 789 972 z "},"g":{"ha":1033,"x_min":0,"x_max":0,"o":"m 228 -251 l 725 -251 b 964 -15 879 -251 964 -165 l 964 674 b 943 694 964 688 957 694 l 846 694 b 826 674 835 694 826 688 l 826 626 l 814 626 b 635 700 778 674 747 700 l 303 700 b 63 464 147 700 63 614 l 63 229 b 303 -7 63 81 147 -7 l 635 -7 b 814 68 747 -7 778 19 l 826 68 l 826 -8 b 692 -136 826 -97 785 -136 l 228 -136 b 207 -158 214 -136 207 -143 l 207 -231 b 228 -251 207 -244 214 -251 z m 314 118 b 200 232 243 118 200 154 l 200 461 b 314 575 200 539 243 575 l 719 575 b 826 461 786 575 826 539 l 826 232 b 719 118 826 154 786 118 z "},"ğ":{"ha":1033,"x_min":0,"x_max":0,"o":"m 486 765 l 560 765 b 742 953 683 765 742 826 b 721 972 742 967 735 972 l 647 972 b 626 953 633 972 628 967 b 543 863 624 903 603 863 l 503 863 b 419 953 443 863 424 903 b 400 972 419 967 414 972 l 325 972 b 306 953 311 972 306 967 b 486 765 306 826 364 765 z m 228 -251 l 725 -251 b 964 -15 879 -251 964 -165 l 964 674 b 943 694 964 688 957 694 l 846 694 b 826 674 835 694 826 688 l 826 626 l 814 626 b 635 700 778 674 747 700 l 303 700 b 63 464 147 700 63 614 l 63 229 b 303 -7 63 81 147 -7 l 635 -7 b 814 68 747 -7 778 19 l 826 68 l 826 -8 b 692 -136 826 -97 785 -136 l 228 -136 b 207 -158 214 -136 207 -143 l 207 -231 b 228 -251 207 -244 214 -251 z m 314 118 b 200 232 243 118 200 154 l 200 461 b 314 575 200 539 243 575 l 719 575 b 826 461 786 575 826 539 l 826 232 b 719 118 826 154 786 118 z "},"ǧ":{"ha":1033,"x_min":0,"x_max":0,"o":"m 471 764 l 575 764 b 614 782 590 764 603 769 l 758 947 b 747 972 768 960 761 972 l 654 972 b 613 947 636 972 628 965 l 531 854 l 517 854 l 435 947 b 394 972 421 965 413 972 l 300 972 b 290 947 286 972 279 960 l 435 782 b 471 764 446 768 456 764 z m 228 -251 l 725 -251 b 964 -15 879 -251 964 -165 l 964 674 b 943 694 964 688 957 694 l 846 694 b 826 674 835 694 826 688 l 826 626 l 814 626 b 635 700 778 674 747 700 l 303 700 b 63 464 147 700 63 614 l 63 229 b 303 -7 63 81 147 -7 l 635 -7 b 814 68 747 -7 778 19 l 826 68 l 826 -8 b 692 -136 826 -97 785 -136 l 228 -136 b 207 -158 214 -136 207 -143 l 207 -231 b 228 -251 207 -244 214 -251 z m 314 118 b 200 232 243 118 200 154 l 200 461 b 314 575 200 539 243 575 l 719 575 b 826 461 786 575 826 539 l 826 232 b 719 118 826 154 786 118 z "},"ģ":{"ha":1047,"x_min":0,"x_max":0,"o":"m 428 793 l 510 793 b 529 814 524 793 529 800 l 529 1036 l 583 1036 b 603 1057 597 1036 603 1043 l 603 1132 b 583 1153 603 1146 597 1153 l 451 1153 b 407 1108 422 1153 407 1138 l 407 814 b 428 793 407 800 414 793 z m 228 -251 l 725 -251 b 964 -15 879 -251 964 -165 l 964 674 b 943 694 964 688 957 694 l 846 694 b 826 674 835 694 826 688 l 826 626 l 814 626 b 635 700 778 674 747 700 l 303 700 b 63 464 147 700 63 614 l 63 229 b 303 -7 63 81 147 -7 l 635 -7 b 814 68 747 -7 778 19 l 826 68 l 826 -8 b 692 -136 826 -97 785 -136 l 228 -136 b 207 -158 214 -136 207 -143 l 207 -231 b 228 -251 207 -244 214 -251 z m 314 118 b 200 232 243 118 200 154 l 200 461 b 314 575 200 539 243 575 l 719 575 b 826 461 786 575 826 539 l 826 232 b 719 118 826 154 786 118 z "},"ġ":{"ha":1033,"x_min":0,"x_max":0,"o":"m 471 828 l 576 828 b 596 847 590 828 596 833 l 596 953 b 576 972 596 967 590 972 l 471 972 b 451 953 457 972 451 967 l 451 847 b 471 828 451 833 457 828 z m 228 -251 l 725 -251 b 964 -15 879 -251 964 -165 l 964 674 b 943 694 964 688 957 694 l 846 694 b 826 674 835 694 826 688 l 826 626 l 814 626 b 635 700 778 674 747 700 l 303 700 b 63 464 147 700 63 614 l 63 229 b 303 -7 63 81 147 -7 l 635 -7 b 814 68 747 -7 778 19 l 826 68 l 826 -8 b 692 -136 826 -97 785 -136 l 228 -136 b 207 -158 214 -136 207 -143 l 207 -231 b 228 -251 207 -244 214 -251 z m 314 118 b 200 232 243 118 200 154 l 200 461 b 314 575 200 539 243 575 l 719 575 b 826 461 786 575 826 539 l 826 232 b 719 118 826 154 786 118 z "},"h":{"ha":1040,"x_min":0,"x_max":0,"o":"m 732 700 l 399 700 b 219 626 286 700 256 674 l 207 626 l 207 951 b 188 972 207 965 201 972 l 90 972 b 69 951 76 972 69 965 l 69 21 b 90 0 69 7 76 0 l 188 0 b 207 21 201 0 207 7 l 207 461 b 324 575 207 539 247 575 l 715 575 b 833 461 792 575 833 539 l 833 21 b 854 0 833 7 840 0 l 950 0 b 971 21 964 0 971 7 l 971 464 b 732 700 971 614 886 700 z "},"ħ":{"ha":1082,"x_min":0,"x_max":0,"o":"m 774 700 l 440 700 b 261 626 328 700 297 674 l 249 626 l 249 756 l 407 756 b 428 776 421 756 428 763 l 428 851 b 407 872 428 865 421 872 l 249 872 l 249 951 b 229 972 249 965 243 972 l 132 972 b 111 951 118 972 111 965 l 111 872 l 63 872 b 42 851 49 872 42 865 l 42 776 b 63 756 42 763 49 756 l 111 756 l 111 21 b 132 0 111 7 118 0 l 229 0 b 249 21 243 0 249 7 l 249 461 b 365 575 249 539 289 575 l 757 575 b 875 461 833 575 875 539 l 875 21 b 896 0 875 7 882 0 l 992 0 b 1013 21 1006 0 1013 7 l 1013 464 b 774 700 1013 614 928 700 z "},"i":{"ha":276,"x_min":0,"x_max":0,"o":"m 69 951 l 69 858 b 90 838 69 844 76 838 l 188 838 b 207 858 201 838 207 844 l 207 951 b 188 972 207 965 201 972 l 90 972 b 69 951 76 972 69 965 z m 69 674 l 69 21 b 90 0 69 7 76 0 l 188 0 b 207 21 201 0 207 7 l 207 674 b 188 694 207 688 201 694 l 90 694 b 69 674 76 694 69 688 z "},"ı":{"ha":276,"x_min":0,"x_max":0,"o":"m 69 674 l 69 21 b 90 0 69 7 76 0 l 188 0 b 207 21 201 0 207 7 l 207 674 b 188 694 207 688 201 694 l 90 694 b 69 674 76 694 69 688 z "},"í":{"ha":276,"x_min":0,"x_max":0,"o":"m 167 947 l 85 788 b 97 763 76 771 82 763 l 181 763 b 215 788 194 763 204 774 l 339 947 b 332 972 351 963 347 972 l 196 972 b 167 947 182 972 175 964 z m 69 674 l 69 21 b 90 0 69 7 76 0 l 188 0 b 207 21 201 0 207 7 l 207 674 b 188 694 207 688 201 694 l 90 694 b 69 674 76 694 69 688 z "},"ǐ":{"ha":276,"x_min":0,"x_max":0,"o":"m 83 764 l 188 764 b 226 782 203 764 215 769 l 371 947 b 360 972 381 960 374 972 l 267 972 b 225 947 249 972 240 965 l 143 854 l 129 854 l 47 947 b 7 972 33 965 25 972 l -87 972 b -97 947 -101 972 -108 960 l 47 782 b 83 764 58 768 68 764 z m 69 674 l 69 21 b 90 0 69 7 76 0 l 188 0 b 207 21 201 0 207 7 l 207 674 b 188 694 207 688 201 694 l 90 694 b 69 674 76 694 69 688 z "},"î":{"ha":276,"x_min":0,"x_max":0,"o":"m 83 972 b 47 953 68 972 58 967 l -97 789 b -87 764 -108 776 -101 764 l 7 764 b 47 788 25 764 33 771 l 129 882 l 143 882 l 225 788 b 267 764 240 771 249 764 l 360 764 b 371 789 374 764 381 776 l 226 953 b 188 972 215 967 203 972 z m 69 674 l 69 21 b 90 0 69 7 76 0 l 188 0 b 207 21 201 0 207 7 l 207 674 b 188 694 207 688 201 694 l 90 694 b 69 674 76 694 69 688 z "},"ï":{"ha":276,"x_min":0,"x_max":0,"o":"m -100 828 l 6 828 b 25 847 19 828 25 833 l 25 953 b 6 972 25 967 19 972 l -100 972 b -119 953 -114 972 -119 967 l -119 847 b -100 828 -119 833 -114 828 z m 240 828 l 346 828 b 365 847 360 828 365 833 l 365 953 b 346 972 365 967 360 972 l 240 972 b 221 953 226 972 221 967 l 221 847 b 240 828 221 833 226 828 z m 69 674 l 69 21 b 90 0 69 7 76 0 l 188 0 b 207 21 201 0 207 7 l 207 674 b 188 694 207 688 201 694 l 90 694 b 69 674 76 694 69 688 z "},"ì":{"ha":276,"x_min":0,"x_max":0,"o":"m 110 947 b 81 972 101 964 94 972 l -50 972 b -64 947 -65 972 -76 963 l 60 786 b 93 763 71 772 79 763 l 176 763 b 190 788 192 763 199 771 z m 69 674 l 69 21 b 90 0 69 7 76 0 l 188 0 b 207 21 201 0 207 7 l 207 674 b 188 694 207 688 201 694 l 90 694 b 69 674 76 694 69 688 z "},"ĳ":{"ha":588,"x_min":0,"x_max":0,"o":"m 69 951 l 69 858 b 90 838 69 844 76 838 l 188 838 b 207 858 201 838 207 844 l 207 951 b 188 972 207 965 201 972 l 90 972 b 69 951 76 972 69 965 z m 400 838 l 497 838 b 518 858 511 838 518 844 l 518 951 b 497 972 518 965 511 972 l 400 972 b 379 951 386 972 379 965 l 379 858 b 400 838 379 844 386 838 z m 69 674 l 69 21 b 90 0 69 7 76 0 l 188 0 b 207 21 201 0 207 7 l 207 674 b 188 694 207 688 201 694 l 90 694 b 69 674 76 694 69 688 z m 281 -251 b 518 -15 433 -251 518 -165 l 518 674 b 497 694 518 688 511 694 l 400 694 b 379 674 386 694 379 688 l 379 -3 b 247 -129 379 -90 338 -129 l 176 -129 b 151 -151 163 -129 151 -135 l 151 -214 b 178 -246 151 -235 161 -243 b 281 -251 206 -249 235 -251 z "},"ī":{"ha":276,"x_min":0,"x_max":0,"o":"m -87 846 l 363 846 b 383 867 375 846 383 853 l 383 951 b 363 972 383 965 375 972 l -87 972 b -108 951 -101 972 -108 965 l -108 867 b -87 846 -108 853 -101 846 z m 69 674 l 69 21 b 90 0 69 7 76 0 l 188 0 b 207 21 201 0 207 7 l 207 674 b 188 694 207 688 201 694 l 90 694 b 69 674 76 694 69 688 z "},"į":{"ha":276,"x_min":0,"x_max":0,"o":"m 189 972 l 83 972 b 64 953 69 972 64 967 l 64 847 b 83 828 64 833 69 828 l 189 828 b 208 847 203 828 208 833 l 208 953 b 189 972 208 967 203 972 z m 188 694 l 90 694 b 69 674 76 694 69 688 l 69 -14 b 22 -51 69 -43 57 -47 l -32 -57 b -137 -167 -112 -65 -137 -79 b -3 -285 -137 -262 -108 -285 l 174 -285 b 188 -271 183 -285 188 -279 l 188 -207 b 174 -192 188 -197 182 -192 l 22 -192 b -12 -165 -6 -192 -12 -185 b 11 -139 -12 -144 -7 -142 l 121 -126 b 207 -44 181 -118 207 -108 l 207 674 b 188 694 207 688 201 694 z "},"j":{"ha":283,"x_min":0,"x_max":0,"o":"m 96 838 l 193 838 b 214 858 207 838 214 844 l 214 951 b 193 972 214 965 207 972 l 96 972 b 75 951 82 972 75 965 l 75 858 b 96 838 75 844 82 838 z m -24 -251 b 214 -15 129 -251 214 -165 l 214 674 b 193 694 214 688 207 694 l 96 694 b 75 674 82 694 75 688 l 75 -3 b -57 -129 75 -90 33 -129 l -128 -129 b -153 -151 -143 -129 -153 -135 l -153 -214 b -126 -246 -153 -235 -143 -243 b -24 -251 -99 -249 -69 -251 z "},"ȷ":{"ha":283,"x_min":0,"x_max":0,"o":"m -24 -251 b 214 -15 129 -251 214 -165 l 214 674 b 193 694 214 688 207 694 l 96 694 b 75 674 82 694 75 688 l 75 -3 b -57 -129 75 -90 33 -129 l -128 -129 b -153 -151 -143 -129 -153 -135 l -153 -214 b -126 -246 -153 -235 -143 -243 b -24 -251 -99 -249 -69 -251 z "},"k":{"ha":1022,"x_min":0,"x_max":0,"o":"m 972 33 l 489 397 l 943 656 b 938 694 967 668 958 694 l 807 694 b 760 681 786 694 774 689 l 207 361 l 207 951 b 188 972 207 965 201 972 l 90 972 b 69 951 76 972 69 965 l 69 21 b 90 0 69 7 76 0 l 188 0 b 207 21 201 0 207 7 l 207 236 l 382 336 l 799 22 b 854 0 815 10 832 0 l 957 0 b 972 33 981 0 988 22 z "},"ķ":{"ha":1022,"x_min":0,"x_max":0,"o":"m 972 33 l 489 397 l 943 656 b 938 694 967 668 958 694 l 807 694 b 760 681 786 694 774 689 l 207 361 l 207 951 b 188 972 207 965 201 972 l 90 972 b 69 951 76 972 69 965 l 69 21 b 90 0 69 7 76 0 l 188 0 b 207 21 201 0 207 7 l 207 236 l 382 336 l 799 22 b 854 0 815 10 832 0 l 957 0 b 972 33 981 0 988 22 z m 514 -83 l 432 -83 b 413 -103 418 -83 413 -89 l 413 -326 l 358 -326 b 339 -346 344 -326 339 -332 l 339 -422 b 358 -443 339 -436 344 -443 l 490 -443 b 535 -399 519 -443 535 -428 l 535 -103 b 514 -83 535 -89 528 -83 z "},"l":{"ha":276,"x_min":0,"x_max":0,"o":"m 69 951 l 69 21 b 90 0 69 7 76 0 l 188 0 b 207 21 201 0 207 7 l 207 951 b 188 972 207 965 201 972 l 90 972 b 69 951 76 972 69 965 z "},"ĺ":{"ha":276,"x_min":0,"x_max":0,"o":"m 168 1225 l 86 1065 b 99 1040 78 1049 83 1040 l 182 1040 b 217 1065 196 1040 206 1051 l 340 1225 b 333 1250 353 1240 349 1250 l 197 1250 b 168 1225 183 1250 176 1242 z m 69 951 l 69 21 b 90 0 69 7 76 0 l 188 0 b 207 21 201 0 207 7 l 207 951 b 188 972 207 965 201 972 l 90 972 b 69 951 76 972 69 965 z "},"ľ":{"ha":397,"x_min":0,"x_max":0,"o":"m 69 951 l 69 21 b 90 0 69 7 76 0 l 188 0 b 207 21 201 0 207 7 l 207 951 b 188 972 207 965 201 972 l 90 972 b 69 951 76 972 69 965 z m 433 972 l 350 972 b 331 953 336 972 331 967 l 331 729 l 278 729 b 258 710 264 729 258 724 l 258 633 b 278 613 258 619 264 613 l 408 613 b 453 657 439 613 453 628 l 453 953 b 433 972 453 967 447 972 z "},"ļ":{"ha":276,"x_min":0,"x_max":0,"o":"m 69 951 l 69 21 b 90 0 69 7 76 0 l 188 0 b 207 21 201 0 207 7 l 207 951 b 188 972 207 965 201 972 l 90 972 b 69 951 76 972 69 965 z m 179 -83 l 97 -83 b 78 -103 83 -83 78 -89 l 78 -326 l 24 -326 b 4 -346 10 -326 4 -332 l 4 -422 b 24 -443 4 -436 10 -443 l 156 -443 b 200 -399 185 -443 200 -428 l 200 -103 b 179 -83 200 -89 193 -83 z "},"ŀ":{"ha":397,"x_min":0,"x_max":0,"o":"m 69 951 l 69 21 b 90 0 69 7 76 0 l 188 0 b 207 21 201 0 207 7 l 207 951 b 188 972 207 965 201 972 l 90 972 b 69 951 76 972 69 965 z m 297 414 l 403 414 b 422 435 417 414 422 421 l 422 539 b 403 560 422 553 417 560 l 297 560 b 278 539 283 560 278 553 l 278 435 b 297 414 278 421 283 414 z "},"ł":{"ha":340,"x_min":0,"x_max":0,"o":"m 329 624 l 254 624 b 240 621 249 624 244 624 l 240 951 b 219 972 240 965 233 972 l 122 972 b 103 951 108 972 103 965 l 103 483 l -1 375 b 13 350 -12 363 -4 350 l 88 350 b 103 354 93 350 97 351 l 103 21 b 122 0 103 7 108 0 l 219 0 b 240 21 233 0 240 7 l 240 492 l 342 599 b 329 624 354 611 346 624 z "},"m":{"ha":1604,"x_min":0,"x_max":0,"o":"m 1296 700 l 1049 700 b 846 613 936 700 882 672 l 831 613 b 632 700 792 669 724 700 l 399 700 b 219 626 286 700 256 674 l 207 626 l 207 674 b 188 694 207 688 199 694 l 90 694 b 69 674 76 694 69 688 l 69 21 b 90 0 69 7 76 0 l 188 0 b 207 21 201 0 207 7 l 207 461 b 324 575 207 539 247 575 l 615 575 b 733 461 692 575 733 539 l 733 21 b 754 0 733 7 740 0 l 851 0 b 871 21 865 0 871 7 l 871 461 b 988 575 871 539 911 575 l 1279 575 b 1397 461 1356 575 1397 539 l 1397 21 b 1418 0 1397 7 1404 0 l 1515 0 b 1535 21 1529 0 1535 7 l 1535 464 b 1296 700 1535 614 1450 700 z "},"ḿ":{"ha":1604,"x_min":0,"x_max":0,"o":"m 763 763 l 846 763 b 881 788 860 763 869 774 l 1004 947 b 997 972 1017 963 1013 972 l 861 972 b 832 947 847 972 840 964 l 750 788 b 763 763 742 771 747 763 z m 1296 700 l 1049 700 b 846 613 936 700 882 672 l 831 613 b 632 700 792 669 724 700 l 399 700 b 219 626 286 700 256 674 l 207 626 l 207 674 b 188 694 207 688 199 694 l 90 694 b 69 674 76 694 69 688 l 69 21 b 90 0 69 7 76 0 l 188 0 b 207 21 201 0 207 7 l 207 461 b 324 575 207 539 247 575 l 615 575 b 733 461 692 575 733 539 l 733 21 b 754 0 733 7 740 0 l 851 0 b 871 21 865 0 871 7 l 871 461 b 988 575 871 539 911 575 l 1279 575 b 1397 461 1356 575 1397 539 l 1397 21 b 1418 0 1397 7 1404 0 l 1515 0 b 1535 21 1529 0 1535 7 l 1535 464 b 1296 700 1535 614 1450 700 z "},"n":{"ha":1040,"x_min":0,"x_max":0,"o":"m 90 0 l 188 0 b 207 21 201 0 207 7 l 207 461 b 324 575 207 539 247 575 l 715 575 b 833 461 792 575 833 539 l 833 21 b 854 0 833 7 840 0 l 950 0 b 971 21 964 0 971 7 l 971 464 b 732 700 971 614 886 700 l 399 700 b 219 626 286 700 256 674 l 207 626 l 207 674 b 188 694 207 688 199 694 l 90 694 b 69 674 76 694 69 688 l 69 21 b 90 0 69 7 76 0 z "},"ń":{"ha":1040,"x_min":0,"x_max":0,"o":"m 550 947 l 468 788 b 481 763 460 771 465 763 l 564 763 b 599 788 578 763 588 774 l 722 947 b 715 972 735 963 731 972 l 579 972 b 550 947 565 972 558 964 z m 90 0 l 188 0 b 207 21 201 0 207 7 l 207 461 b 324 575 207 539 247 575 l 715 575 b 833 461 792 575 833 539 l 833 21 b 854 0 833 7 840 0 l 950 0 b 971 21 964 0 971 7 l 971 464 b 732 700 971 614 886 700 l 399 700 b 219 626 286 700 256 674 l 207 626 l 207 674 b 188 694 207 688 199 694 l 90 694 b 69 674 76 694 69 688 l 69 21 b 90 0 69 7 76 0 z "},"ň":{"ha":1040,"x_min":0,"x_max":0,"o":"m 468 764 l 572 764 b 611 782 588 764 600 769 l 756 947 b 744 972 765 960 758 972 l 651 972 b 610 947 633 972 625 965 l 528 854 l 514 854 l 432 947 b 392 972 418 965 410 972 l 297 972 b 288 947 283 972 276 960 l 432 782 b 468 764 443 768 453 764 z m 90 0 l 188 0 b 207 21 201 0 207 7 l 207 461 b 324 575 207 539 247 575 l 715 575 b 833 461 792 575 833 539 l 833 21 b 854 0 833 7 840 0 l 950 0 b 971 21 964 0 971 7 l 971 464 b 732 700 971 614 886 700 l 399 700 b 219 626 286 700 256 674 l 207 626 l 207 674 b 188 694 207 688 199 694 l 90 694 b 69 674 76 694 69 688 l 69 21 b 90 0 69 7 76 0 z "},"ņ":{"ha":1040,"x_min":0,"x_max":0,"o":"m 90 0 l 188 0 b 207 21 201 0 207 7 l 207 461 b 324 575 207 539 247 575 l 715 575 b 833 461 792 575 833 539 l 833 21 b 854 0 833 7 840 0 l 950 0 b 971 21 964 0 971 7 l 971 464 b 732 700 971 614 886 700 l 399 700 b 219 626 286 700 256 674 l 207 626 l 207 674 b 188 694 207 688 199 694 l 90 694 b 69 674 76 694 69 688 l 69 21 b 90 0 69 7 76 0 z m 561 -83 l 479 -83 b 460 -103 465 -83 460 -89 l 460 -326 l 406 -326 b 386 -346 392 -326 386 -332 l 386 -422 b 406 -443 386 -436 392 -443 l 538 -443 b 582 -399 567 -443 582 -428 l 582 -103 b 561 -83 582 -89 575 -83 z "},"ŋ":{"ha":1040,"x_min":0,"x_max":0,"o":"m 732 700 l 399 700 b 219 626 286 700 256 674 l 207 626 l 207 674 b 188 694 207 688 199 694 l 90 694 b 69 674 76 694 69 688 l 69 21 b 90 0 69 7 76 0 l 188 0 b 207 21 201 0 207 7 l 207 461 b 324 575 207 539 247 575 l 715 575 b 833 461 792 575 833 539 l 833 -29 b 701 -156 833 -117 792 -156 l 631 -156 b 606 -178 615 -156 606 -161 l 606 -240 b 632 -272 606 -261 614 -269 b 733 -278 658 -275 689 -278 b 971 -42 886 -278 971 -192 l 971 464 b 732 700 971 614 886 700 z "},"ñ":{"ha":1040,"x_min":0,"x_max":0,"o":"m 615 799 b 744 842 658 799 699 810 b 756 869 756 850 761 857 l 726 940 b 703 947 722 949 715 954 b 619 919 669 926 650 919 b 425 979 544 919 518 979 b 294 936 381 979 340 968 b 283 908 283 928 278 921 l 313 838 b 338 832 317 829 325 824 b 419 858 369 851 389 858 b 615 799 494 858 521 799 z m 90 0 l 188 0 b 207 21 201 0 207 7 l 207 461 b 324 575 207 539 247 575 l 715 575 b 833 461 792 575 833 539 l 833 21 b 854 0 833 7 840 0 l 950 0 b 971 21 964 0 971 7 l 971 464 b 732 700 971 614 886 700 l 399 700 b 219 626 286 700 256 674 l 207 626 l 207 674 b 188 694 207 688 199 694 l 90 694 b 69 674 76 694 69 688 l 69 21 b 90 0 69 7 76 0 z "},"o":{"ha":1026,"x_min":0,"x_max":0,"o":"m 301 -7 l 725 -7 b 964 228 879 -7 964 79 l 964 464 b 725 700 964 615 879 700 l 301 700 b 63 464 147 700 63 615 l 63 229 b 301 -7 63 79 147 -7 z m 318 118 b 200 232 243 118 200 154 l 200 461 b 318 575 200 539 243 575 l 708 575 b 826 461 785 575 826 539 l 826 232 b 708 118 826 154 785 118 z "},"ó":{"ha":1026,"x_min":0,"x_max":0,"o":"m 535 947 l 453 788 b 465 763 444 771 450 763 l 549 763 b 583 788 563 763 572 774 l 707 947 b 700 972 719 963 715 972 l 564 972 b 535 947 550 972 543 964 z m 301 -7 l 725 -7 b 964 228 879 -7 964 79 l 964 464 b 725 700 964 615 879 700 l 301 700 b 63 464 147 700 63 615 l 63 229 b 301 -7 63 79 147 -7 z m 318 118 b 200 232 243 118 200 154 l 200 461 b 318 575 200 539 243 575 l 708 575 b 826 461 785 575 826 539 l 826 232 b 708 118 826 154 785 118 z "},"ǒ":{"ha":1026,"x_min":0,"x_max":0,"o":"m 453 764 l 557 764 b 596 782 572 764 585 769 l 740 947 b 729 972 750 960 743 972 l 636 972 b 594 947 618 972 610 965 l 513 854 l 499 854 l 417 947 b 376 972 403 965 394 972 l 282 972 b 272 947 268 972 261 960 l 417 782 b 453 764 428 768 438 764 z m 301 -7 l 725 -7 b 964 228 879 -7 964 79 l 964 464 b 725 700 964 615 879 700 l 301 700 b 63 464 147 700 63 615 l 63 229 b 301 -7 63 79 147 -7 z m 318 118 b 200 232 243 118 200 154 l 200 461 b 318 575 200 539 243 575 l 708 575 b 826 461 785 575 826 539 l 826 232 b 708 118 826 154 785 118 z "},"ô":{"ha":1026,"x_min":0,"x_max":0,"o":"m 453 972 b 417 953 438 972 428 967 l 272 789 b 282 764 261 776 268 764 l 376 764 b 417 788 394 764 403 771 l 499 882 l 513 882 l 594 788 b 636 764 610 771 618 764 l 729 764 b 740 789 743 764 750 776 l 596 953 b 557 972 585 967 572 972 z m 301 -7 l 725 -7 b 964 228 879 -7 964 79 l 964 464 b 725 700 964 615 879 700 l 301 700 b 63 464 147 700 63 615 l 63 229 b 301 -7 63 79 147 -7 z m 318 118 b 200 232 243 118 200 154 l 200 461 b 318 575 200 539 243 575 l 708 575 b 826 461 785 575 826 539 l 826 232 b 708 118 826 154 785 118 z "},"ö":{"ha":1026,"x_min":0,"x_max":0,"o":"m 269 828 l 375 828 b 394 847 389 828 394 833 l 394 953 b 375 972 394 967 389 972 l 269 972 b 250 953 256 972 250 967 l 250 847 b 269 828 250 833 256 828 z m 610 828 l 715 828 b 735 847 729 828 735 833 l 735 953 b 715 972 735 967 729 972 l 610 972 b 590 953 596 972 590 967 l 590 847 b 610 828 590 833 596 828 z m 301 -7 l 725 -7 b 964 228 879 -7 964 79 l 964 464 b 725 700 964 615 879 700 l 301 700 b 63 464 147 700 63 615 l 63 229 b 301 -7 63 79 147 -7 z m 318 118 b 200 232 243 118 200 154 l 200 461 b 318 575 200 539 243 575 l 708 575 b 826 461 785 575 826 539 l 826 232 b 708 118 826 154 785 118 z "},"ò":{"ha":1026,"x_min":0,"x_max":0,"o":"m 478 947 b 449 972 469 964 463 972 l 318 972 b 304 947 303 972 292 963 l 428 786 b 461 763 439 772 447 763 l 544 763 b 558 788 560 763 567 771 z m 301 -7 l 725 -7 b 964 228 879 -7 964 79 l 964 464 b 725 700 964 615 879 700 l 301 700 b 63 464 147 700 63 615 l 63 229 b 301 -7 63 79 147 -7 z m 318 118 b 200 232 243 118 200 154 l 200 461 b 318 575 200 539 243 575 l 708 575 b 826 461 785 575 826 539 l 826 232 b 708 118 826 154 785 118 z "},"ő":{"ha":1026,"x_min":0,"x_max":0,"o":"m 414 947 l 332 788 b 344 763 324 771 329 763 l 428 763 b 463 788 442 763 451 774 l 586 947 b 579 972 599 963 594 972 l 443 972 b 414 947 429 972 422 964 z m 649 947 l 568 788 b 579 763 560 771 565 763 l 664 763 b 697 788 678 763 688 774 l 822 947 b 815 972 835 963 829 972 l 679 972 b 649 947 665 972 658 964 z m 301 -7 l 725 -7 b 964 228 879 -7 964 79 l 964 464 b 725 700 964 615 879 700 l 301 700 b 63 464 147 700 63 615 l 63 229 b 301 -7 63 79 147 -7 z m 318 118 b 200 232 243 118 200 154 l 200 461 b 318 575 200 539 243 575 l 708 575 b 826 461 785 575 826 539 l 826 232 b 708 118 826 154 785 118 z "},"ō":{"ha":1026,"x_min":0,"x_max":0,"o":"m 281 846 l 731 846 b 751 867 743 846 751 853 l 751 951 b 731 972 751 965 743 972 l 281 972 b 260 951 267 972 260 965 l 260 867 b 281 846 260 853 267 846 z m 301 -7 l 725 -7 b 964 228 879 -7 964 79 l 964 464 b 725 700 964 615 879 700 l 301 700 b 63 464 147 700 63 615 l 63 229 b 301 -7 63 79 147 -7 z m 318 118 b 200 232 243 118 200 154 l 200 461 b 318 575 200 539 243 575 l 708 575 b 826 461 785 575 826 539 l 826 232 b 708 118 826 154 785 118 z "},"ø":{"ha":1026,"x_min":0,"x_max":0,"o":"m 729 701 l 738 719 b 724 740 743 733 738 740 l 636 740 b 608 719 622 740 614 733 l 600 701 l 301 701 b 63 465 147 701 63 615 l 63 231 b 300 -6 63 81 146 -4 l 292 -24 b 306 -44 286 -37 292 -44 l 392 -44 b 419 -24 406 -44 414 -37 l 428 -6 l 725 -6 b 964 229 879 -6 964 79 l 964 465 b 729 701 964 614 881 700 z m 318 119 b 200 232 243 119 200 156 l 200 463 b 318 576 200 540 243 576 l 547 576 l 353 119 z m 826 232 b 708 119 826 156 785 119 l 481 119 l 676 576 l 708 576 b 826 463 785 576 826 540 z "},"õ":{"ha":1026,"x_min":0,"x_max":0,"o":"m 601 799 b 731 842 644 799 685 810 b 742 869 742 850 747 857 l 713 940 b 689 947 708 949 701 954 b 606 919 656 926 636 919 b 411 979 531 919 504 979 b 281 936 367 979 326 968 b 269 908 269 928 264 921 l 299 838 b 324 832 303 829 311 824 b 406 858 356 851 375 858 b 601 799 481 858 507 799 z m 301 -7 l 725 -7 b 964 228 879 -7 964 79 l 964 464 b 725 700 964 615 879 700 l 301 700 b 63 464 147 700 63 615 l 63 229 b 301 -7 63 79 147 -7 z m 318 118 b 200 232 243 118 200 154 l 200 461 b 318 575 200 539 243 575 l 708 575 b 826 461 785 575 826 539 l 826 232 b 708 118 826 154 785 118 z "},"œ":{"ha":1779,"x_min":0,"x_max":0,"o":"m 1642 296 b 1717 369 1693 296 1717 319 l 1717 464 b 1478 700 1717 614 1633 700 l 1065 700 b 896 646 993 700 935 681 b 725 700 856 681 797 700 l 301 700 b 63 464 147 700 63 615 l 63 229 b 301 -7 63 79 147 -7 l 725 -7 b 896 49 797 -7 856 13 b 1065 -7 936 13 993 -7 l 1443 -7 b 1700 97 1600 -7 1657 28 b 1694 126 1708 110 1710 119 l 1653 147 b 1611 150 1635 156 1625 156 b 1438 117 1551 121 1532 117 l 1082 117 b 964 231 1006 117 964 153 l 964 296 z m 708 118 l 318 118 b 200 232 243 118 200 154 l 200 461 b 318 575 200 539 243 575 l 708 575 b 826 461 785 575 826 539 l 826 232 b 708 118 826 154 785 118 z m 1082 575 l 1461 575 b 1579 461 1538 575 1579 539 l 1579 397 l 964 397 l 964 461 b 1082 575 964 539 1006 575 z "},"p":{"ha":1033,"x_min":0,"x_max":0,"o":"m 188 -246 b 207 -225 199 -246 207 -239 l 207 68 l 219 68 b 399 -7 256 19 286 -7 l 732 -7 b 971 229 886 -7 971 79 l 971 464 b 732 700 971 614 886 700 l 399 700 b 219 626 286 700 256 674 l 207 626 l 207 674 b 188 694 207 688 201 694 l 90 694 b 69 674 76 694 69 688 l 69 -225 b 90 -246 69 -239 76 -246 z m 719 118 l 314 118 b 207 232 247 118 207 154 l 207 461 b 314 575 207 539 247 575 l 719 575 b 833 461 792 575 833 539 l 833 232 b 719 118 833 154 792 118 z "},"þ":{"ha":1033,"x_min":0,"x_max":0,"o":"m 728 700 l 356 700 b 207 624 278 700 233 669 l 207 988 b 186 1008 207 1001 200 1008 l 90 1008 b 69 988 76 1008 69 1001 l 69 -257 b 90 -278 69 -271 76 -278 l 190 -278 b 207 -257 201 -278 207 -269 l 207 75 b 356 -7 233 28 278 -7 l 728 -7 b 971 243 878 -7 971 94 l 971 449 b 728 700 971 599 878 700 z m 833 229 b 726 118 833 154 792 118 l 315 118 b 207 229 249 118 207 154 l 207 464 b 315 575 207 542 249 575 l 726 575 b 833 464 792 575 833 542 z "},"q":{"ha":1033,"x_min":0,"x_max":0,"o":"m 846 -246 l 943 -246 b 964 -225 957 -246 964 -239 l 964 674 b 943 694 964 688 957 694 l 847 694 b 826 674 833 694 826 688 l 826 626 l 814 626 b 635 700 778 674 747 700 l 303 700 b 63 464 147 700 63 614 l 63 229 b 303 -7 63 79 147 -7 l 635 -7 b 814 68 747 -7 778 19 l 826 68 l 826 -225 b 846 -246 826 -239 835 -246 z m 314 118 b 200 232 243 118 200 154 l 200 461 b 314 575 200 539 243 575 l 719 575 b 826 461 786 575 826 539 l 826 232 b 719 118 826 154 786 118 z "},"r":{"ha":1019,"x_min":0,"x_max":0,"o":"m 90 0 l 188 0 b 207 21 201 0 207 7 l 207 461 b 324 575 207 539 247 575 l 700 575 b 817 510 772 575 807 558 b 843 489 819 497 826 489 l 924 489 b 954 524 947 489 954 500 b 731 700 954 642 886 700 l 399 700 b 219 626 286 700 256 674 l 207 626 l 207 674 b 188 694 207 688 199 694 l 90 694 b 69 674 76 694 69 688 l 69 21 b 90 0 69 7 76 0 z "},"ŕ":{"ha":1019,"x_min":0,"x_max":0,"o":"m 546 947 l 464 788 b 476 763 456 771 461 763 l 560 763 b 594 788 574 763 583 774 l 718 947 b 711 972 731 963 726 972 l 575 972 b 546 947 561 972 554 964 z m 90 0 l 188 0 b 207 21 201 0 207 7 l 207 461 b 324 575 207 539 247 575 l 700 575 b 817 510 772 575 807 558 b 843 489 819 497 826 489 l 924 489 b 954 524 947 489 954 500 b 731 700 954 642 886 700 l 399 700 b 219 626 286 700 256 674 l 207 626 l 207 674 b 188 694 207 688 199 694 l 90 694 b 69 674 76 694 69 688 l 69 21 b 90 0 69 7 76 0 z "},"ř":{"ha":1019,"x_min":0,"x_max":0,"o":"m 464 764 l 568 764 b 607 782 583 764 596 769 l 751 947 b 740 972 761 960 754 972 l 647 972 b 606 947 629 972 621 965 l 524 854 l 510 854 l 428 947 b 388 972 414 965 406 972 l 293 972 b 283 947 279 972 272 960 l 428 782 b 464 764 439 768 449 764 z m 90 0 l 188 0 b 207 21 201 0 207 7 l 207 461 b 324 575 207 539 247 575 l 700 575 b 817 510 772 575 807 558 b 843 489 819 497 826 489 l 924 489 b 954 524 947 489 954 500 b 731 700 954 642 886 700 l 399 700 b 219 626 286 700 256 674 l 207 626 l 207 674 b 188 694 207 688 199 694 l 90 694 b 69 674 76 694 69 688 l 69 21 b 90 0 69 7 76 0 z "},"ŗ":{"ha":1019,"x_min":0,"x_max":0,"o":"m 90 0 l 188 0 b 207 21 201 0 207 7 l 207 461 b 324 575 207 539 247 575 l 700 575 b 817 510 772 575 807 558 b 843 489 819 497 826 489 l 924 489 b 954 524 947 489 954 500 b 731 700 954 642 886 700 l 399 700 b 219 626 286 700 256 674 l 207 626 l 207 674 b 188 694 207 688 199 694 l 90 694 b 69 674 76 694 69 688 l 69 21 b 90 0 69 7 76 0 z m 183 -83 l 101 -83 b 82 -103 88 -83 82 -89 l 82 -326 l 28 -326 b 8 -346 14 -326 8 -332 l 8 -422 b 28 -443 8 -436 14 -443 l 160 -443 b 204 -399 189 -443 204 -428 l 204 -103 b 183 -83 204 -89 197 -83 z "},"s":{"ha":1029,"x_min":0,"x_max":0,"o":"m 288 0 l 732 0 b 967 200 874 0 967 57 b 731 394 967 340 883 389 l 300 413 b 201 497 229 417 201 440 b 299 572 201 549 238 572 l 690 572 b 807 507 763 572 797 553 b 838 486 810 494 821 486 l 917 486 b 944 521 940 486 944 497 b 719 694 944 638 875 694 l 297 694 b 64 499 156 694 64 636 b 299 299 64 354 146 306 l 729 281 b 828 200 800 278 828 254 b 731 122 828 144 792 122 l 317 122 b 200 188 244 122 210 142 b 174 208 197 201 190 208 l 93 208 b 63 174 69 208 63 197 b 288 0 63 57 132 0 z "},"ś":{"ha":1029,"x_min":0,"x_max":0,"o":"m 544 947 l 463 788 b 475 763 454 771 460 763 l 558 763 b 593 788 572 763 582 774 l 717 947 b 710 972 729 963 725 972 l 574 972 b 544 947 560 972 553 964 z m 288 0 l 732 0 b 967 200 874 0 967 57 b 731 394 967 340 883 389 l 300 413 b 201 497 229 417 201 440 b 299 572 201 549 238 572 l 690 572 b 807 507 763 572 797 553 b 838 486 810 494 821 486 l 917 486 b 944 521 940 486 944 497 b 719 694 944 638 875 694 l 297 694 b 64 499 156 694 64 636 b 299 299 64 354 146 306 l 729 281 b 828 200 800 278 828 254 b 731 122 828 144 792 122 l 317 122 b 200 188 244 122 210 142 b 174 208 197 201 190 208 l 93 208 b 63 174 69 208 63 197 b 288 0 63 57 132 0 z "},"š":{"ha":1029,"x_min":0,"x_max":0,"o":"m 461 764 l 565 764 b 604 782 581 764 593 769 l 749 947 b 738 972 758 960 751 972 l 644 972 b 603 947 626 972 618 965 l 521 854 l 507 854 l 425 947 b 385 972 411 965 403 972 l 290 972 b 281 947 276 972 269 960 l 425 782 b 461 764 436 768 446 764 z m 288 0 l 732 0 b 967 200 874 0 967 57 b 731 394 967 340 883 389 l 300 413 b 201 497 229 417 201 440 b 299 572 201 549 238 572 l 690 572 b 807 507 763 572 797 553 b 838 486 810 494 821 486 l 917 486 b 944 521 940 486 944 497 b 719 694 944 638 875 694 l 297 694 b 64 499 156 694 64 636 b 299 299 64 354 146 306 l 729 281 b 828 200 800 278 828 254 b 731 122 828 144 792 122 l 317 122 b 200 188 244 122 210 142 b 174 208 197 201 190 208 l 93 208 b 63 174 69 208 63 197 b 288 0 63 57 132 0 z "},"ş":{"ha":1029,"x_min":0,"x_max":0,"o":"m 731 394 l 300 413 b 201 497 229 417 201 440 b 299 572 201 549 238 572 l 690 572 b 807 507 763 572 797 553 b 838 486 810 494 821 486 l 917 486 b 944 521 940 486 944 497 b 719 694 944 638 875 694 l 297 694 b 64 499 156 694 64 636 b 299 299 64 354 146 306 l 729 281 b 828 200 800 278 828 254 b 731 122 828 144 792 122 l 317 122 b 200 188 244 122 210 142 b 174 208 197 201 190 208 l 93 208 b 63 174 69 208 63 197 b 288 0 63 57 132 0 l 474 0 b 415 -82 432 -40 415 -57 b 469 -131 415 -114 440 -128 b 611 -169 582 -142 611 -143 b 560 -199 611 -194 594 -199 l 532 -199 b 482 -168 499 -199 485 -187 b 467 -154 481 -160 475 -154 l 388 -154 b 374 -171 376 -154 374 -161 b 494 -283 374 -240 404 -283 l 589 -283 b 719 -168 679 -283 719 -243 b 588 -57 719 -82 678 -67 b 597 0 553 -53 528 -47 l 732 0 b 967 200 874 0 967 57 b 731 394 967 340 883 389 z "},"ș":{"ha":1029,"x_min":0,"x_max":0,"o":"m 288 0 l 732 0 b 967 200 874 0 967 57 b 731 394 967 340 883 389 l 300 413 b 201 497 229 417 201 440 b 299 572 201 549 238 572 l 690 572 b 807 507 763 572 797 553 b 838 486 810 494 821 486 l 917 486 b 944 521 940 486 944 497 b 719 694 944 638 875 694 l 297 694 b 64 499 156 694 64 636 b 299 299 64 354 146 306 l 729 281 b 828 200 800 278 828 254 b 731 122 828 144 792 122 l 317 122 b 200 188 244 122 210 142 b 174 208 197 201 190 208 l 93 208 b 63 174 69 208 63 197 b 288 0 63 57 132 0 z m 556 -83 l 474 -83 b 454 -103 460 -83 454 -89 l 454 -326 l 400 -326 b 381 -346 386 -326 381 -332 l 381 -422 b 400 -443 381 -436 386 -443 l 532 -443 b 576 -399 561 -443 576 -428 l 576 -103 b 556 -83 576 -89 569 -83 z "},"ß":{"ha":1292,"x_min":0,"x_max":0,"o":"m 1076 529 b 1186 708 1156 551 1186 617 l 1186 769 b 950 990 1186 910 1093 990 l 324 990 b 90 768 175 990 90 910 l 92 21 b 113 0 92 7 99 0 l 210 0 b 231 21 224 0 231 7 l 232 768 b 324 865 232 836 258 865 l 950 865 b 1047 769 1021 865 1047 838 l 1047 701 b 940 588 1047 631 1021 588 l 397 588 b 376 567 383 588 376 581 l 376 483 b 397 463 376 469 383 463 l 940 463 b 1092 331 1035 463 1092 425 l 1092 254 b 943 125 1092 142 1049 125 l 397 125 b 376 104 383 125 376 118 l 376 21 b 397 0 376 7 383 0 l 944 0 b 1229 246 1143 0 1229 67 l 1229 324 b 1076 529 1229 450 1172 506 z "},"t":{"ha":781,"x_min":0,"x_max":0,"o":"m 418 0 l 697 0 b 718 21 708 0 718 7 l 718 104 b 696 125 718 118 711 125 l 431 125 b 317 239 358 125 317 161 l 317 569 l 697 569 b 718 590 708 569 718 576 l 718 674 b 696 694 718 688 711 694 l 317 694 l 317 782 b 296 803 317 796 310 803 l 199 803 b 179 782 185 803 179 796 l 179 694 l 63 694 b 42 672 49 694 42 688 l 42 590 b 63 569 42 576 49 569 l 179 569 l 179 236 b 418 0 179 88 264 0 z "},"ŧ":{"ha":788,"x_min":0,"x_max":0,"o":"m 704 453 l 317 453 l 317 569 l 697 569 b 718 590 708 569 718 576 l 718 674 b 696 694 718 688 711 694 l 317 694 l 317 782 b 296 803 317 796 310 803 l 199 803 b 179 782 185 803 179 796 l 179 694 l 63 694 b 42 672 49 694 42 688 l 42 590 b 63 569 42 576 49 569 l 179 569 l 179 453 l 69 453 b 49 432 56 453 49 446 l 49 349 b 69 328 49 335 56 328 l 179 328 l 179 236 b 418 0 179 88 264 0 l 697 0 b 718 21 708 0 718 7 l 718 104 b 696 125 718 118 711 125 l 431 125 b 317 239 358 125 317 161 l 317 328 l 704 328 b 725 349 717 328 725 335 l 725 432 b 704 453 725 446 717 453 z "},"ť":{"ha":781,"x_min":0,"x_max":0,"o":"m 546 1106 l 464 1106 b 443 1086 450 1106 443 1100 l 443 863 l 390 863 b 371 843 376 863 371 857 l 371 767 b 390 747 371 753 376 747 l 522 747 b 565 790 551 747 565 761 l 565 1086 b 546 1106 565 1100 560 1106 z m 418 0 l 697 0 b 718 21 708 0 718 7 l 718 104 b 696 125 718 118 711 125 l 431 125 b 317 239 358 125 317 161 l 317 569 l 697 569 b 718 590 708 569 718 576 l 718 674 b 696 694 718 688 711 694 l 317 694 l 317 782 b 296 803 317 796 310 803 l 199 803 b 179 782 185 803 179 796 l 179 694 l 63 694 b 42 672 49 694 42 688 l 42 590 b 63 569 42 576 49 569 l 179 569 l 179 236 b 418 0 179 88 264 0 z "},"ţ":{"ha":783,"x_min":0,"x_max":0,"o":"m 697 569 b 718 590 708 569 718 576 l 718 674 b 696 694 718 688 711 694 l 317 694 l 317 782 b 296 803 317 796 310 803 l 199 803 b 179 782 185 803 179 796 l 179 694 l 63 694 b 42 672 49 694 42 688 l 42 590 b 63 569 42 576 49 569 l 179 569 l 179 236 b 418 0 179 88 264 0 l 449 0 b 390 -82 407 -40 390 -57 b 444 -131 390 -114 415 -128 b 586 -169 557 -142 586 -143 b 535 -199 586 -194 569 -199 l 507 -199 b 457 -168 474 -199 460 -187 b 442 -154 456 -160 450 -154 l 363 -154 b 349 -171 351 -154 349 -161 b 469 -283 349 -240 379 -283 l 564 -283 b 694 -168 654 -283 694 -243 b 563 -57 694 -82 653 -67 b 572 0 528 -53 503 -47 l 697 0 b 718 21 708 0 718 7 l 718 104 b 696 125 718 118 711 125 l 431 125 b 317 239 358 125 317 161 l 317 569 z "},"ț":{"ha":781,"x_min":0,"x_max":0,"o":"m 418 0 l 697 0 b 718 21 708 0 718 7 l 718 104 b 696 125 718 118 711 125 l 431 125 b 317 239 358 125 317 161 l 317 569 l 697 569 b 718 590 708 569 718 576 l 718 674 b 696 694 718 688 711 694 l 317 694 l 317 782 b 296 803 317 796 310 803 l 199 803 b 179 782 185 803 179 796 l 179 694 l 63 694 b 42 672 49 694 42 688 l 42 590 b 63 569 42 576 49 569 l 179 569 l 179 236 b 418 0 179 88 264 0 z m 490 -83 l 408 -83 b 389 -103 394 -83 389 -89 l 389 -326 l 335 -326 b 315 -346 321 -326 315 -332 l 315 -422 b 335 -443 315 -436 321 -443 l 467 -443 b 511 -399 496 -443 511 -428 l 511 -103 b 490 -83 511 -89 504 -83 z "},"u":{"ha":1040,"x_min":0,"x_max":0,"o":"m 950 694 l 854 694 b 833 674 840 694 833 688 l 833 233 b 717 119 833 156 793 119 l 325 119 b 207 233 250 119 207 156 l 207 674 b 188 694 207 688 201 694 l 90 694 b 69 674 76 694 69 688 l 69 231 b 310 -6 69 81 154 -6 l 642 -6 b 821 69 754 -6 785 21 l 833 69 l 833 21 b 853 0 833 7 842 0 l 950 0 b 971 21 964 0 971 7 l 971 674 b 950 694 971 688 964 694 z "},"ú":{"ha":1040,"x_min":0,"x_max":0,"o":"m 550 947 l 468 788 b 481 763 460 771 465 763 l 564 763 b 599 788 578 763 588 774 l 722 947 b 715 972 735 963 731 972 l 579 972 b 550 947 565 972 558 964 z m 950 694 l 854 694 b 833 674 840 694 833 688 l 833 233 b 717 119 833 156 793 119 l 325 119 b 207 233 250 119 207 156 l 207 674 b 188 694 207 688 201 694 l 90 694 b 69 674 76 694 69 688 l 69 231 b 310 -6 69 81 154 -6 l 642 -6 b 821 69 754 -6 785 21 l 833 69 l 833 21 b 853 0 833 7 842 0 l 950 0 b 971 21 964 0 971 7 l 971 674 b 950 694 971 688 964 694 z "},"ŭ":{"ha":1040,"x_min":0,"x_max":0,"o":"m 483 765 l 557 765 b 739 953 681 765 739 826 b 718 972 739 967 732 972 l 644 972 b 624 953 631 972 625 967 b 540 863 621 903 600 863 l 500 863 b 417 953 440 863 421 903 b 397 972 417 967 411 972 l 322 972 b 303 953 308 972 303 967 b 483 765 303 826 361 765 z m 950 694 l 854 694 b 833 674 840 694 833 688 l 833 233 b 717 119 833 156 793 119 l 325 119 b 207 233 250 119 207 156 l 207 674 b 188 694 207 688 201 694 l 90 694 b 69 674 76 694 69 688 l 69 231 b 310 -6 69 81 154 -6 l 642 -6 b 821 69 754 -6 785 21 l 833 69 l 833 21 b 853 0 833 7 842 0 l 950 0 b 971 21 964 0 971 7 l 971 674 b 950 694 971 688 964 694 z "},"ǔ":{"ha":1040,"x_min":0,"x_max":0,"o":"m 468 764 l 572 764 b 611 782 588 764 600 769 l 756 947 b 744 972 765 960 758 972 l 651 972 b 610 947 633 972 625 965 l 528 854 l 514 854 l 432 947 b 392 972 418 965 410 972 l 297 972 b 288 947 283 972 276 960 l 432 782 b 468 764 443 768 453 764 z m 950 694 l 854 694 b 833 674 840 694 833 688 l 833 233 b 717 119 833 156 793 119 l 325 119 b 207 233 250 119 207 156 l 207 674 b 188 694 207 688 201 694 l 90 694 b 69 674 76 694 69 688 l 69 231 b 310 -6 69 81 154 -6 l 642 -6 b 821 69 754 -6 785 21 l 833 69 l 833 21 b 853 0 833 7 842 0 l 950 0 b 971 21 964 0 971 7 l 971 674 b 950 694 971 688 964 694 z "},"û":{"ha":1040,"x_min":0,"x_max":0,"o":"m 468 972 b 432 953 453 972 443 967 l 288 789 b 297 764 276 776 283 764 l 392 764 b 432 788 410 764 418 771 l 514 882 l 528 882 l 610 788 b 651 764 625 771 633 764 l 744 764 b 756 789 758 764 765 776 l 611 953 b 572 972 600 967 588 972 z m 950 694 l 854 694 b 833 674 840 694 833 688 l 833 233 b 717 119 833 156 793 119 l 325 119 b 207 233 250 119 207 156 l 207 674 b 188 694 207 688 201 694 l 90 694 b 69 674 76 694 69 688 l 69 231 b 310 -6 69 81 154 -6 l 642 -6 b 821 69 754 -6 785 21 l 833 69 l 833 21 b 853 0 833 7 842 0 l 950 0 b 971 21 964 0 971 7 l 971 674 b 950 694 971 688 964 694 z "},"ü":{"ha":1040,"x_min":0,"x_max":0,"o":"m 285 828 l 390 828 b 410 847 404 828 410 833 l 410 953 b 390 972 410 967 404 972 l 285 972 b 265 953 271 972 265 967 l 265 847 b 285 828 265 833 271 828 z m 625 828 l 731 828 b 750 847 744 828 750 833 l 750 953 b 731 972 750 967 744 972 l 625 972 b 606 953 611 972 606 967 l 606 847 b 625 828 606 833 611 828 z m 950 694 l 854 694 b 833 674 840 694 833 688 l 833 233 b 717 119 833 156 793 119 l 325 119 b 207 233 250 119 207 156 l 207 674 b 188 694 207 688 201 694 l 90 694 b 69 674 76 694 69 688 l 69 231 b 310 -6 69 81 154 -6 l 642 -6 b 821 69 754 -6 785 21 l 833 69 l 833 21 b 853 0 833 7 842 0 l 950 0 b 971 21 964 0 971 7 l 971 674 b 950 694 971 688 964 694 z "},"ù":{"ha":1040,"x_min":0,"x_max":0,"o":"m 493 947 b 464 972 485 964 478 972 l 333 972 b 319 947 318 972 307 963 l 443 786 b 476 763 454 772 463 763 l 560 763 b 574 788 575 763 582 771 z m 950 694 l 854 694 b 833 674 840 694 833 688 l 833 233 b 717 119 833 156 793 119 l 325 119 b 207 233 250 119 207 156 l 207 674 b 188 694 207 688 201 694 l 90 694 b 69 674 76 694 69 688 l 69 231 b 310 -6 69 81 154 -6 l 642 -6 b 821 69 754 -6 785 21 l 833 69 l 833 21 b 853 0 833 7 842 0 l 950 0 b 971 21 964 0 971 7 l 971 674 b 950 694 971 688 964 694 z "},"ű":{"ha":1040,"x_min":0,"x_max":0,"o":"m 429 947 l 347 788 b 360 763 339 771 344 763 l 443 763 b 478 788 457 763 467 774 l 601 947 b 594 972 614 963 610 972 l 458 972 b 429 947 444 972 438 964 z m 664 947 l 583 788 b 594 763 575 771 581 763 l 679 763 b 713 788 693 763 703 774 l 838 947 b 831 972 850 963 844 972 l 694 972 b 664 947 681 972 674 964 z m 950 694 l 854 694 b 833 674 840 694 833 688 l 833 233 b 717 119 833 156 793 119 l 325 119 b 207 233 250 119 207 156 l 207 674 b 188 694 207 688 201 694 l 90 694 b 69 674 76 694 69 688 l 69 231 b 310 -6 69 81 154 -6 l 642 -6 b 821 69 754 -6 785 21 l 833 69 l 833 21 b 853 0 833 7 842 0 l 950 0 b 971 21 964 0 971 7 l 971 674 b 950 694 971 688 964 694 z "},"ū":{"ha":1040,"x_min":0,"x_max":0,"o":"m 296 846 l 746 846 b 767 867 758 846 767 853 l 767 951 b 746 972 767 965 758 972 l 296 972 b 275 951 282 972 275 965 l 275 867 b 296 846 275 853 282 846 z m 950 694 l 854 694 b 833 674 840 694 833 688 l 833 233 b 717 119 833 156 793 119 l 325 119 b 207 233 250 119 207 156 l 207 674 b 188 694 207 688 201 694 l 90 694 b 69 674 76 694 69 688 l 69 231 b 310 -6 69 81 154 -6 l 642 -6 b 821 69 754 -6 785 21 l 833 69 l 833 21 b 853 0 833 7 842 0 l 950 0 b 971 21 964 0 971 7 l 971 674 b 950 694 971 688 964 694 z "},"ų":{"ha":1040,"x_min":0,"x_max":0,"o":"m 950 694 l 854 694 b 833 674 840 694 833 688 l 833 233 b 717 119 833 156 793 119 l 325 119 b 207 233 250 119 207 156 l 207 674 b 188 694 207 688 201 694 l 90 694 b 69 674 76 694 69 688 l 69 231 b 310 -6 69 81 154 -6 l 490 -6 b 415 -42 485 -31 464 -36 b 293 -151 339 -51 293 -60 b 426 -261 293 -239 338 -261 l 593 -261 b 607 -247 603 -261 607 -256 l 607 -185 b 593 -168 607 -175 601 -168 l 432 -168 b 394 -149 404 -168 394 -165 b 417 -126 394 -132 400 -128 l 531 -112 b 631 -6 590 -106 625 -82 l 642 -6 b 821 69 754 -6 785 21 l 833 69 l 833 21 b 853 0 833 7 842 0 l 950 0 b 971 21 964 0 971 7 l 971 674 b 950 694 971 688 964 694 z "},"ů":{"ha":1040,"x_min":0,"x_max":0,"o":"m 529 994 l 511 994 b 394 878 443 994 394 943 l 394 863 b 511 747 394 797 443 747 l 529 747 b 646 863 597 747 646 797 l 646 878 b 529 994 646 943 597 994 z m 567 876 l 567 867 b 526 826 567 843 551 826 l 514 826 b 475 867 490 826 475 843 l 475 876 b 514 915 475 900 490 915 l 526 915 b 567 876 551 915 567 900 z m 950 694 l 854 694 b 833 674 840 694 833 688 l 833 233 b 717 119 833 156 793 119 l 325 119 b 207 233 250 119 207 156 l 207 674 b 188 694 207 688 201 694 l 90 694 b 69 674 76 694 69 688 l 69 231 b 310 -6 69 81 154 -6 l 642 -6 b 821 69 754 -6 785 21 l 833 69 l 833 21 b 853 0 833 7 842 0 l 950 0 b 971 21 964 0 971 7 l 971 674 b 950 694 971 688 964 694 z "},"ũ":{"ha":1040,"x_min":0,"x_max":0,"o":"m 615 799 b 744 842 658 799 699 810 b 756 869 756 850 761 857 l 726 940 b 703 947 722 949 715 954 b 619 919 669 926 650 919 b 425 979 544 919 518 979 b 294 936 381 979 340 968 b 283 908 283 928 278 921 l 313 838 b 338 832 317 829 325 824 b 419 858 369 851 389 858 b 615 799 494 858 521 799 z m 950 694 l 854 694 b 833 674 840 694 833 688 l 833 233 b 717 119 833 156 793 119 l 325 119 b 207 233 250 119 207 156 l 207 674 b 188 694 207 688 201 694 l 90 694 b 69 674 76 694 69 688 l 69 231 b 310 -6 69 81 154 -6 l 642 -6 b 821 69 754 -6 785 21 l 833 69 l 833 21 b 853 0 833 7 842 0 l 950 0 b 971 21 964 0 971 7 l 971 674 b 950 694 971 688 964 694 z "},"v":{"ha":1104,"x_min":0,"x_max":0,"o":"m 51 671 l 471 26 b 503 0 482 8 488 0 l 601 0 b 633 26 617 0 622 8 l 1053 671 b 1038 694 1063 686 1051 694 l 924 694 b 890 671 908 694 901 686 l 560 163 l 544 163 l 214 671 b 181 694 203 686 196 694 l 67 694 b 51 671 53 694 42 686 z "},"w":{"ha":1808,"x_min":0,"x_max":0,"o":"m 1742 694 l 1629 694 b 1597 671 1615 694 1607 686 l 1304 165 l 1288 165 l 993 671 b 960 694 983 686 975 694 l 849 694 b 817 671 836 694 826 688 l 521 165 l 506 165 l 213 671 b 179 694 203 686 194 694 l 67 694 b 51 671 53 694 43 686 l 431 26 b 463 0 440 8 447 0 l 561 0 b 594 26 576 0 583 8 l 906 551 l 1215 26 b 1247 0 1226 8 1232 0 l 1347 0 b 1379 26 1363 0 1368 8 l 1757 671 b 1742 694 1765 686 1756 694 z "},"ẃ":{"ha":1808,"x_min":0,"x_max":0,"o":"m 935 947 l 853 788 b 865 763 844 771 850 763 l 949 763 b 983 788 963 763 972 774 l 1107 947 b 1100 972 1119 963 1115 972 l 964 972 b 935 947 950 972 943 964 z m 1742 694 l 1629 694 b 1597 671 1615 694 1607 686 l 1304 165 l 1288 165 l 993 671 b 960 694 983 686 975 694 l 849 694 b 817 671 836 694 826 688 l 521 165 l 506 165 l 213 671 b 179 694 203 686 194 694 l 67 694 b 51 671 53 694 43 686 l 431 26 b 463 0 440 8 447 0 l 561 0 b 594 26 576 0 583 8 l 906 551 l 1215 26 b 1247 0 1226 8 1232 0 l 1347 0 b 1379 26 1363 0 1368 8 l 1757 671 b 1742 694 1765 686 1756 694 z "},"ŵ":{"ha":1808,"x_min":0,"x_max":0,"o":"m 851 972 b 815 953 836 972 826 967 l 671 789 b 681 764 660 776 667 764 l 775 764 b 815 788 793 764 801 771 l 897 882 l 911 882 l 993 788 b 1035 764 1008 771 1017 764 l 1128 764 b 1139 789 1142 764 1149 776 l 994 953 b 956 972 983 967 971 972 z m 1742 694 l 1629 694 b 1597 671 1615 694 1607 686 l 1304 165 l 1288 165 l 993 671 b 960 694 983 686 975 694 l 849 694 b 817 671 836 694 826 688 l 521 165 l 506 165 l 213 671 b 179 694 203 686 194 694 l 67 694 b 51 671 53 694 43 686 l 431 26 b 463 0 440 8 447 0 l 561 0 b 594 26 576 0 583 8 l 906 551 l 1215 26 b 1247 0 1226 8 1232 0 l 1347 0 b 1379 26 1363 0 1368 8 l 1757 671 b 1742 694 1765 686 1756 694 z "},"ẅ":{"ha":1808,"x_min":0,"x_max":0,"o":"m 668 828 l 774 828 b 793 847 788 828 793 833 l 793 953 b 774 972 793 967 788 972 l 668 972 b 649 953 654 972 649 967 l 649 847 b 668 828 649 833 654 828 z m 1008 828 l 1114 828 b 1133 847 1128 828 1133 833 l 1133 953 b 1114 972 1133 967 1128 972 l 1008 972 b 989 953 994 972 989 967 l 989 847 b 1008 828 989 833 994 828 z m 1742 694 l 1629 694 b 1597 671 1615 694 1607 686 l 1304 165 l 1288 165 l 993 671 b 960 694 983 686 975 694 l 849 694 b 817 671 836 694 826 688 l 521 165 l 506 165 l 213 671 b 179 694 203 686 194 694 l 67 694 b 51 671 53 694 43 686 l 431 26 b 463 0 440 8 447 0 l 561 0 b 594 26 576 0 583 8 l 906 551 l 1215 26 b 1247 0 1226 8 1232 0 l 1347 0 b 1379 26 1363 0 1368 8 l 1757 671 b 1742 694 1765 686 1756 694 z "},"ẁ":{"ha":1808,"x_min":0,"x_max":0,"o":"m 878 947 b 849 972 869 964 863 972 l 718 972 b 704 947 703 972 692 963 l 828 786 b 861 763 839 772 847 763 l 944 763 b 958 788 960 763 967 771 z m 1742 694 l 1629 694 b 1597 671 1615 694 1607 686 l 1304 165 l 1288 165 l 993 671 b 960 694 983 686 975 694 l 849 694 b 817 671 836 694 826 688 l 521 165 l 506 165 l 213 671 b 179 694 203 686 194 694 l 67 694 b 51 671 53 694 43 686 l 431 26 b 463 0 440 8 447 0 l 561 0 b 594 26 576 0 583 8 l 906 551 l 1215 26 b 1247 0 1226 8 1232 0 l 1347 0 b 1379 26 1363 0 1368 8 l 1757 671 b 1742 694 1765 686 1756 694 z "},"x":{"ha":999,"x_min":0,"x_max":0,"o":"m 942 26 l 592 347 l 942 668 b 932 694 957 681 949 694 l 804 694 b 760 669 793 694 781 689 l 499 432 l 239 669 b 194 694 218 689 206 694 l 67 694 b 56 668 50 694 42 681 l 407 347 l 56 26 b 68 0 40 13 51 0 l 196 0 b 240 25 207 0 219 6 l 499 263 l 758 25 b 803 0 779 6 792 0 l 931 0 b 942 26 947 0 957 13 z "},"y":{"ha":1104,"x_min":0,"x_max":0,"o":"m 1038 694 l 924 694 b 890 671 908 694 901 686 l 560 163 l 544 163 l 214 671 b 181 694 203 686 196 694 l 67 694 b 51 671 53 694 42 686 l 471 26 l 306 -228 b 321 -251 296 -243 307 -251 l 435 -251 b 467 -228 449 -251 457 -243 l 624 13 l 633 26 l 1053 671 b 1038 694 1063 686 1051 694 z "},"ý":{"ha":1104,"x_min":0,"x_max":0,"o":"m 513 763 l 596 763 b 631 788 610 763 619 774 l 754 947 b 747 972 767 963 763 972 l 611 972 b 582 947 597 972 590 964 l 500 788 b 513 763 492 771 497 763 z m 1038 694 l 924 694 b 890 671 908 694 901 686 l 560 163 l 544 163 l 214 671 b 181 694 203 686 196 694 l 67 694 b 51 671 53 694 42 686 l 471 26 l 306 -228 b 321 -251 296 -243 307 -251 l 435 -251 b 467 -228 449 -251 457 -243 l 624 13 l 633 26 l 1053 671 b 1038 694 1063 686 1051 694 z "},"ŷ":{"ha":1104,"x_min":0,"x_max":0,"o":"m 328 764 l 422 764 b 463 788 440 764 449 771 l 544 882 l 558 882 l 640 788 b 682 764 656 771 664 764 l 775 764 b 786 789 789 764 796 776 l 642 953 b 603 972 631 967 618 972 l 499 972 b 463 953 483 972 474 967 l 318 789 b 328 764 307 776 314 764 z m 1038 694 l 924 694 b 890 671 908 694 901 686 l 560 163 l 544 163 l 214 671 b 181 694 203 686 196 694 l 67 694 b 51 671 53 694 42 686 l 471 26 l 306 -228 b 321 -251 296 -243 307 -251 l 435 -251 b 467 -228 449 -251 457 -243 l 624 13 l 633 26 l 1053 671 b 1038 694 1063 686 1051 694 z "},"ÿ":{"ha":1104,"x_min":0,"x_max":0,"o":"m 315 828 l 421 828 b 440 847 435 828 440 833 l 440 953 b 421 972 440 967 435 972 l 315 972 b 296 953 301 972 296 967 l 296 847 b 315 828 296 833 301 828 z m 656 828 l 761 828 b 781 847 775 828 781 833 l 781 953 b 761 972 781 967 775 972 l 656 972 b 636 953 642 972 636 967 l 636 847 b 656 828 636 833 642 828 z m 1038 694 l 924 694 b 890 671 908 694 901 686 l 560 163 l 544 163 l 214 671 b 181 694 203 686 196 694 l 67 694 b 51 671 53 694 42 686 l 471 26 l 306 -228 b 321 -251 296 -243 307 -251 l 435 -251 b 467 -228 449 -251 457 -243 l 624 13 l 633 26 l 1053 671 b 1038 694 1063 686 1051 694 z "},"ỳ":{"ha":1104,"x_min":0,"x_max":0,"o":"m 475 786 b 508 763 486 772 494 763 l 592 763 b 606 788 607 763 614 771 l 525 947 b 496 972 517 964 510 972 l 365 972 b 351 947 350 972 339 963 z m 1038 694 l 924 694 b 890 671 908 694 901 686 l 560 163 l 544 163 l 214 671 b 181 694 203 686 196 694 l 67 694 b 51 671 53 694 42 686 l 471 26 l 306 -228 b 321 -251 296 -243 307 -251 l 435 -251 b 467 -228 449 -251 457 -243 l 624 13 l 633 26 l 1053 671 b 1038 694 1063 686 1051 694 z "},"z":{"ha":964,"x_min":0,"x_max":0,"o":"m 908 575 l 908 674 b 886 694 908 688 901 694 l 81 694 b 61 672 67 694 61 688 l 61 588 b 81 567 61 574 67 567 l 683 567 l 683 556 l 68 147 b 56 119 58 140 56 132 l 56 21 b 76 0 56 7 63 0 l 888 0 b 908 21 901 0 908 7 l 908 107 b 886 128 908 121 901 128 l 279 128 l 279 140 l 894 547 b 908 575 904 554 908 563 z "},"ź":{"ha":964,"x_min":0,"x_max":0,"o":"m 519 947 l 438 788 b 450 763 429 771 435 763 l 533 763 b 568 788 547 763 557 774 l 692 947 b 685 972 704 963 700 972 l 549 972 b 519 947 535 972 528 964 z m 908 575 l 908 674 b 886 694 908 688 901 694 l 81 694 b 61 672 67 694 61 688 l 61 588 b 81 567 61 574 67 567 l 683 567 l 683 556 l 68 147 b 56 119 58 140 56 132 l 56 21 b 76 0 56 7 63 0 l 888 0 b 908 21 901 0 908 7 l 908 107 b 886 128 908 121 901 128 l 279 128 l 279 140 l 894 547 b 908 575 904 554 908 563 z "},"ž":{"ha":964,"x_min":0,"x_max":0,"o":"m 436 764 l 540 764 b 579 782 556 764 568 769 l 724 947 b 713 972 733 960 726 972 l 619 972 b 578 947 601 972 593 965 l 496 854 l 482 854 l 400 947 b 360 972 386 965 378 972 l 265 972 b 256 947 251 972 244 960 l 400 782 b 436 764 411 768 421 764 z m 908 575 l 908 674 b 886 694 908 688 901 694 l 81 694 b 61 672 67 694 61 688 l 61 588 b 81 567 61 574 67 567 l 683 567 l 683 556 l 68 147 b 56 119 58 140 56 132 l 56 21 b 76 0 56 7 63 0 l 888 0 b 908 21 901 0 908 7 l 908 107 b 886 128 908 121 901 128 l 279 128 l 279 140 l 894 547 b 908 575 904 554 908 563 z "},"ż":{"ha":964,"x_min":0,"x_max":0,"o":"m 436 828 l 542 828 b 561 847 556 828 561 833 l 561 953 b 542 972 561 967 556 972 l 436 972 b 417 953 422 972 417 967 l 417 847 b 436 828 417 833 422 828 z m 908 575 l 908 674 b 886 694 908 688 901 694 l 81 694 b 61 672 67 694 61 688 l 61 588 b 81 567 61 574 67 567 l 683 567 l 683 556 l 68 147 b 56 119 58 140 56 132 l 56 21 b 76 0 56 7 63 0 l 888 0 b 908 21 901 0 908 7 l 908 107 b 886 128 908 121 901 128 l 279 128 l 279 140 l 894 547 b 908 575 904 554 908 563 z "},"ﬁ":{"ha":1110,"x_min":0,"x_max":0,"o":"m 1019 694 l 286 694 l 286 733 b 400 847 286 811 328 847 l 775 847 b 796 868 789 847 796 854 l 796 951 b 775 972 796 965 789 972 l 388 972 b 149 736 233 972 149 886 l 149 694 l 76 694 b 56 674 63 694 56 688 l 56 590 b 76 569 56 576 63 569 l 149 569 l 149 21 b 169 0 149 7 156 0 l 265 0 b 286 21 279 0 286 7 l 286 569 l 903 569 l 903 21 b 922 0 903 7 908 0 l 1019 0 b 1040 21 1033 0 1040 7 l 1040 674 b 1019 694 1040 688 1033 694 z m 1019 972 l 922 972 b 903 951 908 972 903 965 l 903 858 b 922 838 903 844 908 838 l 1019 838 b 1040 858 1033 838 1040 844 l 1040 951 b 1019 972 1040 965 1033 972 z "},"ﬂ":{"ha":1110,"x_min":0,"x_max":0,"o":"m 1019 972 l 388 972 b 149 736 233 972 149 886 l 149 694 l 76 694 b 56 674 63 694 56 688 l 56 590 b 76 569 56 576 63 569 l 149 569 l 149 21 b 169 0 149 7 156 0 l 265 0 b 286 21 279 0 286 7 l 286 569 l 761 569 b 782 590 775 569 782 576 l 782 674 b 761 694 782 688 775 694 l 286 694 l 286 733 b 400 847 286 811 328 847 l 901 847 l 901 21 b 922 0 901 7 908 0 l 1019 0 b 1040 21 1033 0 1040 7 l 1040 951 b 1019 972 1040 965 1033 972 z "},"ª":{"ha":446,"x_min":0,"x_max":0,"o":"m 251 979 l 225 979 b 100 947 174 979 135 967 b 94 926 93 943 92 935 l 110 892 b 131 886 114 882 122 883 b 217 903 157 897 185 903 l 239 903 b 300 842 278 903 300 888 l 190 842 b 69 732 108 842 69 804 b 190 624 69 657 117 624 l 208 624 b 300 663 243 624 274 640 l 300 639 b 314 624 300 628 304 624 l 361 624 b 376 639 371 624 376 628 l 376 840 b 251 979 376 928 329 979 z m 219 699 l 197 699 b 149 733 165 699 149 708 b 197 767 149 757 165 767 l 300 767 l 300 719 b 219 699 281 708 257 699 z "},"º":{"ha":471,"x_min":0,"x_max":0,"o":"m 258 979 l 211 979 b 69 833 128 979 69 917 l 69 771 b 211 624 69 685 128 624 l 258 624 b 401 771 342 624 401 685 l 401 833 b 258 979 401 917 342 979 z m 324 829 l 324 775 b 257 703 324 735 293 703 l 214 703 b 147 775 174 703 147 735 l 147 829 b 214 900 147 871 174 900 l 257 900 b 324 829 293 900 324 871 z "},"А":{"ha":1501,"x_min":0,"x_max":0,"o":"m 1442 25 l 839 950 b 810 972 831 964 824 972 l 692 972 b 663 950 678 972 671 964 l 60 25 b 72 0 49 8 58 0 l 194 0 b 224 24 208 0 214 8 l 322 175 l 1179 175 l 1278 24 b 1307 0 1288 8 1293 0 l 1429 0 b 1442 25 1443 0 1453 8 z m 404 300 l 743 821 l 758 821 l 1097 300 z "},"Б":{"ha":1325,"x_min":0,"x_max":0,"o":"m 997 675 l 233 675 l 233 849 l 774 849 b 794 864 788 849 794 856 l 794 951 b 774 972 794 965 788 972 l 111 972 b 90 951 97 972 90 965 l 90 21 b 111 0 90 7 97 0 l 997 0 b 1249 250 1169 0 1249 88 l 1249 425 b 997 675 1249 588 1169 675 z m 1106 264 b 968 128 1106 167 1064 128 l 233 128 l 233 547 l 968 547 b 1106 413 1064 547 1106 508 z "},"В":{"ha":1356,"x_min":0,"x_max":0,"o":"m 1154 499 l 1154 514 b 1244 699 1219 549 1244 611 l 1244 726 b 993 972 1244 897 1165 972 l 111 972 b 90 951 97 972 90 965 l 90 21 b 111 0 90 7 97 0 l 994 0 b 1279 258 1183 0 1279 79 l 1279 304 b 1154 499 1279 406 1238 468 z m 1103 714 l 1103 686 b 976 557 1103 585 1058 557 l 233 557 l 233 844 l 976 844 b 1103 714 1058 844 1103 821 z m 1138 261 b 986 128 1138 154 1086 128 l 233 128 l 233 440 l 986 440 b 1138 303 1086 440 1138 411 z "},"Г":{"ha":1267,"x_min":0,"x_max":0,"o":"m 1183 972 l 111 972 b 90 951 97 972 90 965 l 90 21 b 111 0 90 7 97 0 l 211 0 b 232 21 225 0 232 7 l 232 844 l 1183 844 b 1204 864 1197 844 1204 850 l 1204 951 b 1183 972 1204 965 1197 972 z "},"Ѓ":{"ha":1267,"x_min":0,"x_max":0,"o":"m 601 1040 l 685 1040 b 719 1065 699 1040 708 1051 l 843 1225 b 836 1250 856 1240 851 1250 l 700 1250 b 671 1225 686 1250 679 1242 l 589 1065 b 601 1040 581 1049 586 1040 z m 1183 972 l 111 972 b 90 951 97 972 90 965 l 90 21 b 111 0 90 7 97 0 l 211 0 b 232 21 225 0 232 7 l 232 844 l 1183 844 b 1204 864 1197 844 1204 850 l 1204 951 b 1183 972 1204 965 1197 972 z "},"Ґ":{"ha":1267,"x_min":0,"x_max":0,"o":"m 1183 1051 l 1083 1051 b 1063 1031 1069 1051 1063 1044 l 1063 972 l 111 972 b 90 951 97 972 90 965 l 90 21 b 111 0 90 7 97 0 l 211 0 b 232 21 225 0 232 7 l 232 844 l 1183 844 b 1204 864 1197 844 1204 850 l 1204 1031 b 1183 1051 1204 1044 1197 1051 z "},"Д":{"ha":1474,"x_min":0,"x_max":0,"o":"m 1425 128 l 1365 128 l 1365 951 b 1344 972 1365 965 1358 972 l 210 972 b 189 951 196 972 189 965 l 189 413 b 76 128 189 206 132 128 l 49 128 b 28 107 35 128 28 121 l 28 -115 b 47 -135 28 -129 33 -135 l 150 -135 b 169 -115 164 -135 169 -129 l 169 0 l 1304 0 l 1304 -115 b 1324 -135 1304 -129 1310 -135 l 1426 -135 b 1446 -115 1440 -135 1446 -129 l 1446 107 b 1425 128 1446 121 1439 128 z m 265 128 b 331 413 310 181 331 269 l 331 844 l 1224 844 l 1224 128 z "},"Е":{"ha":1294,"x_min":0,"x_max":0,"o":"m 1197 128 l 233 128 l 233 422 l 1176 422 b 1197 443 1190 422 1197 429 l 1197 529 b 1176 550 1197 543 1190 550 l 233 550 l 233 844 l 1190 844 b 1211 865 1204 844 1211 851 l 1211 951 b 1190 972 1211 965 1204 972 l 111 972 b 90 951 97 972 90 965 l 90 21 b 111 0 90 7 97 0 l 1197 0 b 1218 21 1211 0 1218 7 l 1218 107 b 1197 128 1218 121 1211 128 z "},"Ё":{"ha":1294,"x_min":0,"x_max":0,"o":"m 425 1106 l 531 1106 b 550 1125 544 1106 550 1111 l 550 1231 b 531 1250 550 1244 544 1250 l 425 1250 b 406 1231 411 1250 406 1244 l 406 1125 b 425 1106 406 1111 411 1106 z m 765 1106 l 871 1106 b 890 1125 885 1106 890 1111 l 890 1231 b 871 1250 890 1244 885 1250 l 765 1250 b 746 1231 751 1250 746 1244 l 746 1125 b 765 1106 746 1111 751 1106 z m 1197 128 l 233 128 l 233 422 l 1176 422 b 1197 443 1190 422 1197 429 l 1197 529 b 1176 550 1197 543 1190 550 l 233 550 l 233 844 l 1190 844 b 1211 865 1204 844 1211 851 l 1211 951 b 1190 972 1211 965 1204 972 l 111 972 b 90 951 97 972 90 965 l 90 21 b 111 0 90 7 97 0 l 1197 0 b 1218 21 1211 0 1218 7 l 1218 107 b 1197 128 1218 121 1211 128 z "},"Ж":{"ha":2403,"x_min":0,"x_max":0,"o":"m 2347 32 l 1688 558 l 2311 940 b 2306 972 2331 951 2322 972 l 2160 972 b 2107 953 2139 972 2122 963 l 1274 449 l 1274 951 b 1254 972 1274 965 1268 972 l 1150 972 b 1129 951 1136 972 1129 965 l 1129 449 l 297 953 b 244 972 281 963 265 972 l 97 972 b 92 940 82 972 74 951 l 715 557 l 56 32 b 67 0 43 21 46 0 l 199 0 b 246 21 217 0 229 8 l 831 488 l 1129 304 l 1129 21 b 1150 0 1129 7 1136 0 l 1254 0 b 1274 21 1268 0 1274 7 l 1274 304 l 1574 488 l 2158 21 b 2204 0 2174 8 2186 0 l 2338 0 b 2347 32 2357 0 2360 21 z "},"З":{"ha":1304,"x_min":0,"x_max":0,"o":"m 1071 496 l 1071 508 b 1224 715 1172 535 1224 581 b 946 979 1224 874 1143 979 l 364 979 b 74 724 174 979 74 899 l 74 699 b 93 679 74 686 79 679 l 192 679 b 211 699 206 679 211 686 b 365 854 211 814 265 854 l 940 854 b 1085 715 1038 854 1085 808 b 921 564 1085 619 1050 564 l 328 564 b 307 543 314 564 307 558 l 307 461 b 328 440 307 447 314 440 l 921 440 b 1104 261 1050 440 1104 388 b 957 118 1104 168 1056 118 l 354 118 b 200 274 254 118 200 158 b 181 293 200 286 194 293 l 82 293 b 63 274 68 293 63 286 l 63 249 b 353 -7 63 74 163 -7 l 964 -7 b 1242 261 1160 -7 1242 103 b 1071 496 1242 431 1172 472 z "},"И":{"ha":1376,"x_min":0,"x_max":0,"o":"m 1265 0 b 1286 21 1279 0 1286 7 l 1286 951 b 1265 972 1286 965 1279 972 l 1128 972 b 1100 957 1115 972 1110 967 l 247 163 l 233 163 l 233 951 b 214 972 233 965 228 972 l 111 972 b 90 951 97 972 90 965 l 90 21 b 111 0 90 7 97 0 l 249 0 b 276 15 261 0 267 6 l 1129 810 l 1143 810 l 1143 21 b 1163 0 1143 7 1149 0 z "},"Й":{"ha":1376,"x_min":0,"x_max":0,"o":"m 633 1043 l 707 1043 b 889 1231 831 1043 889 1104 b 868 1250 889 1244 882 1250 l 794 1250 b 774 1231 781 1250 775 1244 b 690 1140 771 1181 750 1140 l 650 1140 b 567 1231 590 1140 571 1181 b 547 1250 567 1244 561 1250 l 472 1250 b 453 1231 458 1250 453 1244 b 633 1043 453 1104 511 1043 z m 1265 0 b 1286 21 1279 0 1286 7 l 1286 951 b 1265 972 1286 965 1279 972 l 1128 972 b 1100 957 1115 972 1110 967 l 247 163 l 233 163 l 233 951 b 214 972 233 965 228 972 l 111 972 b 90 951 97 972 90 965 l 90 21 b 111 0 90 7 97 0 l 249 0 b 276 15 261 0 267 6 l 1129 810 l 1143 810 l 1143 21 b 1163 0 1143 7 1149 0 z "},"Ѝ":{"ha":1376,"x_min":0,"x_max":0,"o":"m 643 1225 b 614 1250 635 1242 628 1250 l 483 1250 b 469 1225 468 1250 457 1240 l 593 1064 b 626 1040 604 1050 613 1040 l 710 1040 b 724 1065 725 1040 732 1049 z m 1265 0 b 1286 21 1279 0 1286 7 l 1286 951 b 1265 972 1286 965 1279 972 l 1128 972 b 1100 957 1115 972 1110 967 l 247 163 l 233 163 l 233 951 b 214 972 233 965 228 972 l 111 972 b 90 951 97 972 90 965 l 90 21 b 111 0 90 7 97 0 l 249 0 b 276 15 261 0 267 6 l 1129 810 l 1143 810 l 1143 21 b 1163 0 1143 7 1149 0 z "},"К":{"ha":1364,"x_min":0,"x_max":0,"o":"m 1307 32 l 647 558 l 1272 940 b 1265 972 1290 951 1282 972 l 1119 972 b 1067 953 1099 972 1082 963 l 233 449 l 233 951 b 214 972 233 965 228 972 l 111 972 b 90 951 97 972 90 965 l 90 21 b 111 0 90 7 97 0 l 214 0 b 233 21 228 0 233 7 l 233 304 l 533 488 l 1118 21 b 1164 0 1135 8 1146 0 l 1297 0 b 1307 32 1317 0 1321 21 z "},"Ќ":{"ha":1364,"x_min":0,"x_max":0,"o":"m 617 1040 l 700 1040 b 735 1065 714 1040 724 1051 l 858 1225 b 851 1250 871 1240 867 1250 l 715 1250 b 686 1225 701 1250 694 1242 l 604 1065 b 617 1040 596 1049 601 1040 z m 1307 32 l 647 558 l 1272 940 b 1265 972 1290 951 1282 972 l 1119 972 b 1067 953 1099 972 1082 963 l 233 449 l 233 951 b 214 972 233 965 228 972 l 111 972 b 90 951 97 972 90 965 l 90 21 b 111 0 90 7 97 0 l 214 0 b 233 21 228 0 233 7 l 233 304 l 533 488 l 1118 21 b 1164 0 1135 8 1146 0 l 1297 0 b 1307 32 1317 0 1321 21 z "},"Л":{"ha":1489,"x_min":0,"x_max":0,"o":"m 1378 972 l 217 972 b 196 951 203 972 196 965 l 196 246 b 99 140 196 158 147 140 b 76 121 86 140 76 135 l 76 15 b 97 -6 76 1 82 -6 l 143 -6 b 338 199 251 -6 338 53 l 338 844 l 1257 844 l 1257 19 b 1276 0 1257 6 1263 0 l 1379 0 b 1399 19 1393 0 1399 6 l 1399 951 b 1378 972 1399 965 1392 972 z "},"М":{"ha":1603,"x_min":0,"x_max":0,"o":"m 111 0 l 214 0 b 233 21 228 0 233 7 l 233 790 l 247 790 l 722 21 b 751 0 731 7 739 0 l 850 0 b 879 21 864 0 871 7 l 1356 790 l 1368 790 l 1368 21 b 1389 0 1368 7 1375 0 l 1492 0 b 1513 21 1506 0 1513 7 l 1513 951 b 1492 972 1513 965 1506 972 l 1326 972 b 1297 951 1313 972 1306 965 l 808 160 l 793 160 l 304 951 b 276 972 296 965 290 972 l 111 972 b 90 951 97 972 90 965 l 90 21 b 111 0 90 7 97 0 z "},"Н":{"ha":1363,"x_min":0,"x_max":0,"o":"m 1251 972 l 1149 972 b 1129 951 1135 972 1129 965 l 1129 550 l 233 550 l 233 951 b 214 972 233 965 228 972 l 111 972 b 90 951 97 972 90 965 l 90 21 b 111 0 90 7 97 0 l 214 0 b 233 21 228 0 233 7 l 233 422 l 1129 422 l 1129 21 b 1149 0 1129 7 1135 0 l 1251 0 b 1272 21 1265 0 1272 7 l 1272 951 b 1251 972 1272 965 1265 972 z "},"О":{"ha":1415,"x_min":0,"x_max":0,"o":"m 340 -6 l 1075 -6 b 1332 244 1247 -6 1332 82 l 1332 728 b 1075 978 1332 890 1247 978 l 340 978 b 83 728 168 978 83 890 l 83 244 b 340 -6 83 82 168 -6 z m 368 122 b 226 258 274 122 226 161 l 226 715 b 368 850 226 811 274 850 l 1047 850 b 1188 715 1142 850 1188 811 l 1188 258 b 1047 122 1188 161 1142 122 z "},"П":{"ha":1383,"x_min":0,"x_max":0,"o":"m 1272 972 l 111 972 b 90 951 97 972 90 965 l 90 19 b 110 0 90 6 96 0 l 213 0 b 232 19 226 0 232 6 l 232 844 l 1151 844 l 1151 19 b 1172 0 1151 6 1158 0 l 1274 0 b 1293 19 1288 0 1293 6 l 1293 951 b 1272 972 1293 965 1286 972 z "},"Р":{"ha":1332,"x_min":0,"x_max":0,"o":"m 997 972 l 111 972 b 90 951 97 972 90 965 l 90 21 b 111 0 90 7 97 0 l 214 0 b 233 21 228 0 233 7 l 233 218 l 997 218 b 1249 468 1169 218 1249 306 l 1249 722 b 997 972 1249 885 1169 972 z m 1106 482 b 968 347 1106 385 1064 347 l 233 347 l 233 844 l 968 844 b 1106 710 1064 844 1106 806 z "},"С":{"ha":1408,"x_min":0,"x_max":0,"o":"m 1207 658 l 1313 658 b 1332 678 1325 658 1332 665 l 1332 728 b 1081 978 1332 890 1253 978 l 340 978 b 83 728 168 978 83 890 l 83 244 b 340 -6 83 82 168 -6 l 1081 -6 b 1332 233 1253 -6 1332 81 l 1332 261 b 1313 281 1332 274 1325 281 l 1207 281 b 1188 261 1194 281 1188 274 l 1188 246 b 1053 122 1188 160 1149 122 l 368 122 b 226 258 274 122 226 161 l 226 715 b 368 850 226 811 274 850 l 1053 850 b 1188 715 1147 850 1188 811 l 1188 678 b 1207 658 1188 665 1194 658 z "},"Т":{"ha":1343,"x_min":0,"x_max":0,"o":"m 1260 972 l 83 972 b 63 951 69 972 63 965 l 63 864 b 83 844 63 850 69 844 l 601 844 l 601 21 b 621 0 601 7 607 0 l 722 0 b 743 21 736 0 743 7 l 743 844 l 1260 844 b 1281 864 1274 844 1281 850 l 1281 951 b 1260 972 1281 965 1274 972 z "},"У":{"ha":1229,"x_min":0,"x_max":0,"o":"m 1157 972 l 1044 972 b 1010 949 1028 972 1021 964 l 614 439 l 219 949 b 185 972 208 964 201 972 l 72 972 b 60 950 58 972 50 963 l 535 336 l 292 22 b 304 0 282 10 290 0 l 417 0 b 453 24 433 0 442 8 l 1169 950 b 1157 972 1179 963 1171 972 z "},"Ў":{"ha":1229,"x_min":0,"x_max":0,"o":"m 581 1043 l 654 1043 b 836 1231 778 1043 836 1104 b 815 1250 836 1244 829 1250 l 742 1250 b 721 1231 728 1250 722 1244 b 638 1140 718 1181 697 1140 l 597 1140 b 514 1231 538 1140 518 1181 b 494 1250 514 1244 508 1250 l 419 1250 b 400 1231 406 1250 400 1244 b 581 1043 400 1104 458 1043 z m 1157 972 l 1044 972 b 1010 949 1028 972 1021 964 l 614 439 l 219 949 b 185 972 208 964 201 972 l 72 972 b 60 950 58 972 50 963 l 535 336 l 292 22 b 304 0 282 10 290 0 l 417 0 b 453 24 433 0 442 8 l 1169 950 b 1157 972 1179 963 1171 972 z "},"Ф":{"ha":1415,"x_min":0,"x_max":0,"o":"m 1075 839 l 779 839 l 779 951 b 758 972 779 965 772 972 l 656 972 b 636 951 642 972 636 965 l 636 839 l 340 839 b 83 589 168 839 83 751 l 83 383 b 340 133 83 221 168 133 l 636 133 l 636 21 b 656 0 636 7 642 0 l 758 0 b 779 21 772 0 779 7 l 779 133 l 1075 133 b 1332 383 1247 133 1332 221 l 1332 589 b 1075 839 1332 751 1247 839 z m 368 261 b 226 397 274 261 226 300 l 226 576 b 368 711 226 672 274 711 l 636 711 l 636 261 z m 1188 397 b 1047 261 1188 300 1142 261 l 779 261 l 779 711 l 1047 711 b 1188 576 1142 711 1188 672 z "},"Х":{"ha":1376,"x_min":0,"x_max":0,"o":"m 1311 26 l 786 486 l 1311 946 b 1306 972 1331 963 1318 972 l 1160 972 b 1119 951 1144 972 1136 967 l 688 572 l 256 951 b 217 972 240 965 231 972 l 69 972 b 67 946 57 972 47 963 l 590 486 l 67 26 b 69 0 47 10 57 0 l 217 0 b 256 22 231 0 240 8 l 688 400 l 1119 22 b 1160 0 1136 7 1146 0 l 1307 0 b 1311 26 1319 0 1331 10 z "},"Ч":{"ha":1413,"x_min":0,"x_max":0,"o":"m 1301 972 l 1199 972 b 1179 951 1185 972 1179 965 l 1179 469 b 1038 335 1179 372 1133 335 l 375 335 b 233 469 281 335 233 372 l 233 951 b 214 972 233 965 228 972 l 111 972 b 90 951 97 972 90 965 l 90 457 b 347 207 90 293 175 207 l 1000 207 b 1179 269 1085 207 1143 228 l 1179 21 b 1199 0 1179 7 1185 0 l 1301 0 b 1322 21 1315 0 1322 7 l 1322 951 b 1301 972 1322 965 1315 972 z "},"Ц":{"ha":1415,"x_min":0,"x_max":0,"o":"m 1353 128 l 1293 128 l 1293 953 b 1274 972 1293 967 1288 972 l 1172 972 b 1151 953 1158 972 1151 967 l 1151 128 l 232 128 l 232 953 b 213 972 232 967 226 972 l 110 972 b 90 953 96 972 90 967 l 90 21 b 111 0 90 7 97 0 l 1232 0 l 1232 -115 b 1251 -135 1232 -129 1238 -135 l 1354 -135 b 1374 -115 1368 -135 1374 -129 l 1374 107 b 1353 128 1374 121 1367 128 z "},"Ш":{"ha":1767,"x_min":0,"x_max":0,"o":"m 111 0 l 1656 0 b 1676 21 1669 0 1676 7 l 1676 953 b 1657 972 1676 967 1671 972 l 1554 972 b 1535 953 1540 972 1535 967 l 1535 128 l 954 128 l 954 953 b 935 972 954 967 949 972 l 832 972 b 813 953 818 972 813 967 l 813 128 l 232 128 l 232 953 b 213 972 232 967 226 972 l 110 972 b 90 953 96 972 90 967 l 90 21 b 111 0 90 7 97 0 z "},"Щ":{"ha":1799,"x_min":0,"x_max":0,"o":"m 1736 128 l 1676 128 l 1676 953 b 1657 972 1676 967 1671 972 l 1554 972 b 1535 953 1540 972 1535 967 l 1535 128 l 954 128 l 954 953 b 935 972 954 967 949 972 l 832 972 b 813 953 818 972 813 967 l 813 128 l 232 128 l 232 953 b 213 972 232 967 226 972 l 110 972 b 90 953 96 972 90 967 l 90 21 b 111 0 90 7 97 0 l 1615 0 l 1615 -115 b 1635 -135 1615 -129 1621 -135 l 1736 -135 b 1757 -115 1750 -135 1757 -129 l 1757 107 b 1736 128 1757 121 1750 128 z "},"Ь":{"ha":1332,"x_min":0,"x_max":0,"o":"m 997 754 l 233 754 l 233 951 b 214 972 233 965 228 972 l 111 972 b 90 951 97 972 90 965 l 90 21 b 111 0 90 7 97 0 l 997 0 b 1249 250 1169 0 1249 88 l 1249 504 b 997 754 1249 667 1169 754 z m 1106 264 b 968 128 1106 167 1064 128 l 233 128 l 233 625 l 968 625 b 1106 490 1064 625 1106 588 z "},"Ъ":{"ha":1461,"x_min":0,"x_max":0,"o":"m 1126 754 l 363 754 l 363 951 b 343 972 363 965 357 972 l 63 972 b 42 951 49 972 42 965 l 42 857 b 63 836 42 843 49 836 l 219 836 l 219 21 b 240 0 219 7 226 0 l 1126 0 b 1378 250 1299 0 1378 88 l 1378 504 b 1126 754 1378 667 1299 754 z m 1235 264 b 1097 128 1235 167 1193 128 l 363 128 l 363 625 l 1097 625 b 1235 490 1193 625 1235 588 z "},"Ы":{"ha":1656,"x_min":0,"x_max":0,"o":"m 997 754 l 233 754 l 233 951 b 214 972 233 965 228 972 l 111 972 b 90 951 97 972 90 965 l 90 21 b 111 0 90 7 97 0 l 997 0 b 1249 250 1169 0 1249 88 l 1249 504 b 997 754 1249 667 1169 754 z m 1546 972 l 1443 972 b 1422 951 1429 972 1422 965 l 1422 21 b 1443 0 1422 7 1429 0 l 1546 0 b 1565 21 1560 0 1565 7 l 1565 951 b 1546 972 1565 965 1560 972 z m 1106 264 b 968 128 1106 167 1064 128 l 233 128 l 233 625 l 968 625 b 1106 490 1064 625 1106 588 z "},"Є":{"ha":1408,"x_min":0,"x_max":0,"o":"m 1207 658 l 1313 658 b 1332 678 1325 658 1332 665 l 1332 728 b 1081 978 1332 890 1253 978 l 340 978 b 83 728 168 978 83 890 l 83 244 b 340 -6 83 82 168 -6 l 1081 -6 b 1332 233 1253 -6 1332 81 l 1332 261 b 1313 281 1332 274 1325 281 l 1207 281 b 1188 261 1194 281 1188 274 l 1188 246 b 1053 122 1188 160 1149 122 l 368 122 b 226 258 274 122 226 161 l 226 424 l 588 424 b 608 443 601 424 608 429 l 608 529 b 588 549 608 543 601 549 l 226 549 l 226 715 b 368 850 226 811 274 850 l 1053 850 b 1188 715 1147 850 1188 811 l 1188 678 b 1207 658 1188 665 1194 658 z "},"Э":{"ha":1408,"x_min":0,"x_max":0,"o":"m 1068 978 l 328 978 b 78 728 156 978 78 890 l 78 678 b 96 658 78 665 83 658 l 201 658 b 221 678 215 658 221 665 l 221 715 b 357 850 221 811 261 850 l 1040 850 b 1182 715 1136 850 1182 811 l 1182 549 l 821 549 b 800 529 807 549 800 543 l 800 443 b 821 424 800 429 807 424 l 1182 424 l 1182 258 b 1040 122 1182 161 1136 122 l 356 122 b 221 246 260 122 221 160 l 221 261 b 201 281 221 274 215 281 l 96 281 b 78 261 83 281 78 274 l 78 233 b 328 -6 78 81 156 -6 l 1068 -6 b 1325 244 1240 -6 1325 82 l 1325 728 b 1068 978 1325 890 1240 978 z "},"І":{"ha":324,"x_min":0,"x_max":0,"o":"m 90 951 l 90 21 b 111 0 90 7 97 0 l 214 0 b 233 21 228 0 233 7 l 233 951 b 214 972 233 965 228 972 l 111 972 b 90 951 97 972 90 965 z "},"Ї":{"ha":324,"x_min":0,"x_max":0,"o":"m -75 1106 l 31 1106 b 50 1125 44 1106 50 1111 l 50 1231 b 31 1250 50 1244 44 1250 l -75 1250 b -94 1231 -89 1250 -94 1244 l -94 1125 b -75 1106 -94 1111 -89 1106 z m 265 1106 l 371 1106 b 390 1125 385 1106 390 1111 l 390 1231 b 371 1250 390 1244 385 1250 l 265 1250 b 246 1231 251 1250 246 1244 l 246 1125 b 265 1106 246 1111 251 1106 z m 90 951 l 90 21 b 111 0 90 7 97 0 l 214 0 b 233 21 228 0 233 7 l 233 951 b 214 972 233 965 228 972 l 111 972 b 90 951 97 972 90 965 z "},"Ј":{"ha":1350,"x_min":0,"x_max":0,"o":"m 97 0 l 1007 0 b 1260 250 1179 0 1260 88 l 1260 951 b 1239 972 1260 965 1253 972 l 1136 972 b 1117 951 1122 972 1117 965 l 1117 264 b 981 128 1117 167 1075 128 l 97 128 b 76 108 83 128 76 122 l 76 21 b 97 0 76 7 83 0 z "},"Ю":{"ha":1751,"x_min":0,"x_max":0,"o":"m 1411 978 l 676 978 b 419 728 504 978 419 890 l 419 563 l 233 563 l 233 951 b 214 972 233 965 228 972 l 111 972 b 90 951 97 972 90 965 l 90 21 b 111 0 90 7 97 0 l 214 0 b 233 21 228 0 233 7 l 233 438 l 419 438 l 419 244 b 676 -6 419 82 504 -6 l 1411 -6 b 1668 244 1583 -6 1668 82 l 1668 728 b 1411 978 1668 890 1583 978 z m 1524 258 b 1383 122 1524 161 1478 122 l 704 122 b 563 258 610 122 563 161 l 563 715 b 704 850 563 811 610 850 l 1383 850 b 1524 715 1478 850 1524 811 z "},"Я":{"ha":1344,"x_min":0,"x_max":0,"o":"m 1233 972 l 347 972 b 96 722 175 972 96 885 l 96 519 b 254 281 96 390 146 308 l 89 31 b 108 0 76 13 89 0 l 206 0 b 236 19 219 0 226 6 l 404 269 l 1111 269 l 1111 21 b 1131 0 1111 7 1117 0 l 1233 0 b 1254 21 1247 0 1254 7 l 1254 951 b 1233 972 1254 965 1247 972 z m 376 399 b 239 533 281 399 239 436 l 239 710 b 376 844 239 806 281 844 l 1111 844 l 1111 399 z "},"Ӏ":{"ha":324,"x_min":0,"x_max":0,"o":"m 90 951 l 90 21 b 111 0 90 7 97 0 l 214 0 b 233 21 228 0 233 7 l 233 951 b 214 972 233 965 228 972 l 111 972 b 90 951 97 972 90 965 z "},"Ӣ":{"ha":1376,"x_min":0,"x_max":0,"o":"m 446 1124 l 896 1124 b 917 1144 908 1124 917 1131 l 917 1229 b 896 1250 917 1243 908 1250 l 446 1250 b 425 1229 432 1250 425 1243 l 425 1144 b 446 1124 425 1131 432 1124 z m 1265 0 b 1286 21 1279 0 1286 7 l 1286 951 b 1265 972 1286 965 1279 972 l 1128 972 b 1100 957 1115 972 1110 967 l 247 163 l 233 163 l 233 951 b 214 972 233 965 228 972 l 111 972 b 90 951 97 972 90 965 l 90 21 b 111 0 90 7 97 0 l 249 0 b 276 15 261 0 267 6 l 1129 810 l 1143 810 l 1143 21 b 1163 0 1143 7 1149 0 z "},"Ө":{"ha":1415,"x_min":0,"x_max":0,"o":"m 1075 978 l 340 978 b 83 728 168 978 83 890 l 83 244 b 340 -6 83 82 168 -6 l 1075 -6 b 1332 244 1247 -6 1332 82 l 1332 728 b 1075 978 1332 890 1247 978 z m 368 850 l 1047 850 b 1188 715 1142 850 1188 811 l 1188 550 l 226 550 l 226 715 b 368 850 226 811 274 850 z m 1047 122 l 368 122 b 226 258 274 122 226 161 l 226 425 l 1188 425 l 1188 258 b 1047 122 1188 161 1142 122 z "},"Ӭ":{"ha":1326,"x_min":0,"x_max":0,"o":"m 429 1106 l 535 1106 b 554 1125 549 1106 554 1111 l 554 1231 b 535 1250 554 1244 549 1250 l 429 1250 b 410 1231 415 1250 410 1244 l 410 1125 b 429 1106 410 1111 415 1106 z m 769 1106 l 875 1106 b 894 1125 889 1106 894 1111 l 894 1231 b 875 1250 894 1244 889 1250 l 769 1250 b 750 1231 756 1250 750 1244 l 750 1125 b 769 1106 750 1111 756 1106 z m 1068 978 l 328 978 b 78 728 156 978 78 890 l 78 678 b 96 658 78 665 83 658 l 201 658 b 221 678 215 658 221 665 l 221 715 b 357 850 221 811 261 850 l 1040 850 b 1182 715 1136 850 1182 811 l 1182 549 l 821 549 b 800 529 807 549 800 543 l 800 443 b 821 424 800 429 807 424 l 1182 424 l 1182 258 b 1040 122 1182 161 1136 122 l 356 122 b 221 246 260 122 221 160 l 221 261 b 201 281 221 274 215 281 l 96 281 b 78 261 83 281 78 274 l 78 233 b 328 -6 78 81 156 -6 l 1068 -6 b 1325 244 1240 -6 1325 82 l 1325 728 b 1068 978 1325 890 1240 978 z "},"Ӯ":{"ha":1229,"x_min":0,"x_max":0,"o":"m 394 1124 l 844 1124 b 865 1144 857 1124 865 1131 l 865 1229 b 844 1250 865 1243 857 1250 l 394 1250 b 374 1229 381 1250 374 1243 l 374 1144 b 394 1124 374 1131 381 1124 z m 1157 972 l 1044 972 b 1010 949 1028 972 1021 964 l 614 439 l 219 949 b 185 972 208 964 201 972 l 72 972 b 60 950 58 972 50 963 l 535 336 l 292 22 b 304 0 282 10 290 0 l 417 0 b 453 24 433 0 442 8 l 1169 950 b 1157 972 1179 963 1171 972 z "},"а":{"ha":1019,"x_min":0,"x_max":0,"o":"m 261 -7 l 592 -7 b 801 94 700 -7 761 40 l 813 94 l 813 21 b 832 0 813 7 818 0 l 929 0 b 950 21 943 0 950 7 l 950 458 b 682 700 950 622 872 700 l 310 700 b 86 526 154 700 86 642 b 117 492 86 503 93 492 l 197 492 b 224 513 214 492 221 499 b 340 578 233 558 268 578 l 658 578 b 813 451 774 578 813 547 l 813 407 l 258 407 b 42 207 113 407 42 349 b 261 -7 42 65 126 -7 z m 265 118 b 179 208 213 118 179 140 b 265 299 179 279 213 299 l 813 299 l 813 231 b 675 118 813 171 775 118 z "},"б":{"ha":1033,"x_min":0,"x_max":0,"o":"m 399 -7 l 732 -7 b 971 229 886 -7 971 81 l 971 464 b 732 700 971 614 886 700 l 399 700 b 219 626 286 700 256 674 l 207 626 l 207 732 b 288 822 207 788 225 822 b 531 811 374 822 467 811 b 718 949 657 811 718 865 b 699 972 718 964 715 972 l 599 972 b 576 964 589 972 582 972 b 479 933 561 940 536 933 b 257 944 413 933 346 944 b 69 746 110 944 69 879 l 69 21 b 90 0 69 7 76 0 l 188 0 b 207 21 201 0 207 7 l 207 68 l 219 68 b 399 -7 256 19 286 -7 z m 314 118 b 207 232 247 118 207 154 l 207 461 b 314 575 207 539 247 575 l 719 575 b 833 461 792 575 833 539 l 833 232 b 719 118 833 154 792 118 z "},"в":{"ha":978,"x_min":0,"x_max":0,"o":"m 90 0 l 701 0 b 915 190 839 0 915 50 b 811 349 915 258 894 319 l 811 360 b 897 501 890 392 897 454 b 697 694 897 644 824 694 l 90 694 b 69 674 76 694 69 688 l 69 21 b 90 0 69 7 76 0 z m 207 410 l 207 572 l 686 572 b 761 492 731 572 761 550 b 690 410 761 440 738 410 z m 207 122 l 207 303 l 694 301 b 778 210 744 301 778 278 b 689 122 778 139 740 122 z "},"г":{"ha":940,"x_min":0,"x_max":0,"o":"m 864 694 l 90 694 b 69 674 76 694 69 688 l 69 21 b 90 0 69 7 76 0 l 188 0 b 207 21 201 0 207 7 l 207 571 l 864 571 b 885 592 878 571 885 578 l 885 674 b 864 694 885 688 878 694 z "},"ѓ":{"ha":940,"x_min":0,"x_max":0,"o":"m 424 763 l 507 763 b 542 788 521 763 531 774 l 665 947 b 658 972 678 963 674 972 l 522 972 b 493 947 508 972 501 964 l 411 788 b 424 763 403 771 408 763 z m 864 694 l 90 694 b 69 674 76 694 69 688 l 69 21 b 90 0 69 7 76 0 l 188 0 b 207 21 201 0 207 7 l 207 571 l 864 571 b 885 592 878 571 885 578 l 885 674 b 864 694 885 688 878 694 z "},"ґ":{"ha":940,"x_min":0,"x_max":0,"o":"m 865 769 l 767 769 b 747 750 753 769 747 763 l 747 694 l 90 694 b 69 674 76 694 69 688 l 69 21 b 90 0 69 7 76 0 l 188 0 b 207 21 201 0 207 7 l 207 571 l 864 571 b 885 592 878 571 885 578 l 885 750 b 865 769 885 763 879 769 z "},"д":{"ha":1228,"x_min":0,"x_max":0,"o":"m 1165 124 l 1094 124 l 1094 674 b 1074 694 1094 688 1088 694 l 231 694 b 210 674 217 694 210 688 l 210 369 b 81 124 210 164 142 124 l 63 124 b 42 103 49 124 42 117 l 42 -86 b 61 -106 42 -99 47 -106 l 160 -106 b 179 -86 174 -106 179 -99 l 179 0 l 1049 0 l 1049 -86 b 1068 -106 1049 -99 1054 -106 l 1167 -106 b 1186 -86 1181 -106 1186 -99 l 1186 103 b 1165 124 1186 117 1179 124 z m 285 124 b 347 347 322 175 347 247 l 347 571 l 957 571 l 957 124 z "},"е":{"ha":1017,"x_min":0,"x_max":0,"o":"m 879 296 b 954 369 931 296 954 319 l 954 464 b 714 700 954 614 869 700 l 301 700 b 63 464 147 700 63 615 l 63 229 b 301 -7 63 79 147 -7 l 679 -7 b 936 97 836 -7 893 28 b 931 126 944 110 947 119 l 889 147 b 849 150 872 156 861 156 b 674 117 788 121 768 117 l 318 117 b 200 231 243 117 200 153 l 200 296 z m 318 575 l 697 575 b 815 461 774 575 815 539 l 815 397 l 200 397 l 200 461 b 318 575 200 539 243 575 z "},"ё":{"ha":1017,"x_min":0,"x_max":0,"o":"m 268 828 l 374 828 b 393 847 388 828 393 833 l 393 953 b 374 972 393 967 388 972 l 268 972 b 249 953 254 972 249 967 l 249 847 b 268 828 249 833 254 828 z m 608 828 l 714 828 b 733 847 728 828 733 833 l 733 953 b 714 972 733 967 728 972 l 608 972 b 589 953 594 972 589 967 l 589 847 b 608 828 589 833 594 828 z m 879 296 b 954 369 931 296 954 319 l 954 464 b 714 700 954 614 869 700 l 301 700 b 63 464 147 700 63 615 l 63 229 b 301 -7 63 79 147 -7 l 679 -7 b 936 97 836 -7 893 28 b 931 126 944 110 947 119 l 889 147 b 849 150 872 156 861 156 b 674 117 788 121 768 117 l 318 117 b 200 231 243 117 200 153 l 200 296 z m 318 575 l 697 575 b 815 461 774 575 815 539 l 815 397 l 200 397 l 200 461 b 318 575 200 539 243 575 z "},"ж":{"ha":1414,"x_min":0,"x_max":0,"o":"m 58 0 l 197 0 b 244 18 213 0 226 7 l 638 264 l 638 21 b 658 0 638 7 644 0 l 756 0 b 776 21 769 0 776 7 l 776 264 l 1169 18 b 1217 0 1188 7 1201 0 l 1356 0 b 1364 31 1374 0 1376 22 l 849 349 l 1343 661 b 1342 694 1364 675 1357 694 l 1201 694 b 1164 681 1188 694 1178 690 l 776 433 l 776 674 b 756 694 776 688 769 694 l 658 694 b 638 674 644 694 638 688 l 638 433 l 250 681 b 211 694 236 690 225 694 l 72 694 b 69 661 57 694 50 675 l 565 349 l 50 31 b 58 0 36 22 39 0 z "},"з":{"ha":1028,"x_min":0,"x_max":0,"o":"m 267 -8 l 747 -8 b 965 183 876 -8 965 58 b 872 342 965 250 951 315 l 872 356 b 960 504 951 381 960 436 b 747 699 960 622 876 699 l 267 699 b 63 497 139 699 63 632 b 78 481 63 486 67 481 l 189 481 b 204 497 199 481 204 486 b 292 574 204 540 229 574 l 725 574 b 818 490 781 574 818 553 b 746 403 818 431 804 403 l 281 403 b 267 388 271 403 267 399 l 267 307 b 281 293 267 296 271 293 l 746 293 b 818 199 804 293 818 253 b 725 117 818 135 781 117 l 292 117 b 204 183 231 117 204 143 b 189 200 204 196 199 200 l 78 200 b 63 183 67 200 63 196 b 267 -8 63 50 139 -8 z "},"и":{"ha":1072,"x_min":0,"x_max":0,"o":"m 90 694 b 69 674 76 694 69 688 l 69 21 b 90 0 69 7 76 0 l 228 0 b 258 15 239 0 247 6 l 850 554 l 861 554 l 861 21 b 882 0 861 7 868 0 l 982 0 b 1003 21 996 0 1003 7 l 1003 674 b 982 694 1003 688 996 694 l 844 694 b 814 679 833 694 825 689 l 222 140 l 211 140 l 211 674 b 190 694 211 688 204 694 z "},"й":{"ha":1072,"x_min":0,"x_max":0,"o":"m 499 765 l 572 765 b 754 953 696 765 754 826 b 733 972 754 967 747 972 l 660 972 b 639 953 646 972 640 967 b 556 863 636 903 615 863 l 515 863 b 432 953 456 863 436 903 b 413 972 432 967 426 972 l 338 972 b 318 953 324 972 318 967 b 499 765 318 826 376 765 z m 90 694 b 69 674 76 694 69 688 l 69 21 b 90 0 69 7 76 0 l 228 0 b 258 15 239 0 247 6 l 850 554 l 861 554 l 861 21 b 882 0 861 7 868 0 l 982 0 b 1003 21 996 0 1003 7 l 1003 674 b 982 694 1003 688 996 694 l 844 694 b 814 679 833 694 825 689 l 222 140 l 211 140 l 211 674 b 190 694 211 688 204 694 z "},"ѝ":{"ha":1072,"x_min":0,"x_max":0,"o":"m 508 947 b 479 972 500 964 493 972 l 349 972 b 335 947 333 972 322 963 l 458 786 b 492 763 469 772 478 763 l 575 763 b 589 788 590 763 597 771 z m 90 694 b 69 674 76 694 69 688 l 69 21 b 90 0 69 7 76 0 l 228 0 b 258 15 239 0 247 6 l 850 554 l 861 554 l 861 21 b 882 0 861 7 868 0 l 982 0 b 1003 21 996 0 1003 7 l 1003 674 b 982 694 1003 688 996 694 l 844 694 b 814 679 833 694 825 689 l 222 140 l 211 140 l 211 674 b 190 694 211 688 204 694 z "},"к":{"ha":846,"x_min":0,"x_max":0,"o":"m 796 31 l 281 349 l 775 661 b 774 694 796 675 789 694 l 633 694 b 596 681 619 694 610 690 l 207 433 l 207 674 b 188 694 207 688 201 694 l 90 694 b 69 674 76 694 69 688 l 69 21 b 90 0 69 7 76 0 l 188 0 b 207 21 201 0 207 7 l 207 264 l 601 18 b 649 0 619 7 633 0 l 786 0 b 796 31 806 0 808 22 z "},"ќ":{"ha":846,"x_min":0,"x_max":0,"o":"m 456 947 l 374 788 b 386 763 365 771 371 763 l 469 763 b 504 788 483 763 493 774 l 628 947 b 621 972 640 963 636 972 l 485 972 b 456 947 471 972 464 964 z m 796 31 l 281 349 l 775 661 b 774 694 796 675 789 694 l 633 694 b 596 681 619 694 610 690 l 207 433 l 207 674 b 188 694 207 688 201 694 l 90 694 b 69 674 76 694 69 688 l 69 21 b 90 0 69 7 76 0 l 188 0 b 207 21 201 0 207 7 l 207 264 l 601 18 b 649 0 619 7 633 0 l 786 0 b 796 31 806 0 808 22 z "},"л":{"ha":1093,"x_min":0,"x_max":0,"o":"m 75 -14 b 254 196 225 -14 254 68 l 254 571 l 886 571 l 886 19 b 906 0 886 7 892 0 l 1004 0 b 1024 19 1018 0 1024 7 l 1024 675 b 1004 694 1024 688 1018 694 l 136 694 b 117 675 122 694 117 688 l 117 197 b 32 108 117 131 92 108 b 0 79 8 108 0 99 l 0 25 b 75 -14 0 -3 18 -14 z "},"м":{"ha":1213,"x_min":0,"x_max":0,"o":"m 90 0 l 188 0 b 207 21 201 0 207 7 l 207 517 l 218 517 l 549 74 b 575 58 557 63 561 58 l 639 58 b 665 74 653 58 657 63 l 994 517 l 1006 517 l 1006 21 b 1026 0 1006 7 1013 0 l 1124 0 b 1143 21 1138 0 1143 7 l 1143 674 b 1124 694 1143 688 1138 694 l 999 694 b 972 678 988 694 981 689 l 607 194 l 242 678 b 214 694 233 689 225 694 l 90 694 b 69 674 76 694 69 688 l 69 21 b 90 0 69 7 76 0 z "},"н":{"ha":1044,"x_min":0,"x_max":0,"o":"m 954 694 l 857 694 b 838 674 843 694 838 688 l 838 413 l 207 413 l 207 674 b 188 694 207 688 201 694 l 90 694 b 69 674 76 694 69 688 l 69 21 b 90 0 69 7 76 0 l 188 0 b 207 21 201 0 207 7 l 207 283 l 838 283 l 838 21 b 857 0 838 7 843 0 l 954 0 b 975 21 968 0 975 7 l 975 674 b 954 694 975 688 968 694 z "},"о":{"ha":1026,"x_min":0,"x_max":0,"o":"m 301 -7 l 725 -7 b 964 228 879 -7 964 79 l 964 464 b 725 700 964 615 879 700 l 301 700 b 63 464 147 700 63 615 l 63 229 b 301 -7 63 79 147 -7 z m 318 118 b 200 232 243 118 200 154 l 200 461 b 318 575 200 539 243 575 l 708 575 b 826 461 785 575 826 539 l 826 232 b 708 118 826 154 785 118 z "},"п":{"ha":1079,"x_min":0,"x_max":0,"o":"m 989 694 l 90 694 b 69 674 76 694 69 688 l 69 21 b 88 0 69 7 74 0 l 188 0 b 207 21 201 0 207 7 l 207 569 l 872 569 l 872 21 b 892 0 872 7 878 0 l 989 0 b 1010 21 1003 0 1010 7 l 1010 674 b 989 694 1010 688 1003 694 z "},"р":{"ha":1033,"x_min":0,"x_max":0,"o":"m 188 -246 b 207 -225 199 -246 207 -239 l 207 68 l 219 68 b 399 -7 256 19 286 -7 l 732 -7 b 971 229 886 -7 971 79 l 971 464 b 732 700 971 614 886 700 l 399 700 b 219 626 286 700 256 674 l 207 626 l 207 674 b 188 694 207 688 201 694 l 90 694 b 69 674 76 694 69 688 l 69 -225 b 90 -246 69 -239 76 -246 z m 719 118 l 314 118 b 207 232 247 118 207 154 l 207 461 b 314 575 207 539 247 575 l 719 575 b 833 461 792 575 833 539 l 833 232 b 719 118 833 154 792 118 z "},"с":{"ha":1007,"x_min":0,"x_max":0,"o":"m 301 -7 l 679 -7 b 936 97 836 -7 893 28 b 931 126 944 110 947 119 l 889 147 b 849 150 872 156 861 156 b 674 117 788 121 768 117 l 318 117 b 200 231 243 117 200 153 l 200 461 b 318 575 200 539 243 575 l 704 575 b 815 486 782 575 815 546 l 815 453 b 840 435 815 440 825 435 l 928 435 b 951 457 943 435 951 442 l 951 490 b 722 700 951 625 882 700 l 301 700 b 63 464 147 700 63 615 l 63 229 b 301 -7 63 79 147 -7 z "},"т":{"ha":1010,"x_min":0,"x_max":0,"o":"m 933 694 l 76 694 b 56 674 63 694 56 688 l 56 586 b 76 565 56 572 63 565 l 438 565 l 438 21 b 457 0 438 7 443 0 l 554 0 b 575 21 568 0 575 7 l 575 565 l 933 565 b 954 586 947 565 954 572 l 954 674 b 933 694 954 688 947 694 z "},"у":{"ha":1104,"x_min":0,"x_max":0,"o":"m 1038 694 l 924 694 b 890 671 908 694 901 686 l 560 163 l 544 163 l 214 671 b 181 694 203 686 196 694 l 67 694 b 51 671 53 694 42 686 l 471 26 l 306 -228 b 321 -251 296 -243 307 -251 l 435 -251 b 467 -228 449 -251 457 -243 l 624 13 l 633 26 l 1053 671 b 1038 694 1063 686 1051 694 z "},"ў":{"ha":1104,"x_min":0,"x_max":0,"o":"m 514 765 l 588 765 b 769 953 711 765 769 826 b 749 972 769 967 763 972 l 675 972 b 654 953 661 972 656 967 b 571 863 651 903 631 863 l 531 863 b 447 953 471 863 451 903 b 428 972 447 967 442 972 l 353 972 b 333 953 339 972 333 967 b 514 765 333 826 392 765 z m 1038 694 l 924 694 b 890 671 908 694 901 686 l 560 163 l 544 163 l 214 671 b 181 694 203 686 196 694 l 67 694 b 51 671 53 694 42 686 l 471 26 l 306 -228 b 321 -251 296 -243 307 -251 l 435 -251 b 467 -228 449 -251 457 -243 l 624 13 l 633 26 l 1053 671 b 1038 694 1063 686 1051 694 z "},"ф":{"ha":1790,"x_min":0,"x_max":0,"o":"m 1488 700 l 1156 700 b 976 626 1043 700 1013 674 l 964 626 l 964 951 b 943 972 964 965 957 972 l 846 972 b 826 951 835 972 826 965 l 826 626 l 814 626 b 635 700 778 674 747 700 l 303 700 b 63 464 147 700 63 614 l 63 229 b 303 -7 63 81 147 -7 l 635 -7 b 814 68 747 -7 778 19 l 826 68 l 826 -225 b 847 -246 826 -239 833 -246 l 944 -246 b 964 -225 956 -246 964 -239 l 964 68 l 976 68 b 1156 -7 1013 19 1043 -7 l 1488 -7 b 1728 229 1643 -7 1728 79 l 1728 464 b 1488 700 1728 614 1643 700 z m 719 118 l 314 118 b 200 232 243 118 200 154 l 200 461 b 314 575 200 539 243 575 l 719 575 b 826 461 786 575 826 539 l 826 232 b 719 118 826 154 786 118 z m 1590 232 b 1476 118 1590 154 1547 118 l 1071 118 b 964 232 1004 118 964 154 l 964 461 b 1071 575 964 539 1004 575 l 1476 575 b 1590 461 1547 575 1590 539 z "},"х":{"ha":999,"x_min":0,"x_max":0,"o":"m 942 26 l 592 347 l 942 668 b 932 694 957 681 949 694 l 804 694 b 760 669 793 694 781 689 l 499 432 l 239 669 b 194 694 218 689 206 694 l 67 694 b 56 668 50 694 42 681 l 407 347 l 56 26 b 68 0 40 13 51 0 l 196 0 b 240 25 207 0 219 6 l 499 263 l 758 25 b 803 0 779 6 792 0 l 931 0 b 942 26 947 0 957 13 z "},"ч":{"ha":1051,"x_min":0,"x_max":0,"o":"m 961 694 l 864 694 b 844 674 850 694 844 688 l 844 372 b 728 258 844 294 800 258 l 321 258 b 207 372 250 258 207 294 l 207 674 b 188 694 207 688 201 694 l 90 694 b 69 674 76 694 69 688 l 69 369 b 310 133 69 221 154 133 l 697 133 b 844 200 765 133 817 161 l 844 21 b 864 0 844 7 850 0 l 961 0 b 982 21 975 0 982 7 l 982 674 b 961 694 982 688 975 694 z "},"ц":{"ha":1169,"x_min":0,"x_max":0,"o":"m 1093 128 l 986 128 l 986 674 b 965 694 986 688 979 694 l 868 694 b 847 674 854 694 847 688 l 847 128 l 229 128 l 229 674 b 208 694 229 688 222 694 l 111 694 b 90 674 97 694 90 688 l 90 21 b 111 0 90 7 97 0 l 975 0 l 975 -143 b 996 -164 975 -157 982 -164 l 1093 -164 b 1114 -143 1107 -164 1114 -157 l 1114 107 b 1093 128 1114 121 1107 128 z "},"ш":{"ha":1476,"x_min":0,"x_max":0,"o":"m 1365 694 l 1269 694 b 1249 674 1256 694 1249 688 l 1249 128 l 807 128 l 807 674 b 786 694 807 688 800 694 l 690 694 b 669 674 676 694 669 688 l 669 128 l 228 128 l 228 674 b 207 694 228 688 221 694 l 111 694 b 90 674 97 694 90 688 l 90 21 b 111 0 90 7 97 0 l 1365 0 b 1386 21 1379 0 1386 7 l 1386 674 b 1365 694 1386 688 1379 694 z "},"щ":{"ha":1586,"x_min":0,"x_max":0,"o":"m 1510 128 l 1386 128 l 1386 674 b 1365 694 1386 688 1379 694 l 1269 694 b 1249 674 1256 694 1249 688 l 1249 128 l 807 128 l 807 674 b 786 694 807 688 800 694 l 690 694 b 669 674 676 694 669 688 l 669 128 l 228 128 l 228 674 b 207 694 228 688 221 694 l 111 694 b 90 674 97 694 90 688 l 90 21 b 111 0 90 7 97 0 l 1393 0 l 1393 -143 b 1414 -164 1393 -157 1400 -164 l 1510 -164 b 1531 -143 1524 -164 1531 -157 l 1531 107 b 1510 128 1531 121 1524 128 z "},"ь":{"ha":1013,"x_min":0,"x_max":0,"o":"m 710 431 l 199 431 l 199 674 b 178 694 199 688 192 694 l 90 694 b 69 674 76 694 69 688 l 69 21 b 90 0 69 7 76 0 l 710 0 b 950 215 890 0 950 67 b 710 431 950 351 890 431 z m 710 125 l 199 125 l 199 306 l 710 306 b 821 215 785 306 821 285 b 710 125 821 142 785 125 z "},"ъ":{"ha":1058,"x_min":0,"x_max":0,"o":"m 757 431 l 244 431 l 244 674 b 224 694 244 688 238 694 l 42 694 b 21 674 28 694 21 688 l 21 590 b 42 569 21 576 28 569 l 115 569 l 115 21 b 136 0 115 7 122 0 l 757 0 b 996 215 936 0 996 67 b 757 431 996 351 936 431 z m 756 125 l 244 125 l 244 306 l 756 306 b 867 215 831 306 867 285 b 756 125 867 142 831 125 z "},"ы":{"ha":1265,"x_min":0,"x_max":0,"o":"m 710 431 l 199 431 l 199 674 b 178 694 199 688 192 694 l 90 694 b 69 674 76 694 69 688 l 69 21 b 90 0 69 7 76 0 l 710 0 b 950 215 890 0 950 67 b 710 431 950 351 890 431 z m 1175 694 l 1078 694 b 1057 674 1064 694 1057 688 l 1057 21 b 1078 0 1057 7 1064 0 l 1175 0 b 1196 21 1189 0 1196 7 l 1196 674 b 1175 694 1196 688 1189 694 z m 710 125 l 199 125 l 199 306 l 710 306 b 821 215 785 306 821 285 b 710 125 821 142 785 125 z "},"є":{"ha":1007,"x_min":0,"x_max":0,"o":"m 722 700 l 301 700 b 63 464 147 700 63 615 l 63 229 b 301 -7 63 79 147 -7 l 679 -7 b 936 97 836 -7 893 28 b 931 126 944 110 947 119 l 889 147 b 849 150 872 156 861 156 b 674 117 788 121 768 117 l 318 117 b 200 231 243 117 200 153 l 200 290 l 458 290 b 479 310 472 290 479 296 l 479 383 b 458 404 479 397 472 404 l 200 404 l 200 461 b 318 575 200 539 243 575 l 704 575 b 815 486 782 575 815 546 l 815 453 b 840 435 815 440 825 435 l 928 435 b 951 457 943 435 951 442 l 951 490 b 722 700 951 625 882 700 z "},"э":{"ha":1007,"x_min":0,"x_max":0,"o":"m 706 700 l 285 700 b 56 490 125 700 56 625 l 56 457 b 79 435 56 442 64 435 l 168 435 b 192 453 182 435 192 440 l 192 486 b 303 575 192 546 225 575 l 689 575 b 807 461 765 575 807 539 l 807 404 l 549 404 b 529 383 535 404 529 397 l 529 310 b 549 290 529 296 535 290 l 807 290 l 807 231 b 689 117 807 153 765 117 l 333 117 b 158 150 239 117 219 121 b 118 147 146 156 136 156 l 76 126 b 71 97 60 119 63 110 b 328 -7 114 28 171 -7 l 706 -7 b 944 229 860 -7 944 79 l 944 464 b 706 700 944 615 860 700 z "},"і":{"ha":276,"x_min":0,"x_max":0,"o":"m 69 951 l 69 858 b 90 838 69 844 76 838 l 188 838 b 207 858 201 838 207 844 l 207 951 b 188 972 207 965 201 972 l 90 972 b 69 951 76 972 69 965 z m 69 674 l 69 21 b 90 0 69 7 76 0 l 188 0 b 207 21 201 0 207 7 l 207 674 b 188 694 207 688 201 694 l 90 694 b 69 674 76 694 69 688 z "},"ї":{"ha":276,"x_min":0,"x_max":0,"o":"m -100 828 l 6 828 b 25 847 19 828 25 833 l 25 953 b 6 972 25 967 19 972 l -100 972 b -119 953 -114 972 -119 967 l -119 847 b -100 828 -119 833 -114 828 z m 240 828 l 346 828 b 365 847 360 828 365 833 l 365 953 b 346 972 365 967 360 972 l 240 972 b 221 953 226 972 221 967 l 221 847 b 240 828 221 833 226 828 z m 69 674 l 69 21 b 90 0 69 7 76 0 l 188 0 b 207 21 201 0 207 7 l 207 674 b 188 694 207 688 201 694 l 90 694 b 69 674 76 694 69 688 z "},"ј":{"ha":283,"x_min":0,"x_max":0,"o":"m 96 838 l 193 838 b 214 858 207 838 214 844 l 214 951 b 193 972 214 965 207 972 l 96 972 b 75 951 82 972 75 965 l 75 858 b 96 838 75 844 82 838 z m -24 -251 b 214 -15 129 -251 214 -165 l 214 674 b 193 694 214 688 207 694 l 96 694 b 75 674 82 694 75 688 l 75 -3 b -57 -129 75 -90 33 -129 l -128 -129 b -153 -151 -143 -129 -153 -135 l -153 -214 b -126 -246 -153 -235 -143 -243 b -24 -251 -99 -249 -69 -251 z "},"ю":{"ha":1322,"x_min":0,"x_max":0,"o":"m 1021 700 l 597 700 b 358 464 443 700 358 615 l 358 404 l 207 404 l 207 672 b 188 693 207 686 201 693 l 90 693 b 69 672 76 693 69 686 l 69 19 b 90 -1 69 6 76 -1 l 188 -1 b 207 19 201 -1 207 6 l 207 286 l 358 286 l 358 229 b 597 -7 358 79 443 -7 l 1021 -7 b 1260 228 1175 -7 1260 79 l 1260 464 b 1021 700 1260 615 1175 700 z m 1122 232 b 1004 118 1122 154 1081 118 l 614 118 b 496 232 538 118 496 154 l 496 461 b 614 575 496 539 538 575 l 1004 575 b 1122 461 1081 575 1122 539 z "},"я":{"ha":999,"x_min":0,"x_max":0,"o":"m 181 0 b 200 21 194 0 200 7 l 200 169 b 288 272 200 239 219 272 l 792 272 l 792 21 b 811 0 792 7 797 0 l 908 0 b 929 21 922 0 929 7 l 929 674 b 908 694 929 688 922 694 l 271 694 b 72 500 146 694 72 624 b 158 340 72 453 82 386 b 63 181 79 310 63 243 l 63 21 b 83 0 63 7 69 0 z m 792 569 l 792 394 l 292 394 b 210 483 236 394 210 429 b 296 569 210 542 240 569 z "},"ӣ":{"ha":1072,"x_min":0,"x_max":0,"o":"m 311 846 l 761 846 b 782 867 774 846 782 853 l 782 951 b 761 972 782 965 774 972 l 311 972 b 290 951 297 972 290 965 l 290 867 b 311 846 290 853 297 846 z m 90 694 b 69 674 76 694 69 688 l 69 21 b 90 0 69 7 76 0 l 228 0 b 258 15 239 0 247 6 l 850 554 l 861 554 l 861 21 b 882 0 861 7 868 0 l 982 0 b 1003 21 996 0 1003 7 l 1003 674 b 982 694 1003 688 996 694 l 844 694 b 814 679 833 694 825 689 l 222 140 l 211 140 l 211 674 b 190 694 211 688 204 694 z "},"ө":{"ha":1026,"x_min":0,"x_max":0,"o":"m 725 700 l 301 700 b 63 465 147 700 63 615 l 63 229 b 301 -7 63 79 147 -7 l 725 -7 b 964 229 879 -7 964 79 l 964 464 b 725 700 964 614 879 700 z m 318 575 l 708 575 b 826 463 785 575 826 539 l 826 410 l 200 410 l 200 463 b 318 575 200 539 243 575 z m 708 118 l 318 118 b 200 232 243 118 200 154 l 200 285 l 826 285 l 826 232 b 708 118 826 154 785 118 z "},"ӭ":{"ha":1007,"x_min":0,"x_max":0,"o":"m 271 828 l 376 828 b 396 847 390 828 396 833 l 396 953 b 376 972 396 967 390 972 l 271 972 b 251 953 257 972 251 967 l 251 847 b 271 828 251 833 257 828 z m 611 828 l 717 828 b 736 847 731 828 736 833 l 736 953 b 717 972 736 967 731 972 l 611 972 b 592 953 597 972 592 967 l 592 847 b 611 828 592 833 597 828 z m 706 700 l 285 700 b 56 490 125 700 56 625 l 56 457 b 79 435 56 442 64 435 l 168 435 b 192 453 182 435 192 440 l 192 486 b 303 575 192 546 225 575 l 689 575 b 807 461 765 575 807 539 l 807 404 l 549 404 b 529 383 535 404 529 397 l 529 310 b 549 290 529 296 535 290 l 807 290 l 807 231 b 689 117 807 153 765 117 l 333 117 b 158 150 239 117 219 121 b 118 147 146 156 136 156 l 76 126 b 71 97 60 119 63 110 b 328 -7 114 28 171 -7 l 706 -7 b 944 229 860 -7 944 79 l 944 464 b 706 700 944 615 860 700 z "},"ӯ":{"ha":1104,"x_min":0,"x_max":0,"o":"m 343 846 l 793 846 b 814 867 806 846 814 853 l 814 951 b 793 972 814 965 806 972 l 343 972 b 322 951 329 972 322 965 l 322 867 b 343 846 322 853 329 846 z m 1038 694 l 924 694 b 890 671 908 694 901 686 l 560 163 l 544 163 l 214 671 b 181 694 203 686 196 694 l 67 694 b 51 671 53 694 42 686 l 471 26 l 306 -228 b 321 -251 296 -243 307 -251 l 435 -251 b 467 -228 449 -251 457 -243 l 624 13 l 633 26 l 1053 671 b 1038 694 1063 686 1051 694 z "},"Δ":{"ha":1174,"x_min":0,"x_max":0,"o":"m 1115 31 l 653 990 b 626 1013 646 1004 639 1013 l 549 1013 b 522 990 536 1013 529 1004 l 58 31 b 74 0 51 15 60 0 l 1099 0 b 1115 31 1113 0 1122 15 z m 250 142 l 588 842 l 921 142 z "},"Ω":{"ha":1343,"x_min":0,"x_max":0,"o":"m 1260 349 l 1260 749 b 990 1025 1260 932 1150 1025 l 354 1025 b 83 749 194 1025 83 932 l 83 349 b 194 142 83 238 125 183 l 104 142 b 83 121 90 142 83 135 l 83 21 b 104 0 83 7 90 0 l 353 0 b 374 21 367 0 374 7 l 374 133 b 353 154 374 147 367 154 l 349 154 b 225 371 268 154 225 271 l 225 733 b 368 883 225 846 279 883 l 975 883 b 1118 733 1064 883 1118 846 l 1118 371 b 994 154 1118 271 1075 154 l 990 154 b 969 133 976 154 969 147 l 969 21 b 990 0 969 7 976 0 l 1239 0 b 1260 21 1253 0 1260 7 l 1260 121 b 1239 142 1260 135 1253 142 l 1150 142 b 1260 349 1218 183 1260 238 z "},"μ":{"ha":1040,"x_min":0,"x_max":0,"o":"m 950 694 l 854 694 b 833 674 840 694 833 688 l 833 233 b 717 119 833 156 793 119 l 325 119 b 207 233 250 119 207 156 l 207 674 b 188 694 207 688 201 694 l 90 694 b 69 674 76 694 69 688 l 69 -257 b 90 -278 69 -271 76 -278 l 186 -278 b 207 -257 200 -278 207 -271 l 207 10 b 310 -6 236 0 271 -6 l 642 -6 b 821 69 754 -6 785 21 l 833 69 l 833 21 b 853 0 833 7 842 0 l 950 0 b 971 21 964 0 971 7 l 971 674 b 950 694 971 688 964 694 z "},"π":{"ha":1093,"x_min":0,"x_max":0,"o":"m 1017 694 l 75 694 b 56 674 61 694 56 688 l 56 574 b 76 553 56 560 61 553 l 146 553 l 146 21 b 167 0 146 7 153 0 l 267 0 b 288 21 281 0 288 7 l 288 553 l 804 553 l 804 21 b 825 0 804 7 811 0 l 925 0 b 946 21 939 0 946 7 l 946 553 l 1017 553 b 1038 572 1031 553 1038 560 l 1038 674 b 1017 694 1038 686 1031 694 z "},"¹":{"ha":419,"x_min":0,"x_max":0,"o":"m 167 951 l 167 564 b 188 543 167 550 174 543 l 232 543 b 253 564 246 543 253 550 l 253 951 b 232 972 253 965 246 972 l 188 972 b 167 951 174 972 167 965 z "},"²":{"ha":444,"x_min":0,"x_max":0,"o":"m 340 624 l 190 624 l 268 692 b 360 847 317 733 360 776 b 240 972 360 913 322 972 l 206 972 b 83 857 129 972 83 924 l 83 839 b 104 818 83 825 90 818 l 146 818 b 167 839 160 818 167 825 l 167 849 b 218 893 167 878 188 893 b 275 839 253 893 275 874 b 226 761 275 807 250 783 l 106 647 b 86 608 92 635 86 628 l 86 563 b 107 542 86 549 93 542 l 340 542 b 361 563 354 542 361 549 l 361 603 b 340 624 361 617 354 624 z "},"³":{"ha":451,"x_min":0,"x_max":0,"o":"m 301 757 b 360 853 343 778 360 810 b 243 972 360 913 322 972 l 208 972 b 86 857 132 972 86 924 l 86 839 b 107 818 86 825 93 818 l 149 818 b 169 839 163 818 169 825 l 169 849 b 224 893 169 878 190 893 b 278 840 258 893 278 874 b 226 793 278 810 264 793 l 204 793 b 185 772 192 793 185 786 l 185 742 b 204 721 185 728 192 721 l 226 721 b 281 674 267 721 281 704 b 224 621 281 640 261 621 b 167 665 188 621 167 636 l 167 675 b 146 696 167 689 160 696 l 104 696 b 83 675 90 696 83 689 l 83 657 b 208 542 83 590 129 542 l 243 542 b 368 661 331 542 368 601 b 301 757 368 704 346 736 z "},"⁄":{"ha":139,"x_min":0,"x_max":0,"o":"m 289 988 l -272 21 b -258 0 -281 7 -272 0 l -206 0 b -178 21 -192 0 -186 7 l 383 988 b 369 1008 392 1001 383 1008 l 317 1008 b 289 988 303 1008 297 1001 z "},"½":{"ha":1003,"x_min":0,"x_max":0,"o":"m 708 988 l 147 21 b 161 0 139 7 147 0 l 214 0 b 242 21 228 0 233 7 l 803 988 b 789 1008 811 1001 803 1008 l 736 1008 b 708 988 722 1008 717 1001 z m 167 951 l 167 564 b 188 543 167 550 174 543 l 232 543 b 253 564 246 543 253 550 l 253 951 b 232 972 253 965 246 972 l 188 972 b 167 951 174 972 167 965 z m 899 82 l 749 82 l 826 150 b 918 306 875 192 918 235 b 799 431 918 371 881 431 l 764 431 b 642 315 688 431 642 382 l 642 297 b 663 276 642 283 649 276 l 704 276 b 725 297 718 276 725 283 l 725 307 b 776 351 725 336 746 351 b 833 297 811 351 833 332 b 785 219 833 265 808 242 l 664 106 b 644 67 650 93 644 86 l 644 21 b 665 0 644 7 651 0 l 899 0 b 919 21 913 0 919 7 l 919 61 b 899 82 919 75 913 82 z "},"¼":{"ha":1025,"x_min":0,"x_max":0,"o":"m 708 988 l 147 21 b 161 0 139 7 147 0 l 214 0 b 242 21 228 0 233 7 l 803 988 b 789 1008 811 1001 803 1008 l 736 1008 b 708 988 722 1008 717 1001 z m 167 951 l 167 564 b 188 543 167 550 174 543 l 232 543 b 253 564 246 543 253 550 l 253 951 b 232 972 253 965 246 972 l 188 972 b 167 951 174 972 167 965 z m 921 150 l 901 150 l 901 410 b 881 431 901 424 894 431 l 811 431 b 788 415 803 431 793 426 l 649 151 b 642 126 646 146 642 138 l 642 92 b 665 71 642 78 650 71 l 818 71 l 818 21 b 839 0 818 7 825 0 l 881 0 b 901 21 894 0 901 7 l 901 71 l 921 71 b 942 92 935 71 942 78 l 942 129 b 921 150 942 143 935 150 z m 818 153 l 738 153 l 818 315 z "},"¾":{"ha":1057,"x_min":0,"x_max":0,"o":"m 740 988 l 179 21 b 193 0 171 7 179 0 l 246 0 b 274 21 260 0 265 7 l 835 988 b 821 1008 843 1001 835 1008 l 768 1008 b 740 988 754 1008 749 1001 z m 301 757 b 360 853 343 778 360 810 b 243 972 360 913 322 972 l 208 972 b 86 857 132 972 86 924 l 86 839 b 107 818 86 825 93 818 l 149 818 b 169 839 163 818 169 825 l 169 849 b 224 893 169 878 190 893 b 278 840 258 893 278 874 b 226 793 278 810 264 793 l 204 793 b 185 772 192 793 185 786 l 185 742 b 204 721 185 728 192 721 l 226 721 b 281 674 267 721 281 704 b 224 621 281 640 261 621 b 167 665 188 621 167 636 l 167 675 b 146 696 167 689 160 696 l 104 696 b 83 675 90 696 83 689 l 83 657 b 208 542 83 590 129 542 l 243 542 b 368 661 331 542 368 601 b 301 757 368 704 346 736 z m 953 150 l 933 150 l 933 410 b 913 431 933 424 926 431 l 843 431 b 819 415 835 431 825 426 l 681 151 b 674 126 678 146 674 138 l 674 92 b 697 71 674 78 682 71 l 850 71 l 850 21 b 871 0 850 7 857 0 l 913 0 b 933 21 926 0 933 7 l 933 71 l 953 71 b 974 92 967 71 974 78 l 974 129 b 953 150 974 143 967 150 z m 850 153 l 769 153 l 850 315 z "},"⅛":{"ha":1007,"x_min":0,"x_max":0,"o":"m 708 988 l 147 21 b 161 0 139 7 147 0 l 214 0 b 242 21 228 0 233 7 l 803 988 b 789 1008 811 1001 803 1008 l 736 1008 b 708 988 722 1008 717 1001 z m 167 951 l 167 564 b 188 543 167 550 174 543 l 232 543 b 253 564 246 543 253 550 l 253 951 b 232 972 253 965 246 972 l 188 972 b 167 951 174 972 167 965 z m 867 226 b 913 317 894 244 913 274 b 794 431 913 381 871 431 l 771 431 b 653 317 699 431 653 381 b 699 226 653 274 671 244 b 642 122 671 210 642 182 b 769 0 642 50 685 0 l 796 0 b 924 122 881 0 924 50 b 867 226 924 182 894 210 z m 786 258 l 779 258 b 733 307 751 258 733 276 b 779 356 733 338 751 356 l 786 356 b 832 307 814 356 832 338 b 786 258 832 276 814 258 z m 775 78 b 726 131 746 78 726 94 b 775 186 726 165 746 186 l 790 186 b 839 131 819 186 839 165 b 790 78 839 94 819 78 z "},"⅜":{"ha":1039,"x_min":0,"x_max":0,"o":"m 740 988 l 179 21 b 193 0 171 7 179 0 l 246 0 b 274 21 260 0 265 7 l 835 988 b 821 1008 843 1001 835 1008 l 768 1008 b 740 988 754 1008 749 1001 z m 301 757 b 360 853 343 778 360 810 b 243 972 360 913 322 972 l 208 972 b 86 857 132 972 86 924 l 86 839 b 107 818 86 825 93 818 l 149 818 b 169 839 163 818 169 825 l 169 849 b 224 893 169 878 190 893 b 278 840 258 893 278 874 b 226 793 278 810 264 793 l 204 793 b 185 772 192 793 185 786 l 185 742 b 204 721 185 728 192 721 l 226 721 b 281 674 267 721 281 704 b 224 621 281 640 261 621 b 167 665 188 621 167 636 l 167 675 b 146 696 167 689 160 696 l 104 696 b 83 675 90 696 83 689 l 83 657 b 208 542 83 590 129 542 l 243 542 b 368 661 331 542 368 601 b 301 757 368 704 346 736 z m 899 226 b 944 317 926 244 944 274 b 826 431 944 381 903 431 l 803 431 b 685 317 731 431 685 381 b 731 226 685 274 703 244 b 674 122 703 210 674 182 b 801 0 674 50 717 0 l 828 0 b 956 122 913 0 956 50 b 899 226 956 182 926 210 z m 818 258 l 811 258 b 765 307 783 258 765 276 b 811 356 765 338 783 356 l 818 356 b 864 307 846 356 864 338 b 818 258 864 276 846 258 z m 807 78 b 758 131 778 78 758 94 b 807 186 758 165 778 186 l 822 186 b 871 131 851 186 871 165 b 822 78 871 94 851 78 z "},"⅝":{"ha":1039,"x_min":0,"x_max":0,"o":"m 740 988 l 179 21 b 193 0 171 7 179 0 l 246 0 b 274 21 260 0 265 7 l 835 988 b 821 1008 843 1001 835 1008 l 768 1008 b 740 988 754 1008 749 1001 z m 238 824 b 169 799 215 824 188 818 l 169 892 l 332 892 b 353 913 346 892 353 899 l 353 951 b 332 972 353 965 346 972 l 110 972 b 89 951 96 972 89 965 l 89 757 b 110 736 89 743 96 736 l 168 736 b 221 754 181 749 201 754 b 281 682 268 754 281 726 b 224 621 281 640 261 621 b 167 665 188 621 167 636 l 167 675 b 146 696 167 689 160 696 l 104 696 b 83 675 90 696 83 689 l 83 657 b 208 542 83 590 129 542 l 243 542 b 368 682 331 542 368 601 b 238 824 368 769 325 824 z m 899 226 b 944 317 926 244 944 274 b 826 431 944 381 903 431 l 803 431 b 685 317 731 431 685 381 b 731 226 685 274 703 244 b 674 122 703 210 674 182 b 801 0 674 50 717 0 l 828 0 b 956 122 913 0 956 50 b 899 226 956 182 926 210 z m 818 258 l 811 258 b 765 307 783 258 765 276 b 811 356 765 338 783 356 l 818 356 b 864 307 846 356 864 338 b 818 258 864 276 846 258 z m 807 78 b 758 131 778 78 758 94 b 807 186 758 165 778 186 l 822 186 b 871 131 851 186 871 165 b 822 78 871 94 851 78 z "},"⅞":{"ha":1024,"x_min":0,"x_max":0,"o":"m 725 988 l 164 21 b 178 0 156 7 164 0 l 231 0 b 258 21 244 0 250 7 l 819 988 b 806 1008 828 1001 819 1008 l 753 1008 b 725 988 739 1008 733 1001 z m 353 908 l 353 951 b 332 972 353 965 346 972 l 104 972 b 83 951 90 972 83 965 l 83 910 b 104 889 83 896 90 889 l 260 889 l 104 561 b 117 542 100 551 104 542 l 175 542 b 197 561 186 542 193 551 l 347 885 b 353 908 353 896 353 903 z m 883 226 b 929 317 911 244 929 274 b 811 431 929 381 888 431 l 788 431 b 669 317 715 431 669 381 b 715 226 669 274 688 244 b 658 122 688 210 658 182 b 786 0 658 50 701 0 l 813 0 b 940 122 897 0 940 50 b 883 226 940 182 911 210 z m 803 258 l 796 258 b 750 307 768 258 750 276 b 796 356 750 338 768 356 l 803 356 b 849 307 831 356 849 338 b 803 258 849 276 831 258 z m 792 78 b 743 131 763 78 743 94 b 792 186 743 165 763 186 l 807 186 b 856 131 836 186 856 165 b 807 78 856 94 836 78 z "},".":{"ha":242,"x_min":0,"x_max":0,"o":"m 68 0 l 174 0 b 193 19 188 0 193 6 l 193 125 b 174 144 193 139 188 144 l 68 144 b 49 125 54 144 49 139 l 49 19 b 68 0 49 6 54 0 z "},",":{"ha":279,"x_min":0,"x_max":0,"o":"m 210 144 l 128 144 b 108 125 114 144 108 139 l 108 -99 l 54 -99 b 35 -118 40 -99 35 -104 l 35 -194 b 54 -214 35 -208 40 -214 l 186 -214 b 231 -171 215 -214 231 -200 l 231 125 b 210 144 231 139 224 144 z "},":":{"ha":242,"x_min":0,"x_max":0,"o":"m 68 550 l 174 550 b 193 569 188 550 193 556 l 193 675 b 174 694 193 689 188 694 l 68 694 b 49 675 54 694 49 689 l 49 569 b 68 550 49 556 54 550 z m 68 0 l 174 0 b 193 19 188 0 193 6 l 193 125 b 174 144 193 139 188 144 l 68 144 b 49 125 54 144 49 139 l 49 19 b 68 0 49 6 54 0 z "},";":{"ha":304,"x_min":0,"x_max":0,"o":"m 132 550 l 236 550 b 256 569 250 550 256 556 l 256 675 b 236 694 256 689 250 694 l 132 694 b 111 675 118 694 111 689 l 111 569 b 132 550 111 556 118 550 z m 224 144 l 142 144 b 122 125 128 144 122 139 l 122 -99 l 68 -99 b 49 -118 54 -99 49 -104 l 49 -194 b 68 -214 49 -208 54 -214 l 200 -214 b 244 -171 229 -214 244 -200 l 244 125 b 224 144 244 139 238 144 z "},"…":{"ha":803,"x_min":0,"x_max":0,"o":"m 68 0 l 174 0 b 193 19 188 0 193 6 l 193 125 b 174 144 193 139 188 144 l 68 144 b 49 125 54 144 49 139 l 49 19 b 68 0 49 6 54 0 z m 347 0 l 453 0 b 472 19 467 0 472 6 l 472 125 b 453 144 472 139 467 144 l 347 144 b 328 125 333 144 328 139 l 328 19 b 347 0 328 6 333 0 z m 629 0 l 733 0 b 754 19 747 0 754 6 l 754 125 b 733 144 754 139 747 144 l 629 144 b 610 125 615 144 610 139 l 610 19 b 629 0 610 6 615 0 z "},"!":{"ha":325,"x_min":0,"x_max":0,"o":"m 111 271 l 215 271 b 235 290 229 271 235 276 l 235 953 b 215 972 235 967 229 972 l 111 972 b 90 953 97 972 90 967 l 90 290 b 111 271 90 276 97 271 z m 110 0 l 215 0 b 235 19 229 0 235 6 l 235 125 b 215 144 235 139 229 144 l 110 144 b 90 125 96 144 90 139 l 90 19 b 110 0 90 6 96 0 z "},"¡":{"ha":325,"x_min":0,"x_max":0,"o":"m 215 694 l 110 694 b 90 675 96 694 90 689 l 90 569 b 110 550 90 556 96 550 l 215 550 b 235 569 229 550 235 556 l 235 675 b 215 694 235 689 229 694 z m 215 425 l 111 425 b 90 404 97 425 90 418 l 90 -258 b 111 -278 90 -272 97 -278 l 215 -278 b 235 -258 229 -278 235 -272 l 235 404 b 215 425 235 418 229 425 z "},"?":{"ha":1231,"x_min":0,"x_max":0,"o":"m 529 271 l 632 271 b 653 292 646 271 653 278 l 653 369 b 733 451 653 425 674 451 l 907 451 b 1168 708 1086 451 1168 511 b 907 978 1168 906 1086 978 l 351 978 b 63 724 161 978 63 897 l 63 699 b 82 679 63 686 68 679 l 185 679 b 204 699 199 679 204 686 b 354 850 204 813 254 850 l 890 850 b 1026 714 996 850 1026 810 b 890 575 1026 618 996 575 l 685 575 b 510 403 544 575 510 504 l 510 292 b 529 271 510 278 515 271 z m 528 0 l 632 0 b 653 19 646 0 653 6 l 653 125 b 632 144 653 139 646 144 l 528 144 b 508 125 514 144 508 139 l 508 19 b 528 0 508 6 514 0 z "},"¿":{"ha":1231,"x_min":0,"x_max":0,"o":"m 704 697 l 599 697 b 579 676 585 697 579 690 l 579 572 b 599 553 579 558 585 553 l 704 553 b 724 572 718 553 724 558 l 724 676 b 704 697 724 690 718 697 z m 701 426 l 600 426 b 579 406 586 426 579 419 l 579 326 b 497 244 579 271 557 244 l 325 244 b 63 -11 146 244 63 185 b 324 -281 63 -208 144 -281 l 879 -281 b 1168 -26 1069 -281 1168 -200 l 1168 -1 b 1149 18 1168 11 1163 18 l 1047 18 b 1026 -1 1033 18 1026 11 b 876 -153 1026 -115 978 -153 l 342 -153 b 204 -18 236 -153 204 -114 b 342 121 204 79 236 121 l 546 121 b 722 294 686 121 722 193 l 722 406 b 701 426 722 419 715 426 z "}}}
